<svg width="166" height="54" viewBox="0 0 166 54" fill="none" xmlns="http://www.w3.org/2000/svg">
<rect width="165.751" height="53.2771" rx="15.7858" fill="#FEFBFF"/>
<path d="M64.5265 23V16.5278H66.1445C67.1443 16.5278 67.904 16.8074 68.4236 17.3664C68.9432 17.9189 69.203 18.7082 69.203 19.7343C69.203 20.767 68.9432 21.5694 68.4236 22.1416C67.9106 22.7139 67.164 23 66.184 23H64.5265ZM65.3454 22.3291H66.0854C66.8418 22.3291 67.4074 22.1022 67.7823 21.6483C68.1638 21.1879 68.3546 20.5499 68.3546 19.7343C68.3546 18.9187 68.1638 18.2939 67.7823 17.8597C67.4074 17.4191 66.8418 17.1987 66.0854 17.1987H65.3454V22.3291ZM72.3823 23.1184C71.9942 23.1184 71.6291 23.0197 71.2871 22.8224C70.9517 22.6251 70.6787 22.339 70.4682 21.9641C70.2643 21.5891 70.1624 21.1386 70.1624 20.6124C70.1624 20.073 70.2643 19.6159 70.4682 19.241C70.6787 18.8661 70.9517 18.58 71.2871 18.3827C71.6291 18.1853 71.9942 18.0867 72.3823 18.0867C72.7769 18.0867 73.1419 18.1853 73.4774 18.3827C73.8128 18.58 74.0825 18.8661 74.2864 19.241C74.4969 19.6159 74.6021 20.073 74.6021 20.6124C74.6021 21.1386 74.4969 21.5891 74.2864 21.9641C74.0825 22.339 73.8128 22.6251 73.4774 22.8224C73.1419 23.0197 72.7769 23.1184 72.3823 23.1184ZM72.3823 22.4475C72.7966 22.4475 73.1288 22.2798 73.3787 21.9443C73.6353 21.6023 73.7635 21.1583 73.7635 20.6124C73.7635 20.0599 73.6353 19.6126 73.3787 19.2706C73.1288 18.9286 72.7966 18.7576 72.3823 18.7576C71.9745 18.7576 71.6423 18.9286 71.3858 19.2706C71.1293 19.6126 71.001 20.0599 71.001 20.6124C71.001 21.1583 71.1293 21.6023 71.3858 21.9443C71.6423 22.2798 71.9745 22.4475 72.3823 22.4475ZM76.5861 23L75.2541 18.2051H76.0829L76.7933 20.9774C76.8459 21.2011 76.8952 21.4247 76.9413 21.6483C76.9873 21.8654 77.0333 22.0857 77.0794 22.3094H77.1188C77.1715 22.0857 77.2241 21.8654 77.2767 21.6483C77.3293 21.4247 77.3852 21.2011 77.4444 20.9774L78.1844 18.2051H78.9737L79.7235 20.9774C79.7827 21.2011 79.8386 21.4247 79.8912 21.6483C79.9504 21.8654 80.0063 22.0857 80.059 22.3094H80.0984C80.151 22.0857 80.2004 21.8654 80.2464 21.6483C80.299 21.4247 80.3484 21.2011 80.3944 20.9774L81.0949 18.2051H81.8645L80.5819 23H79.5952L78.9046 20.4249C78.8454 20.1947 78.7895 19.9678 78.7369 19.7442C78.6908 19.5205 78.6382 19.287 78.579 19.0437H78.5396C78.4869 19.287 78.4343 19.5238 78.3817 19.754C78.3291 19.9777 78.2699 20.2046 78.2041 20.4348L77.5332 23H76.5861ZM82.908 23V18.2051H83.5789L83.648 18.8957H83.6776C83.9078 18.6655 84.1512 18.4747 84.4077 18.3235C84.6642 18.1656 84.9569 18.0867 85.2858 18.0867C85.7922 18.0867 86.1606 18.2478 86.3908 18.5701C86.6276 18.8858 86.746 19.3495 86.746 19.9612V23H85.9369V20.0698C85.9369 19.6225 85.8646 19.2969 85.7199 19.093C85.5752 18.8891 85.345 18.7872 85.0292 18.7872C84.7859 18.7872 84.5655 18.8496 84.3682 18.9746C84.1775 19.0996 83.9604 19.2838 83.717 19.5271V23H82.908ZM89.1619 23.1184C88.8594 23.1184 88.639 23.0263 88.5009 22.8421C88.3693 22.6514 88.3036 22.3817 88.3036 22.0331V15.9753H89.1126V22.0923C89.1126 22.2173 89.1356 22.3094 89.1817 22.3686C89.2277 22.4212 89.2803 22.4475 89.3395 22.4475C89.3658 22.4475 89.3888 22.4475 89.4086 22.4475C89.4349 22.4409 89.4711 22.4343 89.5171 22.4278L89.6256 23.0395C89.573 23.0658 89.5105 23.0855 89.4382 23.0987C89.3658 23.1118 89.2737 23.1184 89.1619 23.1184ZM92.683 23.1184C92.2949 23.1184 91.9299 23.0197 91.5878 22.8224C91.2524 22.6251 90.9794 22.339 90.7689 21.9641C90.565 21.5891 90.4631 21.1386 90.4631 20.6124C90.4631 20.073 90.565 19.6159 90.7689 19.241C90.9794 18.8661 91.2524 18.58 91.5878 18.3827C91.9299 18.1853 92.2949 18.0867 92.683 18.0867C93.0776 18.0867 93.4427 18.1853 93.7781 18.3827C94.1136 18.58 94.3832 18.8661 94.5871 19.241C94.7976 19.6159 94.9029 20.073 94.9029 20.6124C94.9029 21.1386 94.7976 21.5891 94.5871 21.9641C94.3832 22.339 94.1136 22.6251 93.7781 22.8224C93.4427 23.0197 93.0776 23.1184 92.683 23.1184ZM92.683 22.4475C93.0973 22.4475 93.4295 22.2798 93.6795 21.9443C93.936 21.6023 94.0642 21.1583 94.0642 20.6124C94.0642 20.0599 93.936 19.6126 93.6795 19.2706C93.4295 18.9286 93.0973 18.7576 92.683 18.7576C92.2752 18.7576 91.943 18.9286 91.6865 19.2706C91.43 19.6126 91.3017 20.0599 91.3017 20.6124C91.3017 21.1583 91.43 21.6023 91.6865 21.9443C91.943 22.2798 92.2752 22.4475 92.683 22.4475ZM97.1358 23.1184C96.7345 23.1184 96.3991 23 96.1294 22.7632C95.8663 22.5198 95.7348 22.1844 95.7348 21.7569C95.7348 21.2307 95.9683 20.8295 96.4353 20.5532C96.9088 20.2704 97.6554 20.073 98.6749 19.9612C98.6749 19.7573 98.6453 19.5633 98.5861 19.3791C98.5335 19.195 98.4348 19.047 98.2901 18.9352C98.152 18.8168 97.9514 18.7576 97.6883 18.7576C97.412 18.7576 97.1522 18.8102 96.9088 18.9154C96.6655 19.0207 96.4484 19.1391 96.2577 19.2706L95.942 18.7082C96.1656 18.5635 96.4386 18.4254 96.7608 18.2939C97.0897 18.1557 97.4449 18.0867 97.8264 18.0867C98.4118 18.0867 98.836 18.2675 99.0991 18.6293C99.3622 18.9845 99.4938 19.4613 99.4938 20.0599V23H98.8229L98.7538 22.4278H98.7242C98.5006 22.6119 98.2539 22.7731 97.9842 22.9112C97.7211 23.0493 97.4383 23.1184 97.1358 23.1184ZM97.3725 22.4672C97.6028 22.4672 97.8198 22.4113 98.0237 22.2995C98.2276 22.1877 98.4447 22.0298 98.6749 21.8259V20.494C97.879 20.5927 97.3199 20.7407 96.9976 20.938C96.6819 21.1353 96.5241 21.3885 96.5241 21.6977C96.5241 21.9673 96.6063 22.1647 96.7707 22.2896C96.9351 22.408 97.1358 22.4672 97.3725 22.4672ZM102.64 23.1184C102.042 23.1184 101.561 22.9013 101.2 22.4672C100.838 22.0265 100.657 21.4083 100.657 20.6124C100.657 20.0928 100.752 19.6455 100.943 19.2706C101.14 18.8891 101.397 18.5964 101.713 18.3925C102.035 18.1886 102.377 18.0867 102.739 18.0867C103.015 18.0867 103.255 18.136 103.459 18.2347C103.663 18.3333 103.87 18.4682 104.081 18.6392L104.041 17.8203V15.9753H104.86V23H104.189L104.12 22.4376H104.09C103.906 22.6218 103.689 22.7829 103.439 22.9211C103.189 23.0526 102.923 23.1184 102.64 23.1184ZM102.818 22.4376C103.239 22.4376 103.646 22.2173 104.041 21.7766V19.2706C103.837 19.0864 103.64 18.9582 103.449 18.8858C103.265 18.8069 103.074 18.7674 102.877 18.7674C102.62 18.7674 102.387 18.8464 102.176 19.0042C101.973 19.1555 101.808 19.3693 101.683 19.6455C101.558 19.9152 101.496 20.2342 101.496 20.6025C101.496 21.1748 101.611 21.6253 101.841 21.9542C102.071 22.2765 102.397 22.4376 102.818 22.4376ZM109.486 23L107.759 18.2051H108.598L109.506 20.9281C109.578 21.1649 109.651 21.4017 109.723 21.6385C109.802 21.8753 109.877 22.1088 109.95 22.339H109.989C110.062 22.1088 110.134 21.8753 110.206 21.6385C110.285 21.4017 110.358 21.1649 110.423 20.9281L111.331 18.2051H112.13L110.433 23H109.486ZM113.056 23V18.2051H113.865V23H113.056ZM113.47 17.2184C113.312 17.2184 113.181 17.1724 113.075 17.0803C112.977 16.9817 112.927 16.8501 112.927 16.6857C112.927 16.5278 112.977 16.3996 113.075 16.3009C113.181 16.2022 113.312 16.1529 113.47 16.1529C113.628 16.1529 113.756 16.2022 113.855 16.3009C113.96 16.3996 114.013 16.5278 114.013 16.6857C114.013 16.8501 113.96 16.9817 113.855 17.0803C113.756 17.1724 113.628 17.2184 113.47 17.2184ZM116.589 23.1184C116.187 23.1184 115.852 23 115.582 22.7632C115.319 22.5198 115.188 22.1844 115.188 21.7569C115.188 21.2307 115.421 20.8295 115.888 20.5532C116.362 20.2704 117.108 20.073 118.128 19.9612C118.128 19.7573 118.098 19.5633 118.039 19.3791C117.986 19.195 117.888 19.047 117.743 18.9352C117.605 18.8168 117.404 18.7576 117.141 18.7576C116.865 18.7576 116.605 18.8102 116.362 18.9154C116.118 19.0207 115.901 19.1391 115.711 19.2706L115.395 18.7082C115.618 18.5635 115.891 18.4254 116.214 18.2939C116.543 18.1557 116.898 18.0867 117.279 18.0867C117.865 18.0867 118.289 18.2675 118.552 18.6293C118.815 18.9845 118.947 19.4613 118.947 20.0599V23H118.276L118.207 22.4278H118.177C117.953 22.6119 117.707 22.7731 117.437 22.9112C117.174 23.0493 116.891 23.1184 116.589 23.1184ZM116.825 22.4672C117.056 22.4672 117.273 22.4113 117.477 22.2995C117.68 22.1877 117.898 22.0298 118.128 21.8259V20.494C117.332 20.5927 116.773 20.7407 116.45 20.938C116.135 21.1353 115.977 21.3885 115.977 21.6977C115.977 21.9673 116.059 22.1647 116.224 22.2896C116.388 22.408 116.589 22.4672 116.825 22.4672Z" fill="#363434"/>
<path d="M66.5885 32.62L66.3833 33.3895H68.1661L67.9737 32.62C67.8626 32.201 67.7471 31.7564 67.6274 31.2861C67.5163 30.8158 67.4051 30.3626 67.294 29.9265H67.2426C67.14 30.3711 67.0332 30.8286 66.922 31.2989C66.8194 31.7606 66.7082 32.201 66.5885 32.62ZM63.5616 36.8525L66.1781 28.49H68.4483L71.0648 36.8525H69.0639L68.5509 34.8645H65.9985L65.4855 36.8525H63.5616ZM71.8246 39.2125V30.4909H73.3637L73.492 31.1193H73.5433C73.7913 30.897 74.0692 30.7132 74.377 30.5678C74.6934 30.4139 75.0183 30.3369 75.3518 30.3369C76.1213 30.3369 76.7284 30.6319 77.1731 31.2219C77.6177 31.8034 77.84 32.5858 77.84 33.5691C77.84 34.2959 77.7117 34.9158 77.4552 35.4289C77.1987 35.9419 76.8652 36.3352 76.4548 36.6088C76.0529 36.8739 75.6211 37.0065 75.1594 37.0065C74.8858 37.0065 74.6207 36.9509 74.3642 36.8397C74.1076 36.72 73.8682 36.5533 73.6459 36.3395L73.71 37.3528V39.2125H71.8246ZM74.7233 35.4673C75.0482 35.4673 75.3261 35.3177 75.557 35.0184C75.7878 34.7192 75.9033 34.2446 75.9033 33.5947C75.9033 32.449 75.5356 31.8761 74.8003 31.8761C74.4326 31.8761 74.0692 32.0685 73.71 32.4532V35.0569C73.8811 35.2108 74.0521 35.3177 74.2231 35.3776C74.3941 35.4374 74.5608 35.4673 74.7233 35.4673ZM79.177 39.2125V30.4909H80.7161L80.8444 31.1193H80.8957C81.1437 30.897 81.4216 30.7132 81.7294 30.5678C82.0458 30.4139 82.3707 30.3369 82.7042 30.3369C83.4737 30.3369 84.0808 30.6319 84.5254 31.2219C84.9701 31.8034 85.1924 32.5858 85.1924 33.5691C85.1924 34.2959 85.0641 34.9158 84.8076 35.4289C84.5511 35.9419 84.2176 36.3352 83.8072 36.6088C83.4053 36.8739 82.9735 37.0065 82.5118 37.0065C82.2381 37.0065 81.9731 36.9509 81.7166 36.8397C81.46 36.72 81.2206 36.5533 80.9983 36.3395L81.0624 37.3528V39.2125H79.177ZM82.0757 35.4673C82.4006 35.4673 82.6785 35.3177 82.9094 35.0184C83.1402 34.7192 83.2557 34.2446 83.2557 33.5947C83.2557 32.449 82.888 31.8761 82.1526 31.8761C81.785 31.8761 81.4216 32.0685 81.0624 32.4532V35.0569C81.2334 35.2108 81.4045 35.3177 81.5755 35.3776C81.7465 35.4374 81.9132 35.4673 82.0757 35.4673ZM88.2609 37.0065C87.6111 37.0065 87.1579 36.8141 86.9014 36.4293C86.6534 36.036 86.5294 35.5186 86.5294 34.8773V27.8615H88.4148V34.9543C88.4148 35.151 88.449 35.2878 88.5174 35.3647C88.5944 35.4417 88.6713 35.4802 88.7483 35.4802C88.791 35.4802 88.8252 35.4802 88.8509 35.4802C88.8851 35.4716 88.9279 35.4631 88.9792 35.4545L89.21 36.8525C89.1074 36.8953 88.9749 36.9295 88.8124 36.9551C88.6585 36.9893 88.4747 37.0065 88.2609 37.0065ZM93.0467 37.0065C92.4396 37.0065 91.8924 36.8739 91.405 36.6088C90.9176 36.3438 90.5328 35.9633 90.2506 35.4673C89.9685 34.9714 89.8274 34.3729 89.8274 33.6717C89.8274 32.9791 89.9685 32.3848 90.2506 31.8889C90.5414 31.393 90.9176 31.0124 91.3793 30.7474C91.8411 30.4738 92.3242 30.3369 92.8287 30.3369C93.4357 30.3369 93.936 30.4738 94.3293 30.7474C94.7312 31.0124 95.0304 31.3758 95.2271 31.8376C95.4323 32.2908 95.5349 32.8081 95.5349 33.3895C95.5349 33.552 95.5264 33.7145 95.5093 33.8769C95.4922 34.0308 95.4751 34.1463 95.458 34.2232H91.6487C91.7342 34.685 91.9266 35.027 92.2258 35.2493C92.5251 35.4631 92.8842 35.5699 93.3032 35.5699C93.7564 35.5699 94.2139 35.4289 94.6756 35.1467L95.3041 36.2882C94.9791 36.5105 94.6157 36.6858 94.2139 36.8141C93.812 36.9423 93.4229 37.0065 93.0467 37.0065ZM91.6358 32.9791H93.9317C93.9317 32.6285 93.8462 32.3421 93.6752 32.1198C93.5127 31.8889 93.2434 31.7735 92.8671 31.7735C92.5764 31.7735 92.3156 31.8761 92.0847 32.0813C91.8539 32.2779 91.7042 32.5772 91.6358 32.9791ZM102.112 37.0065C101.565 37.0065 101.017 36.9038 100.47 36.6986C99.9313 36.4934 99.4482 36.1941 99.0207 35.8008L100.098 34.5054C100.397 34.7619 100.731 34.9714 101.098 35.1339C101.466 35.2963 101.821 35.3776 102.163 35.3776C102.556 35.3776 102.847 35.3049 103.035 35.1595C103.232 35.0142 103.33 34.8175 103.33 34.5695C103.33 34.3044 103.219 34.1121 102.997 33.9923C102.783 33.8641 102.492 33.723 102.125 33.5691L101.034 33.1074C100.752 32.9876 100.483 32.8295 100.226 32.6328C99.9698 32.4276 99.7603 32.1753 99.5979 31.8761C99.4354 31.5768 99.3542 31.2262 99.3542 30.8243C99.3542 30.3626 99.4781 29.9436 99.7261 29.5674C99.9826 29.1912 100.333 28.8919 100.778 28.6696C101.231 28.4473 101.748 28.3361 102.33 28.3361C102.809 28.3361 103.287 28.4302 103.766 28.6183C104.245 28.8064 104.664 29.08 105.023 29.4391L104.061 30.6319C103.788 30.4182 103.514 30.2557 103.24 30.1446C102.967 30.0248 102.663 29.965 102.33 29.965C102.005 29.965 101.744 30.0334 101.547 30.1702C101.359 30.2985 101.265 30.4823 101.265 30.7217C101.265 30.9782 101.385 31.1706 101.624 31.2989C101.872 31.4272 102.176 31.564 102.535 31.7093L103.612 32.1454C104.117 32.3506 104.519 32.6328 104.818 32.9919C105.117 33.351 105.267 33.8256 105.267 34.4156C105.267 34.8773 105.143 35.3049 104.895 35.6982C104.647 36.0915 104.288 36.4079 103.818 36.6473C103.347 36.8867 102.779 37.0065 102.112 37.0065ZM108.619 37.0065C107.832 37.0065 107.268 36.7799 106.926 36.3267C106.592 35.8735 106.426 35.2792 106.426 34.5439V31.9658H105.554V30.5678L106.528 30.4909L106.746 28.7978H108.311V30.4909H109.837V31.9658H108.311V34.5182C108.311 34.8773 108.384 35.1381 108.529 35.3006C108.683 35.4545 108.884 35.5315 109.132 35.5315C109.235 35.5315 109.337 35.5186 109.44 35.493C109.551 35.4673 109.649 35.4374 109.735 35.4032L110.03 36.7756C109.867 36.8269 109.666 36.8782 109.427 36.9295C109.196 36.9808 108.927 37.0065 108.619 37.0065ZM113.586 37.0065C113.047 37.0065 112.538 36.8782 112.059 36.6217C111.589 36.3566 111.209 35.9761 110.918 35.4802C110.627 34.9757 110.482 34.3729 110.482 33.6717C110.482 32.962 110.627 32.3592 110.918 31.8632C111.209 31.3673 111.589 30.9911 112.059 30.7346C112.538 30.4695 113.047 30.3369 113.586 30.3369C114.124 30.3369 114.629 30.4695 115.099 30.7346C115.569 30.9911 115.95 31.3673 116.241 31.8632C116.531 32.3592 116.677 32.962 116.677 33.6717C116.677 34.3729 116.531 34.9757 116.241 35.4802C115.95 35.9761 115.569 36.3566 115.099 36.6217C114.629 36.8782 114.124 37.0065 113.586 37.0065ZM113.586 35.4802C113.97 35.4802 114.261 35.3177 114.458 34.9928C114.654 34.6593 114.753 34.2189 114.753 33.6717C114.753 33.1159 114.654 32.6755 114.458 32.3506C114.261 32.0257 113.97 31.8632 113.586 31.8632C113.192 31.8632 112.897 32.0257 112.701 32.3506C112.512 32.6755 112.418 33.1159 112.418 33.6717C112.418 34.2189 112.512 34.6593 112.701 34.9928C112.897 35.3177 113.192 35.4802 113.586 35.4802ZM117.968 36.8525V30.4909H119.507L119.635 31.6067H119.687C119.918 31.1792 120.195 30.8628 120.52 30.6576C120.845 30.4438 121.17 30.3369 121.495 30.3369C121.675 30.3369 121.824 30.3498 121.944 30.3754C122.064 30.3925 122.166 30.4225 122.252 30.4652L121.944 32.0941C121.833 32.0599 121.722 32.0342 121.611 32.0171C121.508 32 121.388 31.9915 121.252 31.9915C121.012 31.9915 120.76 32.0813 120.495 32.2608C120.238 32.4319 120.024 32.7311 119.853 33.1587V36.8525H117.968ZM125.801 37.0065C125.193 37.0065 124.646 36.8739 124.159 36.6088C123.671 36.3438 123.287 35.9633 123.004 35.4673C122.722 34.9714 122.581 34.3729 122.581 33.6717C122.581 32.9791 122.722 32.3848 123.004 31.8889C123.295 31.393 123.671 31.0124 124.133 30.7474C124.595 30.4738 125.078 30.3369 125.582 30.3369C126.19 30.3369 126.69 30.4738 127.083 30.7474C127.485 31.0124 127.784 31.3758 127.981 31.8376C128.186 32.2908 128.289 32.8081 128.289 33.3895C128.289 33.552 128.28 33.7145 128.263 33.8769C128.246 34.0308 128.229 34.1463 128.212 34.2232H124.402C124.488 34.685 124.68 35.027 124.98 35.2493C125.279 35.4631 125.638 35.5699 126.057 35.5699C126.51 35.5699 126.968 35.4289 127.429 35.1467L128.058 36.2882C127.733 36.5105 127.37 36.6858 126.968 36.8141C126.566 36.9423 126.177 37.0065 125.801 37.0065ZM124.39 32.9791H126.686C126.686 32.6285 126.6 32.3421 126.429 32.1198C126.267 31.8889 125.997 31.7735 125.621 31.7735C125.33 31.7735 125.069 31.8761 124.839 32.0813C124.608 32.2779 124.458 32.5772 124.39 32.9791Z" fill="#242222"/>
<path d="M37.0095 27.6732C36.8411 24.6993 38.9226 21.6638 41.9835 21.6638C42.6883 21.6638 43.0079 21.8307 43.7756 22.074C44.1867 22.2043 44.8832 22.5663 45.2859 22.5663C45.6887 22.5663 46.172 22.2996 46.8239 22.0561C47.7487 21.7106 48.2957 21.6737 48.8301 21.6638C50.6223 21.6638 51.9381 22.4269 52.777 23.6123C51.3923 24.53 50.6626 25.6427 50.6223 27.4476C50.6223 29.0884 51.6493 30.6882 53.3006 31.406C52.8978 33.1289 50.723 36.6771 48.9308 36.6771C48.3154 36.6413 47.9372 36.5434 47.2191 36.2669C46.6841 36.028 45.9706 35.8567 45.5074 35.8567C45.0242 35.8362 44.4825 35.9957 43.8058 36.2669C43.2319 36.4969 42.89 36.6274 42.1043 36.6771C40.6141 36.7713 37.3081 32.9443 37.0095 27.6732Z" fill="url(#paint0_linear_301_586)"/>
<path d="M46.2525 18.4643C45.4213 19.376 45.1047 20.5768 45.1651 21.6638C46.5344 21.5613 47.4809 20.987 48.3468 19.9205C49.2127 18.854 49.2191 18.079 49.2127 16.9465C48.2049 17.1136 47.0379 17.6029 46.2525 18.4643Z" fill="url(#paint1_linear_301_586)"/>
<defs>
<linearGradient id="paint0_linear_301_586" x1="37" y1="26.8127" x2="53.3006" y2="26.8127" gradientUnits="userSpaceOnUse">
<stop stop-color="#AA0811"/>
<stop offset="1" stop-color="#E63147"/>
</linearGradient>
<linearGradient id="paint1_linear_301_586" x1="37" y1="26.8127" x2="53.3006" y2="26.8127" gradientUnits="userSpaceOnUse">
<stop stop-color="#AA0811"/>
<stop offset="1" stop-color="#E63147"/>
</linearGradient>
</defs>
</svg>
