<svg width="70" height="70" viewBox="0 0 70 70" fill="none" xmlns="http://www.w3.org/2000/svg">
<rect width="70" height="70" rx="17" fill="#FCFAFA"/>
<path d="M49.5696 25.0026L42.3778 25.8382C42.1395 25.8661 42.0384 26.1481 42.2081 26.3117L44.349 28.3765L36.1896 36.2455L32.5143 32.7044C32.2869 32.4851 31.9222 32.4885 31.6984 32.7044L20.0839 43.909C20.0302 43.9614 20 44.0321 20 44.1057C20 44.1794 20.0302 44.2501 20.0839 44.3025L21.7086 45.8763C21.8205 45.9842 22.0046 45.9842 22.1165 45.8763L32.1063 36.2455L35.7781 39.7865C36.0055 40.0024 36.3702 40.0024 36.594 39.7865L46.3925 30.3437L48.5334 32.4085C48.5718 32.4453 48.6201 32.471 48.6728 32.4826C48.7256 32.4943 48.7807 32.4914 48.8319 32.4744C48.883 32.4573 48.9282 32.4268 48.9622 32.3862C48.9963 32.3456 49.0178 32.2966 49.0244 32.2448L49.8909 25.309C49.9162 25.1314 49.7573 24.9782 49.5696 25.0026Z" fill="url(#paint0_linear_280_301)"/>
<defs>
<linearGradient id="paint0_linear_280_301" x1="20" y1="35.4786" x2="49.8936" y2="35.4786" gradientUnits="userSpaceOnUse">
<stop stop-color="#AA0811"/>
<stop offset="1" stop-color="#E63147"/>
</linearGradient>
</defs>
</svg>
