<svg width="70" height="70" viewBox="0 0 70 70" fill="none" xmlns="http://www.w3.org/2000/svg">
<rect width="70" height="70" rx="17" fill="#FCFAFA"/>
<path d="M35.0237 38.4777C37.2131 38.4777 38.9879 36.7028 38.9879 34.5135C38.9879 32.3241 37.2131 30.5493 35.0237 30.5493C32.8344 30.5493 31.0596 32.3241 31.0596 34.5135C31.0596 36.7028 32.8344 38.4777 35.0237 38.4777Z" stroke="url(#paint0_linear_284_312)" stroke-width="2.72537" stroke-linecap="round" stroke-linejoin="round"/>
<path d="M44.8019 38.478C44.626 38.8765 44.5735 39.3186 44.6512 39.7473C44.7289 40.1759 44.9333 40.5715 45.2379 40.8829L45.3172 40.9622C45.5629 41.2076 45.7579 41.4991 45.8908 41.8199C46.0238 42.1408 46.0923 42.4847 46.0923 42.832C46.0923 43.1793 46.0238 43.5232 45.8908 43.844C45.7579 44.1648 45.5629 44.4563 45.3172 44.7017C45.0718 44.9474 44.7803 45.1424 44.4595 45.2754C44.1386 45.4084 43.7947 45.4768 43.4474 45.4768C43.1001 45.4768 42.7562 45.4084 42.4354 45.2754C42.1146 45.1424 41.8231 44.9474 41.5777 44.7017L41.4984 44.6224C41.187 44.3178 40.7914 44.1135 40.3628 44.0357C39.9341 43.958 39.492 44.0105 39.0935 44.1864C38.7026 44.3539 38.3693 44.632 38.1345 44.9865C37.8998 45.3411 37.7738 45.7565 37.7721 46.1817V46.4063C37.7721 47.1072 37.4936 47.7794 36.998 48.2751C36.5024 48.7707 35.8302 49.0491 35.1293 49.0491C34.4284 49.0491 33.7562 48.7707 33.2606 48.2751C32.7649 47.7794 32.4865 47.1072 32.4865 46.4063V46.2874C32.4763 45.85 32.3347 45.4258 32.0802 45.07C31.8257 44.7142 31.47 44.4431 31.0594 44.2921C30.6609 44.1162 30.2187 44.0637 29.7901 44.1415C29.3614 44.2192 28.9659 44.4235 28.6545 44.7282L28.5752 44.8074C28.3297 45.0532 28.0383 45.2481 27.7175 45.3811C27.3966 45.5141 27.0527 45.5825 26.7054 45.5825C26.3581 45.5825 26.0142 45.5141 25.6934 45.3811C25.3726 45.2481 25.0811 45.0532 24.8357 44.8074C24.5899 44.562 24.395 44.2705 24.262 43.9497C24.129 43.6289 24.0606 43.285 24.0606 42.9377C24.0606 42.5904 24.129 42.2465 24.262 41.9256C24.395 41.6048 24.5899 41.3134 24.8357 41.0679L24.9149 40.9886C25.2196 40.6772 25.4239 40.2817 25.5016 39.853C25.5794 39.4244 25.5269 38.9822 25.351 38.5837C25.1835 38.1929 24.9054 37.8595 24.5509 37.6248C24.1963 37.39 23.7809 37.264 23.3557 37.2623H23.1311C22.4302 37.2623 21.758 36.9839 21.2623 36.4883C20.7667 35.9926 20.4883 35.3204 20.4883 34.6195C20.4883 33.9186 20.7667 33.2464 21.2623 32.7508C21.758 32.2552 22.4302 31.9767 23.1311 31.9767H23.25C23.6874 31.9665 24.1115 31.8249 24.4674 31.5704C24.8232 31.3159 25.0943 30.9602 25.2453 30.5496C25.4212 30.1511 25.4737 29.709 25.3959 29.2803C25.3182 28.8517 25.1139 28.4561 24.8092 28.1447L24.7299 28.0654C24.4842 27.82 24.2893 27.5285 24.1563 27.2077C24.0233 26.8869 23.9549 26.543 23.9549 26.1957C23.9549 25.8484 24.0233 25.5045 24.1563 25.1836C24.2893 24.8628 24.4842 24.5713 24.7299 24.3259C24.9754 24.0802 25.2669 23.8852 25.5877 23.7522C25.9085 23.6193 26.2524 23.5508 26.5997 23.5508C26.947 23.5508 27.2909 23.6193 27.6117 23.7522C27.9326 23.8852 28.224 24.0802 28.4695 24.3259L28.5488 24.4052C28.8602 24.7098 29.2557 24.9142 29.6844 24.9919C30.113 25.0696 30.5551 25.0171 30.9537 24.8412H31.0594C31.4502 24.6737 31.7835 24.3956 32.0183 24.0411C32.2531 23.6866 32.3791 23.2711 32.3808 22.8459V22.6213C32.3808 21.9204 32.6592 21.2482 33.1548 20.7526C33.6505 20.257 34.3227 19.9785 35.0236 19.9785C35.7245 19.9785 36.3967 20.257 36.8923 20.7526C37.3879 21.2482 37.6664 21.9204 37.6664 22.6213V22.7402C37.6681 23.1654 37.794 23.5809 38.0288 23.9354C38.2636 24.2899 38.5969 24.568 38.9877 24.7355C39.3863 24.9114 39.8284 24.9639 40.2571 24.8862C40.6857 24.8084 41.0813 24.6041 41.3927 24.2995L41.472 24.2202C41.7174 23.9745 42.0089 23.7795 42.3297 23.6465C42.6505 23.5135 42.9944 23.4451 43.3417 23.4451C43.689 23.4451 44.0329 23.5135 44.3538 23.6465C44.6746 23.7795 44.9661 23.9745 45.2115 24.2202C45.4572 24.4656 45.6521 24.7571 45.7851 25.0779C45.9181 25.3987 45.9866 25.7426 45.9866 26.0899C45.9866 26.4372 45.9181 26.7811 45.7851 27.102C45.6521 27.4228 45.4572 27.7143 45.2115 27.9597L45.1322 28.039C44.8276 28.3504 44.6232 28.746 44.5455 29.1746C44.4678 29.6033 44.5203 30.0454 44.6962 30.4439V30.5496C44.8637 30.9405 45.1418 31.2738 45.4963 31.5086C45.8508 31.7433 46.2662 31.8693 46.6915 31.871H46.9161C47.617 31.871 48.2892 32.1495 48.7848 32.6451C49.2804 33.1407 49.5589 33.8129 49.5589 34.5138C49.5589 35.2147 49.2804 35.8869 48.7848 36.3825C48.2892 36.8782 47.617 37.1566 46.9161 37.1566H46.7972C46.372 37.1583 45.9565 37.2843 45.602 37.5191C45.2475 37.7538 44.9694 38.0872 44.8019 38.478V38.478Z" stroke="url(#paint1_linear_284_312)" stroke-width="2.72537" stroke-linecap="round" stroke-linejoin="round"/>
<defs>
<linearGradient id="paint0_linear_284_312" x1="31.0596" y1="34.5135" x2="38.9879" y2="34.5135" gradientUnits="userSpaceOnUse">
<stop stop-color="#AA0811"/>
<stop offset="1" stop-color="#E63147"/>
</linearGradient>
<linearGradient id="paint1_linear_284_312" x1="20.4883" y1="34.5138" x2="49.5589" y2="34.5138" gradientUnits="userSpaceOnUse">
<stop stop-color="#AA0811"/>
<stop offset="1" stop-color="#E63147"/>
</linearGradient>
</defs>
</svg>
