<svg  viewBox="0 0 558 692" fill="none" xmlns="http://www.w3.org/2000/svg">
<g id="cards-at">
<g id="Group 607">
<g id="card-back" class="card-back" >
<g id="Rectangle 1057" filter="url(#filter0_bi_294_572)">
<rect width="331.607" height="210.354" rx="11.4822" transform="matrix(0.850726 0.525609 -0.35917 0.933272 163.469 35)" fill="url(#paint0_linear_294_572)"/>
</g>
<rect id="Rectangle 1058" width="331.607" height="49.3018" transform="matrix(0.850726 0.525609 -0.35917 0.933272 158.025 49.145)" fill="#D6D6D6"/>
<rect id="Rectangle 1059" width="72.3093" height="47.6584" rx="23.8292" transform="matrix(0.850726 0.52561 -0.35917 0.933272 139.368 141.608)" fill="url(#paint1_linear_294_572)"/>
<text id="5032 9334 3764 9846" transform="matrix(0.850726 0.525609 -0.35917 0.933272 114.449 192.532)" fill="#FCFAFA" xml:space="preserve" style="white-space: pre" font-family="Rubik" font-size="16.5344" letter-spacing="0.03em"><tspan x="0" y="17.163">5032 9334 3764 9846</tspan></text>
<text id="Red" transform="matrix(0.850727 0.525608 -0.359171 0.933272 155.769 114.072)" fill="#FCFAFA" xml:space="preserve" style="white-space: pre" font-family="Sora" font-size="16.5344" font-weight="600" letter-spacing="0em"><tspan x="0" y="17.1217">Red&#10;</tspan></text>
<text id="02/17" transform="matrix(0.850726 0.525609 -0.35917 0.933272 121.127 227.962)" fill="#FEFBFF" xml:space="preserve" style="white-space: pre" font-family="Rubik" font-size="8.2672" letter-spacing="0em"><tspan x="0" y="8.83152">02/17</tspan></text>
<text id="02/20" transform="matrix(0.850725 0.525612 -0.359168 0.933273 160.981 252.586)" fill="#FEFBFF" xml:space="preserve" style="white-space: pre" font-family="Rubik" font-size="8.2672" letter-spacing="0em"><tspan x="0" y="8.83152">02/20</tspan></text>
<text id="123" transform="matrix(0.850726 0.525609 -0.35917 0.933272 205.916 280.347)" fill="#FEFBFF" xml:space="preserve" style="white-space: pre" font-family="Rubik" font-size="8.2672" letter-spacing="0em"><tspan x="0" y="8.83152">123</tspan></text>
<g id="Group 373">
<text id="cirrus." transform="matrix(0.850726 0.525608 -0.359171 0.933272 337.834 366.096)" fill="#FBF9FC" xml:space="preserve" style="white-space: pre" font-family="Sora" font-size="5.97076" font-weight="600" letter-spacing="0em"><tspan x="0" y="6.03006">cirrus.</tspan></text>
<ellipse id="Ellipse 7" rx="14.238" ry="14.238" transform="matrix(0.850727 0.525607 -0.359172 0.933271 343.894 352.862)" fill="#0167B2"/>
<ellipse id="Ellipse 8" rx="14.238" ry="14.238" transform="matrix(0.850727 0.525607 -0.359172 0.933271 358.742 362.035)" fill="#02A1E2"/>
<path id="Intersect" fill-rule="evenodd" clip-rule="evenodd" d="M347.243 367.876C351.051 367.225 354.371 364.558 356.021 360.271C357.67 355.985 357.285 351.029 355.345 346.826C351.537 347.477 348.217 350.145 346.568 354.431C344.918 358.718 345.303 363.674 347.243 367.876Z" fill="#207CBD"/>
</g>
<text id="valid thru" transform="matrix(0.850726 0.525609 -0.35917 0.933272 148.765 246.629)" fill="#FEFBFF" xml:space="preserve" style="white-space: pre" font-family="Source Sans Pro" font-size="2.75573" letter-spacing="0.1em"><tspan x="0" y="2.97966">VALID&#10;</tspan><tspan x="0" y="6.97966">THRU</tspan></text>
<text id="security code" transform="matrix(0.850726 0.525609 -0.35917 0.933272 188.619 271.253)" fill="#FEFBFF" xml:space="preserve" style="white-space: pre" font-family="Source Sans Pro" font-size="2.75573" letter-spacing="0.1em"><tspan x="0" y="2.97966">SECURITY&#10;</tspan><tspan x="0" y="6.97966">CODE</tspan></text>
<path id="Vector" d="M258.271 193.317C258.183 193.545 258.017 193.712 257.808 193.782C257.6 193.852 257.366 193.82 257.159 193.692L252.47 190.795L250.248 191.544L252.887 184.686C252.975 184.458 253.141 184.291 253.349 184.221C253.558 184.151 253.791 184.183 253.998 184.311L259.469 187.691C259.676 187.819 259.84 188.032 259.925 188.283C260.009 188.535 260.008 188.804 259.92 189.031L258.271 193.317Z" stroke="#FEFBFF" stroke-width="0.459289" stroke-linecap="round" stroke-linejoin="round"/>
<g id="Group 374">
<path id="Vector_2" d="M246.835 211.72C248.993 213.053 251.481 212.214 252.392 209.847C253.303 207.48 252.293 204.48 250.135 203.147C247.977 201.814 245.489 202.652 244.578 205.019C243.667 207.386 244.677 210.386 246.835 211.72Z" stroke="#FEFBFF" stroke-width="0.459289" stroke-linecap="round" stroke-linejoin="round"/>
<path id="Vector_3" d="M247.843 205.445C248.045 205.215 248.319 205.086 248.617 205.079C248.915 205.073 249.217 205.19 249.47 205.41C249.723 205.63 249.911 205.938 250 206.281C250.089 206.623 250.073 206.977 249.956 207.281C249.626 208.138 248.289 207.843 248.289 207.843" stroke="#FEFBFF" stroke-width="0.459289" stroke-linecap="round" stroke-linejoin="round"/>
<path id="Vector_4" d="M247.66 209.576L247.665 209.579" stroke="#FEFBFF" stroke-width="0.459289" stroke-linecap="round" stroke-linejoin="round"/>
</g>
<text id="Est&#195;&#161; com d&#195;&#186;vidas? Nosso app pode te ajudar." transform="matrix(0.850726 0.52561 -0.35917 0.933272 266.319 188.74)" fill="#FCFAFA" xml:space="preserve" style="white-space: pre" font-family="Source Sans Pro" font-size="4.1336" letter-spacing="0em"><tspan x="0" y="4.4695">Est&#xe1; com d&#xfa;vidas?&#10;</tspan><tspan x="0" y="10.4695">Nosso app pode te ajudar.</tspan></text>
<text id="Fale com a gente: 0800 591 2117" transform="matrix(0.850726 0.525609 -0.35917 0.933272 259.391 206.743)" fill="#FCFAFA" xml:space="preserve" style="white-space: pre" font-family="Source Sans Pro" font-size="4.1336" letter-spacing="0em"><tspan x="0" y="4.4695">Fale com a gente:&#10;</tspan><tspan x="0" y="10.4695">0800 591 2117</tspan></text>
<ellipse id="Ellipse 460" rx="14.4676" ry="14.4676" transform="matrix(0.850727 0.525606 -0.359173 0.933271 166.562 184.673)" fill="#D9D9D9"/>
<path id="Subtract" fill-rule="evenodd" clip-rule="evenodd" d="M159.64 154.133C148.444 147.216 135.536 151.565 130.809 163.847C126.082 176.13 131.327 191.694 142.523 198.611L148.504 202.307C167.677 193.023 172.436 183.913 165.547 157.783L180.672 167.128C180.652 167.115 180.632 167.102 180.611 167.09L159.64 154.133Z" fill="url(#paint2_linear_294_572)"/>
</g>
<g id="card-front" class="card-front">
<g id="Rectangle 1080">
<g filter="url(#filter1_i_294_572)">
<rect width="358.78" height="227.592" rx="12.4231" transform="matrix(-0.780897 0.623319 -0.527513 -0.850531 537.749 311.622)" fill="url(#paint3_linear_294_572)"/>
</g>
<rect x="-0.162545" y="-0.0282267" width="358.531" height="227.343" rx="12.2989" transform="matrix(-0.780897 0.623319 -0.527513 -0.850531 537.444 311.671)" stroke="url(#paint4_linear_294_572)" stroke-width="0.248462"/>
</g>
<text id="Lukas bruno" transform="matrix(0.777147 -0.629318 0.533026 0.846099 297.016 430.658)" fill="#FEFBFF" stroke="url(#paint5_linear_294_572)" stroke-width="0.355228" xml:space="preserve" style="white-space: pre" font-family="Montserrat" font-size="11.9262" font-weight="600" letter-spacing="0.1em"><tspan x="0" y="12.7755">LUKAS BRUNO </tspan></text>
<rect id="Rectangle 1081" x="0.604669" y="0.105003" width="42.2088" height="29.8851" rx="2.61879" transform="matrix(0.780897 -0.623319 0.527513 0.850531 196.892 367.414)" fill="url(#paint6_linear_294_572)" stroke="url(#paint7_linear_294_572)" stroke-width="0.92428"/>
<rect id="Rectangle 1082" x="0.604669" y="0.105003" width="42.2088" height="29.8851" rx="2.61879" transform="matrix(0.780897 -0.623319 0.527513 0.850531 196.892 367.414)" fill="url(#paint8_linear_294_572)" stroke="url(#paint9_linear_294_572)" stroke-width="0.92428"/>
<path id="Vector 239" d="M202.659 375.285L212.523 367.411" stroke="url(#paint10_linear_294_572)" stroke-width="0.861979" stroke-linecap="round"/>
<path id="Vector 240" d="M230.794 364.972L240.418 357.29" stroke="url(#paint11_linear_294_572)" stroke-width="0.861979" stroke-linecap="round"/>
<path id="Vector 241" d="M225.774 357.226L235.542 349.429" stroke="url(#paint12_linear_294_572)" stroke-width="0.861979" stroke-linecap="round"/>
<circle id="Ellipse 187" r="0.770233" transform="matrix(0.780853 -0.623391 0.527453 0.850579 216.257 357.771)" fill="url(#paint13_linear_294_572)" stroke="url(#paint14_linear_294_572)" stroke-width="0.308093"/>
<g id="Vector 242">
<path d="M263.577 342.301C262.302 336.045 260.787 333.158 255.725 329.837C255.188 329.485 255.123 328.881 255.307 328.601C255.492 328.32 255.917 328.107 256.474 328.443C262.125 331.86 263.854 334.942 265.133 341.902C265.222 342.617 264.815 343.045 264.422 343.068C263.961 343.095 263.684 342.829 263.577 342.301Z" fill="url(#paint15_linear_294_572)"/>
<path d="M253.457 332.264C253.3 332.588 253.458 333.207 254.076 333.534C257.986 335.878 259.234 338.019 260.07 343.049C260.142 343.566 260.512 343.903 260.885 343.767C261.326 343.607 261.465 343.075 261.394 342.567C260.637 337.115 259.23 334.769 254.743 332.01C254.329 331.755 253.693 331.778 253.457 332.264Z" fill="url(#paint16_linear_294_572)"/>
<path d="M252.13 335.897C251.853 336.318 252.062 336.803 252.548 337.134C255.072 338.856 256.104 340.133 256.571 343.52C256.63 344.129 256.849 344.648 257.348 344.466C257.846 344.285 257.992 343.816 257.939 343.397C257.43 339.197 256.034 337.742 253.013 335.576C252.755 335.391 252.407 335.476 252.13 335.897Z" fill="url(#paint17_linear_294_572)"/>
<path d="M250.273 338.976C250.078 339.527 250.276 339.964 250.974 340.376C252.446 341.259 252.918 342.042 253.191 343.895C253.298 344.724 253.653 345.489 254.214 345.232C254.775 344.975 254.871 344.617 254.679 343.674C254.085 341.266 253.463 340.135 251.559 338.722C251.085 338.339 250.588 338.327 250.273 338.976Z" fill="url(#paint18_linear_294_572)"/>
<path d="M263.577 342.301C262.302 336.045 260.787 333.158 255.725 329.837C255.188 329.485 255.123 328.881 255.307 328.601C255.492 328.32 255.917 328.107 256.474 328.443C262.125 331.86 263.854 334.942 265.133 341.902C265.222 342.617 264.815 343.045 264.422 343.068C263.961 343.095 263.684 342.829 263.577 342.301Z" stroke="url(#paint19_linear_294_572)" stroke-width="0.308093"/>
<path d="M253.457 332.264C253.3 332.588 253.458 333.207 254.076 333.534C257.986 335.878 259.234 338.019 260.07 343.049C260.142 343.566 260.512 343.903 260.885 343.767C261.326 343.607 261.465 343.075 261.394 342.567C260.637 337.115 259.23 334.769 254.743 332.01C254.329 331.755 253.693 331.778 253.457 332.264Z" stroke="url(#paint20_linear_294_572)" stroke-width="0.308093"/>
<path d="M252.13 335.897C251.853 336.318 252.062 336.803 252.548 337.134C255.072 338.856 256.104 340.133 256.571 343.52C256.63 344.129 256.849 344.648 257.348 344.466C257.846 344.285 257.992 343.816 257.939 343.397C257.43 339.197 256.034 337.742 253.013 335.576C252.755 335.391 252.407 335.476 252.13 335.897Z" stroke="url(#paint21_linear_294_572)" stroke-width="0.308093"/>
<path d="M250.273 338.976C250.078 339.527 250.276 339.964 250.974 340.376C252.446 341.259 252.918 342.042 253.191 343.895C253.298 344.724 253.653 345.489 254.214 345.232C254.775 344.975 254.871 344.617 254.679 343.674C254.085 341.266 253.463 340.135 251.559 338.722C251.085 338.339 250.588 338.327 250.273 338.976Z" stroke="url(#paint22_linear_294_572)" stroke-width="0.308093"/>
</g>
<path id="Vector 243" d="M222.525 355.119C219.478 352.431 216.709 352.121 213.942 354.33C210.574 357.018 211.355 360.571 212.442 367.28C215.839 369.584 216.974 371.38 217.562 375.534C223.897 380.551 226.781 381.351 229.502 379.128C233.111 376.247 232.072 372.096 230.674 365.068C227.728 362.829 226.566 361.224 225.631 357.38" stroke="url(#paint23_linear_294_572)" stroke-width="0.861979" stroke-linecap="round"/>
<g id="Vector 244">
<mask id="path-34-inside-1_294_572" fill="white">
<path d="M270.478 470.998C270.215 464.591 270.219 460.899 270.496 454.135C276.256 456.108 279.116 457.314 284.519 459.627C288.715 461.424 285.689 466.743 284.501 467.705C283.469 468.541 285.064 471.196 286.148 470.318L292.11 465.49C293.607 464.278 294.049 461.161 293.471 460.102C292.925 459.101 292.354 458.205 291.794 457.81L273.043 446.98C267.218 443.549 262.631 446.415 263.725 454.525L266.558 478.203C266.822 479.178 267.311 479.783 267.924 480.619C269.058 482.163 271.997 481.777 272.829 481.103L279.05 476.066C280.185 475.146 278.668 472.428 277.635 473.265C273.964 476.237 270.775 473.388 270.478 470.998Z"/>
</mask>
<path d="M270.478 470.998C270.215 464.591 270.219 460.899 270.496 454.135C276.256 456.108 279.116 457.314 284.519 459.627C288.715 461.424 285.689 466.743 284.501 467.705C283.469 468.541 285.064 471.196 286.148 470.318L292.11 465.49C293.607 464.278 294.049 461.161 293.471 460.102C292.925 459.101 292.354 458.205 291.794 457.81L273.043 446.98C267.218 443.549 262.631 446.415 263.725 454.525L266.558 478.203C266.822 479.178 267.311 479.783 267.924 480.619C269.058 482.163 271.997 481.777 272.829 481.103L279.05 476.066C280.185 475.146 278.668 472.428 277.635 473.265C273.964 476.237 270.775 473.388 270.478 470.998Z" fill="url(#paint24_linear_294_572)" stroke="url(#paint25_linear_294_572)" stroke-width="0.868321" mask="url(#path-34-inside-1_294_572)"/>
</g>
<g id="Group 383">
<circle id="Ellipse 177" r="18.4044" transform="matrix(0.777147 -0.629318 0.533026 0.846098 386.299 181.419)" fill="#E71924" stroke="url(#paint26_linear_294_572)" stroke-width="0.289833"/>
<circle id="Ellipse 178" r="18.4044" transform="matrix(0.777147 -0.629318 0.533026 0.846098 403.868 167.192)" fill="#F99F19" stroke="url(#paint27_linear_294_572)" stroke-width="0.289833"/>
<g id="Intersect_2">
<mask id="path-37-inside-2_294_572" fill="white">
<path fill-rule="evenodd" clip-rule="evenodd" d="M402.884 186.688C397.652 186.592 392.606 183.872 389.413 178.803C386.22 173.735 385.587 167.441 387.204 161.799C392.436 161.895 397.482 164.615 400.675 169.684C403.868 174.752 404.501 181.046 402.884 186.688Z"/>
</mask>
<path fill-rule="evenodd" clip-rule="evenodd" d="M402.884 186.688C397.652 186.592 392.606 183.872 389.413 178.803C386.22 173.735 385.587 167.441 387.204 161.799C392.436 161.895 397.482 164.615 400.675 169.684C403.868 174.752 404.501 181.046 402.884 186.688Z" fill="#F26520"/>
<path d="M402.884 186.688L402.869 186.994L403.079 186.998L403.144 186.772L402.884 186.688ZM389.413 178.803L389.188 178.986L389.413 178.803ZM387.204 161.799L387.219 161.493L387.009 161.489L386.944 161.716L387.204 161.799ZM402.899 186.383C397.748 186.288 392.781 183.61 389.638 178.621L389.188 178.986C392.431 184.134 397.556 186.896 402.869 186.994L402.899 186.383ZM389.638 178.621C386.495 173.632 385.872 167.437 387.464 161.882L386.944 161.716C385.302 167.445 385.945 173.838 389.188 178.986L389.638 178.621ZM387.189 162.104C392.34 162.199 397.307 164.877 400.45 169.866L400.901 169.501C397.658 164.354 392.532 161.591 387.219 161.493L387.189 162.104ZM400.45 169.866C403.593 174.855 404.216 181.05 402.625 186.605L403.144 186.772C404.786 181.042 404.144 174.649 400.901 169.501L400.45 169.866Z" fill="url(#paint28_linear_294_572)" mask="url(#path-37-inside-2_294_572)"/>
</g>
</g>
</g>
<g id="fignat-shadow" class="card-shadow" filter="url(#filter2_f_294_572)">
<ellipse cx="261.341" cy="613.191" rx="214.341" ry="20.2527" fill="#464646" fill-opacity="0.4"/>
</g>
</g>
</g>
<defs>
<filter id="filter0_bi_294_572" x="59.0629" y="7.30234" width="415.365" height="426.009" filterUnits="userSpaceOnUse" color-interpolation-filters="sRGB">
<feFlood flood-opacity="0" result="BackgroundImageFix"/>
<feGaussianBlur in="BackgroundImage" stdDeviation="16.0751"/>
<feComposite in2="SourceAlpha" operator="in" result="effect1_backgroundBlur_294_572"/>
<feBlend mode="normal" in="SourceGraphic" in2="effect1_backgroundBlur_294_572" result="shape"/>
<feColorMatrix in="SourceAlpha" type="matrix" values="0 0 0 0 0 0 0 0 0 0 0 0 0 0 0 0 0 0 127 0" result="hardAlpha"/>
<feOffset dx="1.37787" dy="1.37787"/>
<feGaussianBlur stdDeviation="1.37787"/>
<feComposite in2="hardAlpha" operator="arithmetic" k2="-1" k3="1"/>
<feColorMatrix type="matrix" values="0 0 0 0 1 0 0 0 0 1 0 0 0 0 1 0 0 0 0.25 0"/>
<feBlend mode="normal" in2="shape" result="effect2_innerShadow_294_572"/>
</filter>
<filter id="filter1_i_294_572" x="142.068" y="123.258" width="392.624" height="413.745" filterUnits="userSpaceOnUse" color-interpolation-filters="sRGB">
<feFlood flood-opacity="0" result="BackgroundImageFix"/>
<feBlend mode="normal" in="SourceGraphic" in2="BackgroundImageFix" result="shape"/>
<feColorMatrix in="SourceAlpha" type="matrix" values="0 0 0 0 0 0 0 0 0 0 0 0 0 0 0 0 0 0 127 0" result="hardAlpha"/>
<feOffset dx="1.49077" dy="6.95695"/>
<feGaussianBlur stdDeviation="10.4354"/>
<feComposite in2="hardAlpha" operator="arithmetic" k2="-1" k3="1"/>
<feColorMatrix type="matrix" values="0 0 0 0 0.408333 0 0 0 0 0.408333 0 0 0 0 0.408333 0 0 0 0.25 0"/>
<feBlend mode="normal" in2="shape" result="effect1_innerShadow_294_572"/>
</filter>
<filter id="filter2_f_294_572" x="1.76897" y="547.707" width="519.144" height="130.967" filterUnits="userSpaceOnUse" color-interpolation-filters="sRGB">
<feFlood flood-opacity="0" result="BackgroundImageFix"/>
<feBlend mode="normal" in="SourceGraphic" in2="BackgroundImageFix" result="shape"/>
<feGaussianBlur stdDeviation="22.6155" result="effect1_foregroundBlur_294_572"/>
</filter>
<linearGradient id="paint0_linear_294_572" x1="6.17666e-07" y1="105.177" x2="331.607" y2="105.177" gradientUnits="userSpaceOnUse">
<stop stop-color="#AA0811"/>
<stop offset="1" stop-color="#E63147"/>
</linearGradient>
<linearGradient id="paint1_linear_294_572" x1="38.121" y1="47.7661" x2="58.1001" y2="2.75573" gradientUnits="userSpaceOnUse">
<stop stop-color="#F6F3F7"/>
<stop offset="1" stop-color="#D6D6D6"/>
</linearGradient>
<linearGradient id="paint2_linear_294_572" x1="170.526" y1="163.512" x2="135.039" y2="187.881" gradientUnits="userSpaceOnUse">
<stop stop-color="#F5F5F5"/>
<stop offset="1" stop-color="#D6D6D6"/>
</linearGradient>
<linearGradient id="paint3_linear_294_572" x1="6.68279e-07" y1="113.796" x2="358.78" y2="113.796" gradientUnits="userSpaceOnUse">
<stop stop-color="#AA0811"/>
<stop offset="1" stop-color="#E63147"/>
</linearGradient>
<linearGradient id="paint4_linear_294_572" x1="6.68279e-07" y1="113.796" x2="358.78" y2="113.796" gradientUnits="userSpaceOnUse">
<stop stop-color="#AA0811"/>
<stop offset="1" stop-color="#E63147"/>
</linearGradient>
<linearGradient id="paint5_linear_294_572" x1="1.95578e-07" y1="8.5" x2="105" y2="8.5" gradientUnits="userSpaceOnUse">
<stop stop-color="#AA0811"/>
<stop offset="1" stop-color="#E63147"/>
</linearGradient>
<linearGradient id="paint6_linear_294_572" x1="22.7395" y1="30.8789" x2="36.346" y2="2.59389" gradientUnits="userSpaceOnUse">
<stop stop-color="#F6F3F7"/>
<stop offset="1" stop-color="#D6D6D6"/>
</linearGradient>
<linearGradient id="paint7_linear_294_572" x1="8.03416e-08" y1="15.4047" x2="43.1331" y2="15.4047" gradientUnits="userSpaceOnUse">
<stop stop-color="#AA0811"/>
<stop offset="1" stop-color="#E63147"/>
</linearGradient>
<linearGradient id="paint8_linear_294_572" x1="22.7395" y1="30.8789" x2="36.346" y2="2.59389" gradientUnits="userSpaceOnUse">
<stop stop-color="#F6F3F7"/>
<stop offset="1" stop-color="#D6D6D6"/>
</linearGradient>
<linearGradient id="paint9_linear_294_572" x1="8.03416e-08" y1="15.4047" x2="43.1331" y2="15.4047" gradientUnits="userSpaceOnUse">
<stop stop-color="#AA0811"/>
<stop offset="1" stop-color="#E63147"/>
</linearGradient>
<linearGradient id="paint10_linear_294_572" x1="202.923" y1="375.71" x2="213.574" y2="369.104" gradientUnits="userSpaceOnUse">
<stop stop-color="#AA0811"/>
<stop offset="1" stop-color="#E63147"/>
</linearGradient>
<linearGradient id="paint11_linear_294_572" x1="231.058" y1="365.397" x2="241.449" y2="358.953" gradientUnits="userSpaceOnUse">
<stop stop-color="#AA0811"/>
<stop offset="1" stop-color="#E63147"/>
</linearGradient>
<linearGradient id="paint12_linear_294_572" x1="226.038" y1="357.651" x2="236.585" y2="351.11" gradientUnits="userSpaceOnUse">
<stop stop-color="#AA0811"/>
<stop offset="1" stop-color="#E63147"/>
</linearGradient>
<linearGradient id="paint13_linear_294_572" x1="0.974549" y1="1.85274" x2="1.94281" y2="0.415007" gradientUnits="userSpaceOnUse">
<stop stop-color="#0D0D0D"/>
<stop offset="1" stop-color="#D6D6D6"/>
</linearGradient>
<linearGradient id="paint14_linear_294_572" x1="3.44321e-09" y1="0.92428" x2="1.84856" y2="0.92428" gradientUnits="userSpaceOnUse">
<stop stop-color="#AA0811"/>
<stop offset="1" stop-color="#E63147"/>
</linearGradient>
<linearGradient id="paint15_linear_294_572" x1="262.06" y1="345.184" x2="263.267" y2="329.578" gradientUnits="userSpaceOnUse">
<stop stop-color="#F6F3F7"/>
<stop offset="1" stop-color="#D6D6D6"/>
</linearGradient>
<linearGradient id="paint16_linear_294_572" x1="262.06" y1="345.184" x2="263.267" y2="329.578" gradientUnits="userSpaceOnUse">
<stop stop-color="#F6F3F7"/>
<stop offset="1" stop-color="#D6D6D6"/>
</linearGradient>
<linearGradient id="paint17_linear_294_572" x1="262.06" y1="345.184" x2="263.267" y2="329.578" gradientUnits="userSpaceOnUse">
<stop stop-color="#F6F3F7"/>
<stop offset="1" stop-color="#D6D6D6"/>
</linearGradient>
<linearGradient id="paint18_linear_294_572" x1="262.06" y1="345.184" x2="263.267" y2="329.578" gradientUnits="userSpaceOnUse">
<stop stop-color="#F6F3F7"/>
<stop offset="1" stop-color="#D6D6D6"/>
</linearGradient>
<linearGradient id="paint19_linear_294_572" x1="251.883" y1="342.353" x2="263.28" y2="335.172" gradientUnits="userSpaceOnUse">
<stop stop-color="#AA0811"/>
<stop offset="1" stop-color="#E63147"/>
</linearGradient>
<linearGradient id="paint20_linear_294_572" x1="251.883" y1="342.353" x2="263.28" y2="335.172" gradientUnits="userSpaceOnUse">
<stop stop-color="#AA0811"/>
<stop offset="1" stop-color="#E63147"/>
</linearGradient>
<linearGradient id="paint21_linear_294_572" x1="251.883" y1="342.353" x2="263.28" y2="335.172" gradientUnits="userSpaceOnUse">
<stop stop-color="#AA0811"/>
<stop offset="1" stop-color="#E63147"/>
</linearGradient>
<linearGradient id="paint22_linear_294_572" x1="251.883" y1="342.353" x2="263.28" y2="335.172" gradientUnits="userSpaceOnUse">
<stop stop-color="#AA0811"/>
<stop offset="1" stop-color="#E63147"/>
</linearGradient>
<linearGradient id="paint23_linear_294_572" x1="215.287" y1="371.866" x2="229.444" y2="363.085" gradientUnits="userSpaceOnUse">
<stop stop-color="#AA0811"/>
<stop offset="1" stop-color="#E63147"/>
</linearGradient>
<linearGradient id="paint24_linear_294_572" x1="283.241" y1="472.763" x2="280.947" y2="441.31" gradientUnits="userSpaceOnUse">
<stop stop-color="#F6F3F7"/>
<stop offset="1" stop-color="#D6D6D6"/>
</linearGradient>
<linearGradient id="paint25_linear_294_572" x1="261.303" y1="470.246" x2="288.94" y2="452.835" gradientUnits="userSpaceOnUse">
<stop stop-color="#AA0811"/>
<stop offset="1" stop-color="#E63147"/>
</linearGradient>
<linearGradient id="paint26_linear_294_572" x1="6.91015e-08" y1="18.5493" x2="37.0986" y2="18.5493" gradientUnits="userSpaceOnUse">
<stop stop-color="#AA0811"/>
<stop offset="1" stop-color="#E63147"/>
</linearGradient>
<linearGradient id="paint27_linear_294_572" x1="6.91015e-08" y1="18.5493" x2="37.0986" y2="18.5493" gradientUnits="userSpaceOnUse">
<stop stop-color="#AA0811"/>
<stop offset="1" stop-color="#E63147"/>
</linearGradient>
<linearGradient id="paint28_linear_294_572" x1="389.413" y1="178.804" x2="401.588" y2="171.133" gradientUnits="userSpaceOnUse">
<stop stop-color="#AA0811"/>
<stop offset="1" stop-color="#E63147"/>
</linearGradient>
</defs>
</svg>
