<svg width="726" height="464" viewBox="0 0 726 464" fill="none" xmlns="http://www.w3.org/2000/svg">
<g id="Group 436">
<g id="Rectangle 1060" filter="url(#filter0_i_200_343)">
<rect x="721.982" y="463.096" width="722" height="458" rx="25" transform="rotate(-179.595 721.982 463.096)" fill="url(#paint0_linear_200_343)"/>
</g>
<text id="Lucas bruno" fill="#FEFBFF" xml:space="preserve" style="white-space: pre" font-family="Sora" font-size="24" font-weight="600" letter-spacing="0.1em"><tspan x="180.611" y="368.708">LUCAS BRUNO</tspan></text>
<rect id="Rectangle 1061" x="78.4625" y="116.465" width="84.94" height="60.14" rx="5.27" transform="rotate(0.405311 78.4625 116.465)" fill="url(#paint1_linear_200_343)" stroke="#211F21" stroke-width="1.86"/>
<rect id="Rectangle 1062" x="78.4625" y="116.465" width="84.94" height="60.14" rx="5.27" transform="rotate(0.405311 78.4625 116.465)" fill="url(#paint2_linear_200_343)" stroke="#211F21" stroke-width="1.86"/>
<path id="Vector 233" d="M78.6343 135.997L104.054 136.177" stroke="#211F21" stroke-width="1.73463" stroke-linecap="round"/>
<path id="Vector 234" d="M138.017 155.637L162.816 155.813" stroke="#211F21" stroke-width="1.73463" stroke-linecap="round"/>
<path id="Vector 235" d="M137.776 137.035L162.948 137.213" stroke="#211F21" stroke-width="1.73463" stroke-linecap="round"/>
<circle id="Ellipse 185" cx="120.868" cy="125.756" r="1.86" transform="rotate(0.405311 120.868 125.756)" fill="url(#paint3_linear_200_343)"/>
<g id="Vector 236">
<path d="M218.719 161.741C223.291 150.263 223.812 143.784 218.719 132.098C218.178 130.858 218.719 129.824 219.339 129.618C219.959 129.411 220.918 129.618 221.509 130.858C227.509 143.447 227.143 150.506 221.819 163.098C221.199 164.338 220.038 164.494 219.339 164.028C218.52 163.482 218.332 162.711 218.719 161.741Z" fill="url(#paint4_linear_200_343)"/>
<path d="M212.209 133.028C211.589 133.338 211.192 134.513 211.899 135.818C216.07 144.496 215.898 149.459 211.899 158.448C211.462 159.354 211.732 160.356 212.519 160.618C213.449 160.928 214.261 160.268 214.689 159.378C219.28 149.825 219.401 144.337 214.689 134.268C214.253 133.338 213.139 132.563 212.209 133.028Z" fill="url(#paint5_linear_200_343)"/>
<path d="M206.009 137.058C205.079 137.368 204.914 138.397 205.389 139.538C207.857 145.47 208.246 148.796 205.389 154.728C204.831 155.761 204.648 156.858 205.699 157.208C206.749 157.558 207.506 157.005 207.869 156.278C211.531 149.014 210.71 144.941 207.869 137.678C207.626 137.058 206.939 136.748 206.009 137.058Z" fill="url(#paint6_linear_200_343)"/>
<path d="M199.499 139.538C198.569 140.158 198.436 141.098 199.189 142.638C200.758 145.905 200.722 147.74 199.189 151.008C198.476 152.449 198.259 154.108 199.499 154.418C200.739 154.728 201.289 154.287 201.979 152.558C203.562 148.006 203.716 145.433 201.979 140.778C201.578 139.57 200.739 138.918 199.499 139.538Z" fill="url(#paint7_linear_200_343)"/>
</g>
<path id="Vector 237" d="M134.481 129.572C132.16 121.453 127.747 117.434 120.617 117.383C111.937 117.322 109.437 123.914 104.056 135.867C107.392 143.828 107.397 148.104 103.918 155.396C109.361 171.377 113.443 176.316 120.51 176.284C129.81 176.35 132.513 168.487 137.707 155.635C135.075 148.352 134.816 144.341 137.364 137.095" stroke="#211F21" stroke-width="1.73463" stroke-linecap="round"/>
<path id="Vector 238" d="M91.5306 373.235C98.0004 362.809 101.996 356.999 109.777 346.7C117.523 357.153 121.124 362.702 127.89 373.235C133.144 381.415 122.209 385.934 119.134 385.934C116.461 385.934 116.327 392.15 119.134 392.15H134.574C138.45 392.15 142.574 387.805 142.728 385.399C142.873 383.127 142.862 380.988 142.327 379.651L121.875 338.68C115.592 325.847 104.631 324.51 97.7464 338.68L77.0269 379.584C76.4253 381.456 76.6104 383.032 76.7595 385.132C77.0349 389.008 82.4925 392.15 84.6463 392.15H100.754C103.695 392.15 104.029 385.934 101.356 385.934C91.8491 385.934 89.4586 377.379 91.5306 373.235Z" fill="url(#paint8_linear_200_343)"/>
<g id="Group 375">
<circle id="Ellipse 177" cx="602.939" cy="64.876" r="37.3282" fill="#E71924"/>
<circle id="Ellipse 178" cx="648.433" cy="64.876" r="37.3282" fill="#F99F19"/>
<path id="Intersect" fill-rule="evenodd" clip-rule="evenodd" d="M625.686 94.3286C634.553 87.504 640.267 76.784 640.267 64.7294C640.267 52.6748 634.553 41.9548 625.686 35.1301C616.819 41.9548 611.104 52.6748 611.104 64.7294C611.104 76.784 616.819 87.504 625.686 94.3286Z" fill="#F26520"/>
</g>
</g>
<defs>
<filter id="filter0_i_200_343" x="0.25" y="0.249756" width="727.722" height="476.596" filterUnits="userSpaceOnUse" color-interpolation-filters="sRGB">
<feFlood flood-opacity="0" result="BackgroundImageFix"/>
<feBlend mode="normal" in="SourceGraphic" in2="BackgroundImageFix" result="shape"/>
<feColorMatrix in="SourceAlpha" type="matrix" values="0 0 0 0 0 0 0 0 0 0 0 0 0 0 0 0 0 0 127 0" result="hardAlpha"/>
<feOffset dx="3" dy="14"/>
<feGaussianBlur stdDeviation="21"/>
<feComposite in2="hardAlpha" operator="arithmetic" k2="-1" k3="1"/>
<feColorMatrix type="matrix" values="0 0 0 0 0.408333 0 0 0 0 0.408333 0 0 0 0 0.408333 0 0 0 0.25 0"/>
<feBlend mode="normal" in2="shape" result="effect1_innerShadow_200_343"/>
</filter>
<linearGradient id="paint0_linear_200_343" x1="1433.02" y1="468.162" x2="732.119" y2="909.131" gradientUnits="userSpaceOnUse">
<stop stop-color="#AA0811"/>
<stop offset="1" stop-color="#E63147"/>
</linearGradient>
<linearGradient id="paint1_linear_200_343" x1="123.299" y1="177.668" x2="150.681" y2="120.748" gradientUnits="userSpaceOnUse">
<stop stop-color="#F6F3F7"/>
<stop offset="1" stop-color="#D6D6D6"/>
</linearGradient>
<linearGradient id="paint2_linear_200_343" x1="123.299" y1="177.668" x2="150.681" y2="120.748" gradientUnits="userSpaceOnUse">
<stop stop-color="#F6F3F7"/>
<stop offset="1" stop-color="#D6D6D6"/>
</linearGradient>
<linearGradient id="paint3_linear_200_343" x1="120.969" y1="127.624" x2="122.918" y2="124.731" gradientUnits="userSpaceOnUse">
<stop stop-color="#0D0D0D"/>
<stop offset="1" stop-color="#D6D6D6"/>
</linearGradient>
<linearGradient id="paint4_linear_200_343" x1="213.003" y1="164.348" x2="232.397" y2="141.707" gradientUnits="userSpaceOnUse">
<stop stop-color="#F6F3F7"/>
<stop offset="1" stop-color="#D6D6D6"/>
</linearGradient>
<linearGradient id="paint5_linear_200_343" x1="213.003" y1="164.348" x2="232.397" y2="141.707" gradientUnits="userSpaceOnUse">
<stop stop-color="#F6F3F7"/>
<stop offset="1" stop-color="#D6D6D6"/>
</linearGradient>
<linearGradient id="paint6_linear_200_343" x1="213.003" y1="164.348" x2="232.397" y2="141.707" gradientUnits="userSpaceOnUse">
<stop stop-color="#F6F3F7"/>
<stop offset="1" stop-color="#D6D6D6"/>
</linearGradient>
<linearGradient id="paint7_linear_200_343" x1="213.003" y1="164.348" x2="232.397" y2="141.707" gradientUnits="userSpaceOnUse">
<stop stop-color="#F6F3F7"/>
<stop offset="1" stop-color="#D6D6D6"/>
</linearGradient>
<linearGradient id="paint8_linear_200_343" x1="111.509" y1="392.293" x2="144.304" y2="341.611" gradientUnits="userSpaceOnUse">
<stop stop-color="#F6F3F7"/>
<stop offset="1" stop-color="#D6D6D6"/>
</linearGradient>
</defs>
</svg>
