<svg width="651" height="999" viewBox="0 0 651 999" fill="none" xmlns="http://www.w3.org/2000/svg">
<g id="fig-at-2">
<g clip-path="url(#clip0_287_356)">
<g id="Group 603">
<g id="Group 340">
<g id="Rectangle 4.3" filter="url(#filter0_d_287_356)">
<path d="M476.249 140.021C476.249 139.61 476.583 139.276 476.995 139.276V139.276C478.23 139.276 479.232 140.277 479.232 141.513V203.42C479.232 204.655 478.23 205.657 476.995 205.657V205.657C476.583 205.657 476.249 205.323 476.249 204.911V140.021Z" fill="white"/>
</g>
<path id="Rectangle 1005" d="M178.275 93.8528C178.275 92.3476 179.496 91.1274 181.001 91.1274H181.096C181.598 91.1274 182.005 91.5342 182.005 92.0359V113.341C182.005 113.842 181.598 114.249 181.096 114.249H181.001C179.496 114.249 178.275 113.029 178.275 111.524V93.8528Z" fill="white"/>
<path id="Rectangle 4.1" d="M178.275 133.337C178.275 132.101 179.277 131.1 180.513 131.1H181.259C181.671 131.1 182.005 131.434 182.005 131.845V170.63C182.005 171.042 181.671 171.376 181.259 171.376H180.513C179.277 171.376 178.275 170.374 178.275 169.138V133.337Z" fill="white"/>
<path id="Rectangle 4.1_2" d="M178.275 187.845C178.275 186.609 179.277 185.607 180.513 185.607H181.259C181.671 185.607 182.005 185.941 182.005 186.353V225.138C182.005 225.55 181.671 225.884 181.259 225.884H180.513C179.277 225.884 178.275 224.882 178.275 223.646V187.845Z" fill="white"/>
<g id="Rectangle 1006" filter="url(#filter1_dddd_287_356)">
<rect x="180.092" y="13" width="297.974" height="623.201" rx="43.6059" fill="white"/>
</g>
<rect id="Rectangle 1007" x="311.818" y="29.3523" width="32.7044" height="3.63382" rx="1.81691" fill="#C4C4C4"/>
<circle id="Ellipse 176" cx="359.966" cy="31.1692" r="3.63382" fill="#C4C4C4"/>
<path id="Subtract" fill-rule="evenodd" clip-rule="evenodd" d="M250.952 29.3525C250.952 29.0474 250.961 28.7444 250.978 28.4438H250.952C250.952 24.9494 248.133 22.1134 244.646 22.0848H223.698C204.632 22.0848 189.177 37.5405 189.177 56.6061V593.504C189.177 612.569 204.632 628.025 223.698 628.025H434.46C453.525 628.025 468.981 612.569 468.981 593.503V56.6061C468.981 37.5405 453.526 22.0848 434.46 22.0848H414.416C410.931 22.1157 408.115 24.9508 408.115 28.4437H408.088C408.106 28.7444 408.115 29.0474 408.115 29.3525C408.115 37.8818 401.2 44.7962 392.671 44.7962H266.396C257.866 44.7962 250.952 37.8818 250.952 29.3525Z" fill="url(#paint0_linear_287_356)"/>
</g>
</g>
<rect id="Rectangle 1126" x="52" y="408.179" width="100.839" height="100.839" rx="15.4438" fill="url(#paint1_linear_287_356)"/>
<path id="Vector 500" d="M332.713 707.061V938.309" stroke="url(#paint2_linear_287_356)" stroke-width="3.06967" stroke-linecap="round" stroke-dasharray="1.02 10.23"/>
<g id="Group 605">
<g id="Rectangle 1125" filter="url(#filter2_ddddd_287_356)">
<rect x="71" y="116" width="100.839" height="100.839" rx="15.4438" fill="url(#paint3_linear_287_356)"/>
</g>
<path id="Vector" d="M122.055 185.952C122.055 185.952 135.864 179.047 135.864 168.691V156.608L122.055 151.43L108.247 156.608V168.691C108.247 179.047 122.055 185.952 122.055 185.952Z" stroke="#FCFAFA" stroke-width="3.43012" stroke-linecap="round" stroke-linejoin="round"/>
</g>
<path id="Vector_2" d="M94.9245 456.917L101.647 441.791C102.984 441.791 104.267 442.322 105.212 443.268C106.158 444.214 106.689 445.496 106.689 446.833V453.556H116.202C116.689 453.55 117.171 453.651 117.616 453.85C118.06 454.05 118.456 454.344 118.776 454.711C119.096 455.079 119.332 455.512 119.468 455.98C119.603 456.448 119.636 456.94 119.563 457.421L117.244 472.547C117.122 473.349 116.715 474.079 116.097 474.604C115.479 475.129 114.693 475.413 113.882 475.404H94.9245M94.9245 456.917V475.404M94.9245 456.917H89.8825C88.9911 456.917 88.1361 457.271 87.5057 457.902C86.8754 458.532 86.5212 459.387 86.5212 460.278V472.043C86.5212 472.934 86.8754 473.789 87.5057 474.42C88.1361 475.05 88.9911 475.404 89.8825 475.404H94.9245" stroke="#FCFAFA" stroke-width="3.3613" stroke-linecap="round" stroke-linejoin="round"/>
<g id="fig-screen1">
<g id="fig-screen1_2">
<text id="Me ajuda" fill="#FBF9FC" xml:space="preserve" style="white-space: pre" font-family="Source Sans Pro" font-size="7.71616" letter-spacing="0em"><tspan x="250.156" y="307.007">Me ajuda</tspan></text>
<text id="Ativar a fun&#195;&#167;&#195;&#163;o d&#195;&#169;bito" fill="#FBF9FC" xml:space="preserve" style="white-space: pre" font-family="Source Sans Pro" font-size="7.71616" letter-spacing="0em"><tspan x="250.156" y="341.301">Ativar a fun&#xe7;&#xe3;o d&#xe9;bito</tspan></text>
<text id="Perfil" fill="#FBF9FC" xml:space="preserve" style="white-space: pre" font-family="Source Sans Pro" font-size="7.71616" letter-spacing="0em"><tspan x="250.156" y="375.595">Perfil</tspan></text>
<text id="Configurar NuAlterConta" fill="#FBF9FC" xml:space="preserve" style="white-space: pre" font-family="Source Sans Pro" font-size="7.71616" letter-spacing="0em"><tspan x="250.375" y="409.652">Configurar NuAlterConta</tspan></text>
<text id="Configurar cart&#195;&#163;o" fill="#FBF9FC" xml:space="preserve" style="white-space: pre" font-family="Source Sans Pro" font-size="7.71616" letter-spacing="0em"><tspan x="250.156" y="444.183">Configurar cart&#xe3;o</tspan></text>
<text id="sair do app" fill="#FBF9FC" xml:space="preserve" style="white-space: pre" font-family="Source Sans Pro" font-size="7.71616" font-weight="bold" letter-spacing="0em"><tspan x="305.884" y="524.774">SAIR DO APP</tspan></text>
<path id="Vector_3" d="M438.13 309.972L443.26 304.826L438.13 299.681" stroke="#FBF9FC" stroke-width="0.857351" stroke-linecap="round" stroke-linejoin="round"/>
<path id="Vector_4" d="M438.13 448.036L443.26 442.891L438.13 437.746" stroke="#FBF9FC" stroke-width="0.857351" stroke-linecap="round" stroke-linejoin="round"/>
<path id="Vector_5" d="M438.13 413.734L443.26 408.589L438.13 403.444" stroke="#FBF9FC" stroke-width="0.857351" stroke-linecap="round" stroke-linejoin="round"/>
<path id="Vector_6" d="M438.13 378.575L443.26 373.43L438.13 368.285" stroke="#FBF9FC" stroke-width="0.857351" stroke-linecap="round" stroke-linejoin="round"/>
<path id="Vector_7" d="M438.13 344.273L443.26 339.128L438.13 333.983" stroke="#FBF9FC" stroke-width="0.857351" stroke-linecap="round" stroke-linejoin="round"/>
<g id="Group 321">
<path id="Vector_8" d="M234.623 380.29V378.575C234.623 377.665 234.263 376.793 233.621 376.15C232.98 375.506 232.11 375.145 231.203 375.145H224.362C223.455 375.145 222.585 375.506 221.944 376.15C221.302 376.793 220.942 377.665 220.942 378.575V380.29" stroke="#FBF9FC" stroke-width="0.857351" stroke-linecap="round" stroke-linejoin="round"/>
<path id="Vector_9" d="M227.783 371.715C229.672 371.715 231.203 370.179 231.203 368.285C231.203 366.39 229.672 364.854 227.783 364.854C225.894 364.854 224.362 366.39 224.362 368.285C224.362 370.179 225.894 371.715 227.783 371.715Z" stroke="#FBF9FC" stroke-width="0.857351" stroke-linecap="round" stroke-linejoin="round"/>
</g>
<g id="Group 322">
<path id="Vector_10" d="M227.783 397.441V416.307" stroke="#FBF9FC" stroke-width="0.857351" stroke-linecap="round" stroke-linejoin="round"/>
<path id="Vector_11" d="M232.058 400.871H225.645C224.851 400.871 224.09 401.188 223.529 401.75C222.968 402.313 222.652 403.077 222.652 403.873C222.652 404.669 222.968 405.432 223.529 405.995C224.09 406.558 224.851 406.874 225.645 406.874H229.92C230.714 406.874 231.475 407.19 232.037 407.753C232.598 408.316 232.913 409.08 232.913 409.876C232.913 410.672 232.598 411.435 232.037 411.998C231.475 412.561 230.714 412.877 229.92 412.877H222.652" stroke="#FBF9FC" stroke-width="0.857351" stroke-linecap="round" stroke-linejoin="round"/>
</g>
<g id="Group 323">
<path id="Vector_12" d="M235.478 435.173H220.087C219.143 435.173 218.377 435.941 218.377 436.888V447.178C218.377 448.126 219.143 448.894 220.087 448.894H235.478C236.423 448.894 237.188 448.126 237.188 447.178V436.888C237.188 435.941 236.423 435.173 235.478 435.173Z" stroke="#FBF9FC" stroke-width="0.857351" stroke-linecap="round" stroke-linejoin="round"/>
<path id="Vector_13" d="M218.377 440.318H237.188" stroke="#FBF9FC" stroke-width="0.857351" stroke-linecap="round" stroke-linejoin="round"/>
</g>
<g id="Group 324">
<path id="Vector_14" d="M235.478 332.268H220.087C219.143 332.268 218.377 333.036 218.377 333.983V344.273C218.377 345.221 219.143 345.989 220.087 345.989H235.478C236.423 345.989 237.188 345.221 237.188 344.273V333.983C237.188 333.036 236.423 332.268 235.478 332.268Z" stroke="#FBF9FC" stroke-width="0.857351" stroke-linecap="round" stroke-linejoin="round"/>
<path id="Vector_15" d="M218.377 337.413H237.188" stroke="#FBF9FC" stroke-width="0.857351" stroke-linecap="round" stroke-linejoin="round"/>
</g>
<g id="Group 325">
<path id="Vector_16" d="M227.783 311.687C232.505 311.687 236.333 307.847 236.333 303.111C236.333 298.375 232.505 294.536 227.783 294.536C223.06 294.536 219.232 298.375 219.232 303.111C219.232 307.847 223.06 311.687 227.783 311.687Z" stroke="#FBF9FC" stroke-width="0.857351" stroke-linecap="round" stroke-linejoin="round"/>
<path id="Vector_17" d="M225.294 300.539C225.495 299.966 225.892 299.482 226.414 299.175C226.937 298.867 227.551 298.754 228.148 298.857C228.745 298.96 229.286 299.271 229.676 299.736C230.067 300.2 230.28 300.789 230.279 301.396C230.279 303.111 227.714 303.969 227.714 303.969" stroke="#FBF9FC" stroke-width="0.857351" stroke-linecap="round" stroke-linejoin="round"/>
<path id="Vector_18" d="M227.782 307.399H227.792" stroke="#FBF9FC" stroke-width="0.857351" stroke-linecap="round" stroke-linejoin="round"/>
</g>
<path id="Vector 34" d="M209.86 287.618H444.775" stroke="#F05454" stroke-width="0.702298"/>
<path id="Vector 35" d="M209.86 459.089H445.632" stroke="#F05454" stroke-width="0.702298"/>
<text id="Configurar App" fill="#FBF9FC" xml:space="preserve" style="white-space: pre" font-family="Source Sans Pro" font-size="7.71616" letter-spacing="0em"><tspan x="250.156" y="478.477">Configurar App</tspan></text>
<path id="Vector_19" d="M438.13 482.338L443.26 477.193L438.13 472.047" stroke="#FBF9FC" stroke-width="0.857351" stroke-linecap="round" stroke-linejoin="round"/>
<path id="Vector 36" d="M209.86 493.383H445.632" stroke="#F05454" stroke-width="0.702298"/>
<path id="Vector 37" d="M209.86 424.794H445.632" stroke="#F05454" stroke-width="0.702298"/>
<path id="Vector 38" d="M209.86 390.5H445.632" stroke="#F05454" stroke-width="0.702298"/>
<path id="Vector 39" d="M209.86 356.207H445.632" stroke="#F05454" stroke-width="0.702298"/>
<path id="Vector 40" d="M209.003 321.913H444.774" stroke="#F05454" stroke-width="0.702298"/>
<rect id="Rectangle 431" x="209.354" y="505.737" width="235.069" height="33.5918" rx="2.2209" stroke="#F05454" stroke-width="0.702298"/>
<path id="Vector_20" d="M333.948 121.312L328.818 116.167L323.687 121.312" stroke="#FBF9FC" stroke-width="0.857351" stroke-linecap="round" stroke-linejoin="round"/>
<path id="Rectangle 432" d="M214.147 557.684C214.147 555.316 216.066 553.397 218.434 553.397H436.201C438.568 553.397 440.488 555.316 440.488 557.684V628.844H214.147V557.684Z" fill="#FBF9FC"/>
<text id="Alterconta" fill="#3C3B3D" xml:space="preserve" style="white-space: pre" font-family="Source Sans Pro" font-size="10.2882" letter-spacing="0em"><tspan x="260.207" y="577.107">Alterconta</tspan></text>
<g id="Group 326">
<path id="Vector_21" d="M404.782 576.668C404.782 576.668 408.203 569.807 414.188 569.807C420.174 569.807 423.594 576.668 423.594 576.668C423.594 576.668 420.174 583.528 414.188 583.528C408.203 583.528 404.782 576.668 404.782 576.668Z" stroke="#3C3B3D" stroke-width="0.857351" stroke-linecap="round" stroke-linejoin="round"/>
<path id="Vector_22" d="M414.188 579.24C415.605 579.24 416.753 578.089 416.753 576.668C416.753 575.247 415.605 574.095 414.188 574.095C412.771 574.095 411.623 575.247 411.623 576.668C411.623 578.089 412.771 579.24 414.188 579.24Z" stroke="#3C3B3D" stroke-width="0.857351" stroke-linecap="round" stroke-linejoin="round"/>
</g>
<path id="Vector_23" d="M233.768 582.67C238.491 582.67 242.319 578.831 242.319 574.095C242.319 569.359 238.491 565.52 233.768 565.52C229.046 565.52 225.217 569.359 225.217 574.095C225.217 578.831 229.046 582.67 233.768 582.67Z" stroke="#3C3B3D" stroke-width="0.857351" stroke-linecap="round" stroke-linejoin="round"/>
<g id="Group 327">
<path id="Vector_24" d="M233.768 568.95V578.383" stroke="#3C3B3D" stroke-width="0.857351" stroke-linecap="round" stroke-linejoin="round"/>
<path id="Vector_25" d="M235.906 570.665H232.699C232.303 570.665 231.922 570.823 231.641 571.104C231.361 571.386 231.203 571.767 231.203 572.166C231.203 572.564 231.361 572.945 231.641 573.227C231.922 573.508 232.303 573.666 232.699 573.666H234.837C235.234 573.666 235.615 573.824 235.895 574.106C236.176 574.387 236.333 574.769 236.333 575.167C236.333 575.565 236.176 575.947 235.895 576.228C235.615 576.51 235.234 576.668 234.837 576.668H231.203" stroke="#3C3B3D" stroke-width="0.857351" stroke-linecap="round" stroke-linejoin="round"/>
</g>
<g id="Group 328">
<path id="Vector_26" d="M232.058 467.76H223.507C222.563 467.76 221.797 468.527 221.797 469.475V483.195C221.797 484.142 222.563 484.91 223.507 484.91H232.058C233.002 484.91 233.768 484.142 233.768 483.195V469.475C233.768 468.527 233.002 467.76 232.058 467.76Z" stroke="#FBF9FC" stroke-width="0.857351" stroke-linecap="round" stroke-linejoin="round"/>
<path id="Vector_27" d="M227.783 481.48H227.792" stroke="#FBF9FC" stroke-width="0.857351" stroke-linecap="round" stroke-linejoin="round"/>
</g>
<g id="header" clip-path="url(#clip1_287_356)">
<g id="Group 322_2">
<g id="Group 32">
<rect id="Rectangle 421" x="408.766" y="47.781" width="2.23556" height="2.87429" rx="0.857351" fill="white"/>
<rect id="Rectangle 422" x="411.959" y="46.5034" width="2.23556" height="4.15176" rx="0.857351" fill="white"/>
<rect id="Rectangle 423" x="415.153" y="44.9067" width="2.23556" height="5.74859" rx="0.857351" fill="white"/>
<rect id="Rectangle 424" x="418.347" y="43.3098" width="2.23556" height="7.34542" rx="0.857351" fill="white"/>
</g>
<g id="Group 34">
<path id="Vector 36_2" d="M451.633 48.8312V46.3621C452.319 46.7736 452.456 47.1851 452.456 47.5966C452.456 48.0082 452.319 48.4197 451.633 48.8312Z" fill="white" fill-opacity="0.5"/>
<rect id="Rectangle 413" x="438.19" y="44.4413" width="12.6202" height="6.31011" rx="1.37176" stroke="white" stroke-opacity="0.5" stroke-width="0.548705"/>
<rect id="Rectangle 414" x="439.013" y="45.2644" width="10.9741" height="4.66399" rx="0.823057" fill="#FBF9FC"/>
</g>
<g id="Group 33">
<path id="Subtract_2" fill-rule="evenodd" clip-rule="evenodd" d="M433.848 45.4834L432.819 46.5124C431.825 45.5891 430.492 45.0246 429.028 45.0246C427.559 45.0246 426.222 45.5936 425.226 46.5234L424.198 45.4955C425.376 44.1555 427.104 43.3098 429.028 43.3098C430.947 43.3098 432.67 44.1504 433.848 45.4834Z" fill="white"/>
<path id="Subtract_3" fill-rule="evenodd" clip-rule="evenodd" d="M433.089 49.0434C433.089 49.0432 433.088 49.043 433.088 49.0428L433.088 49.0433L433.089 49.0434ZM426.988 48.522L426.08 47.5322C426.898 46.7266 428.036 46.25 429.274 46.3036C430.403 46.3525 431.411 46.834 432.145 47.5813L431.141 48.5019C430.623 48.0495 429.953 47.7634 429.212 47.7313C428.362 47.6945 427.577 47.9984 426.988 48.522Z" fill="white"/>
<path id="Vector 37_2" d="M429.028 50.5973L427.742 49.3113C428.153 48.9221 428.457 48.7397 429.028 48.7397C429.6 48.7397 429.901 48.8858 430.314 49.3113L429.028 50.5973Z" fill="white"/>
</g>
<text id="22:31" fill="white" xml:space="preserve" style="white-space: pre" font-family="Cairo" font-size="11.1456" font-weight="bold" letter-spacing="0em"><tspan x="216.719" y="51.1022">22:31</tspan></text>
</g>
<g id="Group 323_2">
<text id="Lukas Bruno" fill="#FBF9FC" xml:space="preserve" style="white-space: pre" font-family="Sora" font-size="12.6414" font-weight="bold" letter-spacing="0em"><tspan x="289.965" y="98.3169">Lukas Bruno</tspan></text>
</g>
<g id="Vector 215" filter="url(#filter3_d_287_356)">
<path d="M260.267 96.7706C262.12 93.7841 263.265 92.1199 265.494 89.1698C267.712 92.1639 268.744 93.7534 270.682 96.7706C272.187 99.1138 269.055 100.408 268.174 100.408C267.408 100.408 267.37 102.189 268.174 102.189H272.597C273.707 102.189 274.888 100.944 274.932 100.255C274.974 99.6041 274.971 98.9915 274.817 98.6086L268.959 86.8723C267.159 83.1963 264.019 82.8134 262.047 86.8723L256.112 98.5894C255.94 99.1255 255.993 99.5771 256.036 100.178C256.115 101.289 257.678 102.189 258.295 102.189H262.909C263.751 102.189 263.847 100.408 263.081 100.408C260.358 100.408 259.673 97.9576 260.267 96.7706Z" stroke="#FCFAFA" stroke-width="0.351149"/>
</g>
</g>
<g id="Rectangle 433" filter="url(#filter4_ddd_287_356)">
<rect x="212.451" y="138.047" width="234.568" height="59.6954" rx="9.12988" fill="#FCFAFA"/>
</g>
<g id="Group 329">
<text id="Banco:" fill="#242222" xml:space="preserve" style="white-space: pre" font-family="Source Sans Pro" font-size="10.2882" letter-spacing="0em"><tspan x="286.192" y="155.025">Banco:</tspan></text>
<text id="260 - AT Pagamentos S.A." fill="#242222" xml:space="preserve" style="white-space: pre" font-family="Source Sans Pro" font-size="10.2882" font-weight="bold" letter-spacing="0em"><tspan x="319.2" y="155.025">260 - AT Pagamentos S.A.</tspan></text>
</g>
<g id="Group 330">
<rect id="Rectangle 396" x="228.252" y="144.016" width="46.7257" height="46.7257" fill="white" stroke="#242222" stroke-width="0.702298"/>
<g id="Union">
<mask id="path-75-inside-1_287_356" fill="white">
<path fill-rule="evenodd" clip-rule="evenodd" d="M257.361 147.059H271.859V150.066H257.361V147.059ZM251.731 152.843V150.066H254.507V147.059H248.723V149.835V150.066V152.843H251.731ZM266.152 152.92H263.144V155.927H266.152V152.92ZM231.294 164.41H234.302V167.418H231.294V164.41ZM234.302 167.418H237.078V164.565H242.862V167.341H251.577V164.565H248.569V158.781H251.499V155.85H248.723V152.843H254.507V155.85H254.507V161.634H251.577V164.41H254.584V167.418H251.577L251.577 170.194V173.202H254.353V170.194H257.36V173.202H254.584V175.978H257.36V178.986H254.353V176.209H251.577V178.986H254.584V181.993H251.577V184.692H260.137V181.916H257.361V178.909H260.368V181.839H263.144V187.623H263.144V187.7H251.577V184.693H248.569V181.762V181.685V175.978H251.577V173.202H248.569V170.348H240.009V167.572H237.31V170.425H234.302V167.418ZM260.137 170.425V167.572H257.361V164.565H263.144L263.144 167.418V170.425H260.137ZM257.361 176.209H263.144V181.839H266.152L268.928 181.839V178.986H271.936V175.978H268.928V173.202H257.361V176.209ZM266.152 178.831V176.209H268.928V178.831H266.152ZM271.936 181.839H268.928V184.77H265.921V187.777H268.928V184.847H271.936V181.839ZM237.078 178.909H240.086V181.916H237.078V178.909ZM240.086 152.92H237.078V155.927H240.086V152.92ZM242.785 158.781H234.302V150.066L242.785 150.066V158.781ZM231.294 158.781V161.788H245.793V158.781H245.793V150.066H245.793V147.059H231.295V150.066L231.294 150.066V158.781V158.781ZM231.294 173.202H245.793V176.209H231.294V173.202ZM245.793 184.615H231.294V187.623H245.793V184.615ZM268.851 158.781H260.368V150.066H257.361V158.781V158.781V161.788H271.859V158.781H271.859V150.066H268.851V158.781ZM268.928 167.418H265.921V173.202H268.928V170.348H271.936V164.565H268.928V167.418ZM245.793 176.209H242.785V184.615H245.793V176.209ZM231.294 176.209H234.302V184.615H231.294V176.209Z"/>
</mask>
<path fill-rule="evenodd" clip-rule="evenodd" d="M257.361 147.059H271.859V150.066H257.361V147.059ZM251.731 152.843V150.066H254.507V147.059H248.723V149.835V150.066V152.843H251.731ZM266.152 152.92H263.144V155.927H266.152V152.92ZM231.294 164.41H234.302V167.418H231.294V164.41ZM234.302 167.418H237.078V164.565H242.862V167.341H251.577V164.565H248.569V158.781H251.499V155.85H248.723V152.843H254.507V155.85H254.507V161.634H251.577V164.41H254.584V167.418H251.577L251.577 170.194V173.202H254.353V170.194H257.36V173.202H254.584V175.978H257.36V178.986H254.353V176.209H251.577V178.986H254.584V181.993H251.577V184.692H260.137V181.916H257.361V178.909H260.368V181.839H263.144V187.623H263.144V187.7H251.577V184.693H248.569V181.762V181.685V175.978H251.577V173.202H248.569V170.348H240.009V167.572H237.31V170.425H234.302V167.418ZM260.137 170.425V167.572H257.361V164.565H263.144L263.144 167.418V170.425H260.137ZM257.361 176.209H263.144V181.839H266.152L268.928 181.839V178.986H271.936V175.978H268.928V173.202H257.361V176.209ZM266.152 178.831V176.209H268.928V178.831H266.152ZM271.936 181.839H268.928V184.77H265.921V187.777H268.928V184.847H271.936V181.839ZM237.078 178.909H240.086V181.916H237.078V178.909ZM240.086 152.92H237.078V155.927H240.086V152.92ZM242.785 158.781H234.302V150.066L242.785 150.066V158.781ZM231.294 158.781V161.788H245.793V158.781H245.793V150.066H245.793V147.059H231.295V150.066L231.294 150.066V158.781V158.781ZM231.294 173.202H245.793V176.209H231.294V173.202ZM245.793 184.615H231.294V187.623H245.793V184.615ZM268.851 158.781H260.368V150.066H257.361V158.781V158.781V161.788H271.859V158.781H271.859V150.066H268.851V158.781ZM268.928 167.418H265.921V173.202H268.928V170.348H271.936V164.565H268.928V167.418ZM245.793 176.209H242.785V184.615H245.793V176.209ZM231.294 176.209H234.302V184.615H231.294V176.209Z" fill="#242222"/>
<path d="M271.859 147.059H272.561V146.356H271.859V147.059ZM257.361 147.059V146.356H256.658V147.059H257.361ZM271.859 150.066V150.769H272.561V150.066H271.859ZM257.361 150.066H256.658V150.769H257.361V150.066ZM251.731 150.066V149.364H251.029V150.066H251.731ZM251.731 152.842V153.545H252.433V152.842H251.731ZM254.507 150.066V150.769H255.209V150.066H254.507ZM254.507 147.059H255.209V146.356H254.507V147.059ZM248.723 147.059V146.356H248.021V147.059H248.723ZM248.723 152.842H248.021V153.545H248.723V152.842ZM263.144 152.92V152.217H262.442V152.92H263.144ZM266.152 152.92H266.854V152.217H266.152V152.92ZM263.144 155.927H262.442V156.63H263.144V155.927ZM266.152 155.927V156.63H266.854V155.927H266.152ZM234.302 164.41H235.004V163.708H234.302V164.41ZM231.294 164.41V163.708H230.592V164.41H231.294ZM234.302 167.418V168.12H235.004V167.418H234.302ZM231.294 167.418H230.592V168.12H231.294V167.418ZM237.078 167.418V168.12H237.781V167.418H237.078ZM234.302 167.418V166.715H233.6V167.418H234.302ZM237.078 164.565V163.862H236.376V164.565H237.078ZM242.862 164.565H243.564V163.862H242.862V164.565ZM242.862 167.341H242.16V168.043H242.862V167.341ZM251.577 167.341V168.043H252.279V167.341H251.577ZM251.577 164.565H252.279V163.862H251.577V164.565ZM248.569 164.565H247.867V165.267H248.569V164.565ZM248.569 158.781V158.078H247.867V158.781H248.569ZM251.5 158.781V159.483H252.202V158.781H251.5ZM251.5 155.85H252.202V155.148H251.5V155.85ZM248.723 155.85H248.021V156.552H248.723V155.85ZM248.723 152.843V152.14H248.021V152.843H248.723ZM254.507 152.843H255.209V152.14H254.507V152.843ZM254.507 155.85H253.805V156.552H254.507V155.85ZM254.507 155.85H255.209V155.148H254.507V155.85ZM254.507 161.634V162.336H255.209V161.634H254.507ZM251.577 161.634V160.932H250.874V161.634H251.577ZM251.577 164.41H250.874V165.112H251.577V164.41ZM254.584 164.41H255.286V163.708H254.584V164.41ZM254.584 167.418V168.12H255.286V167.418H254.584ZM251.577 167.418V166.715H250.874L250.874 167.418L251.577 167.418ZM251.577 170.194L252.279 170.194L252.279 170.194L251.577 170.194ZM251.577 173.202H250.874V173.904H251.577V173.202ZM254.353 173.202V173.904H255.055V173.202H254.353ZM254.353 170.194V169.492H253.651V170.194H254.353ZM257.36 170.194H258.063V169.492H257.36V170.194ZM257.36 173.202V173.904H258.063V173.202H257.36ZM254.584 173.202V172.5H253.882V173.202H254.584ZM254.584 175.978H253.882V176.68H254.584V175.978ZM257.36 175.978H258.063V175.276H257.36V175.978ZM257.36 178.986V179.688H258.063V178.986H257.36ZM254.353 178.986H253.651V179.688H254.353V178.986ZM254.353 176.209H255.055V175.507H254.353V176.209ZM251.577 176.209V175.507H250.874V176.209H251.577ZM251.577 178.986H250.874V179.688H251.577V178.986ZM254.584 178.986H255.286V178.283H254.584V178.986ZM254.584 181.993V182.696H255.286V181.993H254.584ZM251.577 181.993V181.291H250.874V181.993H251.577ZM251.577 184.692H250.874V185.395H251.577V184.692ZM260.137 184.692V185.395H260.839V184.692H260.137ZM260.137 181.916H260.839V181.214H260.137V181.916ZM257.361 181.916H256.658V182.619H257.361V181.916ZM257.361 178.909V178.206H256.658V178.909H257.361ZM260.368 178.909H261.07V178.206H260.368V178.909ZM260.368 181.839H259.666V182.541H260.368V181.839ZM263.144 181.839H263.847V181.137H263.144V181.839ZM263.144 187.623V188.325H263.847V187.623H263.144ZM263.144 187.623V186.921H262.442V187.623H263.144ZM263.144 187.7V188.402H263.847V187.7H263.144ZM251.577 187.7H250.874V188.402H251.577V187.7ZM251.577 184.693H252.279V183.99H251.577V184.693ZM248.569 184.693H247.867V185.395H248.569V184.693ZM248.569 175.978V175.276H247.867V175.978H248.569ZM251.577 175.978V176.68H252.279V175.978H251.577ZM251.577 173.202H252.279V172.5H251.577V173.202ZM248.569 173.202H247.867V173.904H248.569V173.202ZM248.569 170.348H249.271V169.646H248.569V170.348ZM240.009 170.348H239.306V171.051H240.009V170.348ZM240.009 167.572H240.711V166.87H240.009V167.572ZM237.31 167.572V166.87H236.607V167.572H237.31ZM237.31 170.425V171.128H238.012V170.425H237.31ZM234.302 170.425H233.6V171.128H234.302V170.425ZM260.137 167.572H260.839V166.87H260.137V167.572ZM260.137 170.425H259.435V171.128H260.137V170.425ZM257.361 167.572H256.658V168.275H257.361V167.572ZM257.361 164.565V163.862H256.658V164.565H257.361ZM263.144 164.565L263.847 164.565L263.847 163.862H263.144V164.565ZM263.144 167.418L263.847 167.418L263.847 167.418L263.144 167.418ZM263.144 170.425V171.128H263.847V170.425H263.144ZM263.144 176.209H263.847V175.507H263.144V176.209ZM257.361 176.209H256.658V176.912H257.361V176.209ZM263.144 181.839H262.442V182.541H263.144V181.839ZM266.152 181.839L266.152 182.541L266.152 182.541L266.152 181.839ZM268.928 181.839L268.928 182.541L269.631 182.541V181.839H268.928ZM268.928 178.986V178.283H268.226V178.986H268.928ZM271.936 178.986V179.688H272.638V178.986H271.936ZM271.936 175.978H272.638V175.276H271.936V175.978ZM268.928 175.978H268.226V176.68H268.928V175.978ZM268.928 173.202H269.631V172.499H268.928V173.202ZM257.361 173.202V172.499H256.658V173.202H257.361ZM266.152 176.209V175.507H265.45V176.209H266.152ZM266.152 178.831H265.45V179.534H266.152V178.831ZM268.928 176.209H269.631V175.507H268.928V176.209ZM268.928 178.831V179.534H269.631V178.831H268.928ZM268.928 181.839V181.137H268.226V181.839H268.928ZM271.936 181.839H272.638V181.137H271.936V181.839ZM268.928 184.77V185.472H269.631V184.77H268.928ZM265.921 184.77V184.067H265.218V184.77H265.921ZM265.921 187.777H265.218V188.48H265.921V187.777ZM268.928 187.777V188.48H269.631V187.777H268.928ZM268.928 184.847V184.144H268.226V184.847H268.928ZM271.936 184.847V185.549H272.638V184.847H271.936ZM240.086 178.909H240.788V178.206H240.086V178.909ZM237.078 178.909V178.206H236.376V178.909H237.078ZM240.086 181.916V182.619H240.788V181.916H240.086ZM237.078 181.916H236.376V182.619H237.078V181.916ZM237.078 152.92V152.217H236.376V152.92H237.078ZM240.086 152.92H240.788V152.217H240.086V152.92ZM237.078 155.927H236.376V156.63H237.078V155.927ZM240.086 155.927V156.63H240.788V155.927H240.086ZM234.302 158.781H233.6V159.483H234.302V158.781ZM242.785 158.781V159.483H243.487V158.781H242.785ZM234.302 150.066L234.302 149.364L233.6 149.364V150.066H234.302ZM242.785 150.066H243.487V149.364L242.785 149.364L242.785 150.066ZM231.294 161.788H230.592V162.491H231.294V161.788ZM245.793 161.788V162.491H246.495V161.788H245.793ZM245.793 158.781H246.495V158.078H245.793V158.781ZM245.793 158.781H245.09V159.483H245.793V158.781ZM245.793 150.066V149.364H245.09V150.066H245.793ZM245.793 150.066V150.769H246.495V150.066H245.793ZM245.793 147.059H246.495V146.356H245.793V147.059ZM231.295 147.059V146.356H230.593V147.059H231.295ZM231.295 150.066L231.293 150.769L231.997 150.77V150.066H231.295ZM231.294 150.066L231.296 149.364L230.592 149.362V150.066H231.294ZM245.793 173.202H246.495V172.499H245.793V173.202ZM231.294 173.202V172.499H230.592V173.202H231.294ZM245.793 176.209V176.912H246.495V176.209H245.793ZM231.294 176.209H230.592V176.912H231.294V176.209ZM231.294 184.615V183.913H230.592V184.615H231.294ZM245.793 184.615H246.495V183.913H245.793V184.615ZM231.294 187.623H230.592V188.325H231.294V187.623ZM245.793 187.623V188.325H246.495V187.623H245.793ZM260.368 158.781H259.666V159.483H260.368V158.781ZM268.851 158.781V159.483H269.553V158.781H268.851ZM260.368 150.066H261.07V149.364H260.368V150.066ZM257.361 150.066V149.364H256.658V150.066H257.361ZM257.361 161.788H256.658V162.491H257.361V161.788ZM271.859 161.788V162.491H272.561V161.788H271.859ZM271.859 158.781H272.561V158.078H271.859V158.781ZM271.859 158.781H271.156V159.483H271.859V158.781ZM271.859 150.066H272.561V149.364H271.859V150.066ZM268.851 150.066V149.364H268.149V150.066H268.851ZM265.921 167.418V166.715H265.218V167.418H265.921ZM268.928 167.418V168.12H269.631V167.418H268.928ZM265.921 173.202H265.218V173.904H265.921V173.202ZM268.928 173.202V173.904H269.631V173.202H268.928ZM268.928 170.348V169.646H268.226V170.348H268.928ZM271.936 170.348V171.051H272.638V170.348H271.936ZM271.936 164.565H272.638V163.862H271.936V164.565ZM268.928 164.565V163.862H268.226V164.565H268.928ZM242.785 176.209V175.507H242.083V176.209H242.785ZM245.793 176.209H246.495V175.507H245.793V176.209ZM242.785 184.615H242.083V185.318H242.785V184.615ZM245.793 184.615V185.318H246.495V184.615H245.793ZM234.302 176.209H235.004V175.507H234.302V176.209ZM231.294 176.209V175.507H230.592V176.209H231.294ZM234.302 184.615V185.318H235.004V184.615H234.302ZM231.294 184.615H230.592V185.318H231.294V184.615ZM271.859 146.356H257.361V147.761H271.859V146.356ZM272.561 150.066V147.059H271.157V150.066H272.561ZM257.361 150.769H271.859V149.364H257.361V150.769ZM256.658 147.059V150.066H258.063V147.059H256.658ZM251.029 150.066V152.842H252.433V150.066H251.029ZM254.507 149.364H251.731V150.769H254.507V149.364ZM253.805 147.059V150.066H255.209V147.059H253.805ZM248.723 147.761H254.507V146.356H248.723V147.761ZM249.426 149.835V147.059H248.021V149.835H249.426ZM249.426 150.066V149.835H248.021V150.066H249.426ZM249.426 152.842V150.066H248.021V152.842H249.426ZM251.731 152.14H248.723V153.545H251.731V152.14ZM263.144 153.622H266.152V152.217H263.144V153.622ZM263.847 155.927V152.92H262.442V155.927H263.847ZM266.152 155.225H263.144V156.63H266.152V155.225ZM265.45 152.92V155.927H266.854V152.92H265.45ZM234.302 163.708H231.294V165.112H234.302V163.708ZM235.004 167.418V164.41H233.6V167.418H235.004ZM231.294 168.12H234.302V166.715H231.294V168.12ZM230.592 164.41V167.418H231.997V164.41H230.592ZM237.078 166.715H234.302V168.12H237.078V166.715ZM236.376 164.565V167.418H237.781V164.565H236.376ZM242.862 163.862H237.078V165.267H242.862V163.862ZM243.564 167.341V164.565H242.16V167.341H243.564ZM251.577 166.639H242.862V168.043H251.577V166.639ZM250.874 164.565V167.341H252.279V164.565H250.874ZM248.569 165.267H251.577V163.862H248.569V165.267ZM247.867 158.781V164.565H249.271V158.781H247.867ZM251.5 158.078H248.569V159.483H251.5V158.078ZM250.797 155.85V158.781H252.202V155.85H250.797ZM248.723 156.552H251.5V155.148H248.723V156.552ZM248.021 152.843V155.85H249.426V152.843H248.021ZM254.507 152.14H248.723V153.545H254.507V152.14ZM255.209 155.85V152.843H253.805V155.85H255.209ZM254.507 155.148H254.507V156.552H254.507V155.148ZM255.209 161.634V155.85H253.805V161.634H255.209ZM251.577 162.336H254.507V160.932H251.577V162.336ZM252.279 164.41V161.634H250.874V164.41H252.279ZM254.584 163.708H251.577V165.112H254.584V163.708ZM255.286 167.418V164.41H253.882V167.418H255.286ZM251.577 168.12H254.584V166.715H251.577V168.12ZM252.279 170.194L252.279 167.418L250.874 167.418L250.874 170.194L252.279 170.194ZM252.279 173.202V170.194H250.874V173.202H252.279ZM254.353 172.499H251.577V173.904H254.353V172.499ZM253.651 170.194V173.202H255.055V170.194H253.651ZM257.36 169.492H254.353V170.897H257.36V169.492ZM258.063 173.202V170.194H256.658V173.202H258.063ZM254.584 173.904H257.36V172.5H254.584V173.904ZM255.286 175.978V173.202H253.882V175.978H255.286ZM257.36 175.276H254.584V176.68H257.36V175.276ZM258.063 178.986V175.978H256.658V178.986H258.063ZM254.353 179.688H257.36V178.283H254.353V179.688ZM253.651 176.209V178.986H255.055V176.209H253.651ZM251.577 176.912H254.353V175.507H251.577V176.912ZM252.279 178.986V176.209H250.874V178.986H252.279ZM254.584 178.283H251.577V179.688H254.584V178.283ZM255.286 181.993V178.986H253.882V181.993H255.286ZM251.577 182.696H254.584V181.291H251.577V182.696ZM252.279 184.692V181.993H250.874V184.692H252.279ZM260.137 183.99H251.577V185.395H260.137V183.99ZM259.435 181.916V184.692H260.839V181.916H259.435ZM257.361 182.619H260.137V181.214H257.361V182.619ZM256.658 178.909V181.916H258.063V178.909H256.658ZM260.368 178.206H257.361V179.611H260.368V178.206ZM261.07 181.839V178.909H259.666V181.839H261.07ZM263.144 181.137H260.368V182.541H263.144V181.137ZM263.847 187.623V181.839H262.442V187.623H263.847ZM263.144 188.325H263.144V186.921H263.144V188.325ZM263.847 187.7V187.623H262.442V187.7H263.847ZM251.577 188.402H263.144V186.998H251.577V188.402ZM250.874 184.693V187.7H252.279V184.693H250.874ZM248.569 185.395H251.577V183.99H248.569V185.395ZM247.867 181.762V184.693H249.271V181.762H247.867ZM247.867 181.685V181.762H249.271V181.685H247.867ZM247.867 175.978V181.685H249.271V175.978H247.867ZM251.577 175.276H248.569V176.68H251.577V175.276ZM250.874 173.202V175.978H252.279V173.202H250.874ZM248.569 173.904H251.577V172.5H248.569V173.904ZM247.867 170.348V173.202H249.271V170.348H247.867ZM240.009 171.051H248.569V169.646H240.009V171.051ZM239.306 167.572V170.348H240.711V167.572H239.306ZM237.31 168.275H240.009V166.87H237.31V168.275ZM238.012 170.425V167.572H236.607V170.425H238.012ZM234.302 171.128H237.31V169.723H234.302V171.128ZM233.6 167.418V170.425H235.004V167.418H233.6ZM259.435 167.572V170.425H260.839V167.572H259.435ZM257.361 168.275H260.137V166.87H257.361V168.275ZM256.658 164.565V167.572H258.063V164.565H256.658ZM263.144 163.862H257.361V165.267H263.144V163.862ZM263.847 167.418L263.847 164.565L262.442 164.565L262.442 167.418L263.847 167.418ZM263.847 170.425V167.418H262.442V170.425H263.847ZM260.137 171.128H263.144V169.723H260.137V171.128ZM263.144 175.507H257.361V176.912H263.144V175.507ZM263.847 181.839V176.209H262.442V181.839H263.847ZM266.152 181.137H263.144V182.541H266.152V181.137ZM268.928 181.137L266.152 181.137L266.152 182.541L268.928 182.541L268.928 181.137ZM268.226 178.986V181.839H269.631V178.986H268.226ZM271.936 178.283H268.928V179.688H271.936V178.283ZM271.234 175.978V178.986H272.638V175.978H271.234ZM268.928 176.68H271.936V175.276H268.928V176.68ZM268.226 173.202V175.978H269.631V173.202H268.226ZM257.361 173.904H268.928V172.499H257.361V173.904ZM258.063 176.209V173.202H256.658V176.209H258.063ZM265.45 176.209V178.831H266.854V176.209H265.45ZM268.928 175.507H266.152V176.912H268.928V175.507ZM269.631 178.831V176.209H268.226V178.831H269.631ZM266.152 179.534H268.928V178.129H266.152V179.534ZM268.928 182.541H271.936V181.137H268.928V182.541ZM269.631 184.77V181.839H268.226V184.77H269.631ZM265.921 185.472H268.928V184.067H265.921V185.472ZM266.623 187.777V184.77H265.218V187.777H266.623ZM268.928 187.075H265.921V188.48H268.928V187.075ZM268.226 184.847V187.777H269.631V184.847H268.226ZM271.936 184.144H268.928V185.549H271.936V184.144ZM271.234 181.839V184.847H272.638V181.839H271.234ZM240.086 178.206H237.078V179.611H240.086V178.206ZM240.788 181.916V178.909H239.384V181.916H240.788ZM237.078 182.619H240.086V181.214H237.078V182.619ZM236.376 178.909V181.916H237.781V178.909H236.376ZM237.078 153.622H240.086V152.217H237.078V153.622ZM237.781 155.927V152.92H236.376V155.927H237.781ZM240.086 155.225H237.078V156.63H240.086V155.225ZM239.384 152.92V155.927H240.788V152.92H239.384ZM234.302 159.483H242.785V158.078H234.302V159.483ZM233.6 150.066V158.781H235.004V150.066H233.6ZM242.785 149.364L234.302 149.364L234.302 150.769L242.785 150.769L242.785 149.364ZM243.487 158.781V150.066H242.083V158.781H243.487ZM231.997 161.788V158.781H230.592V161.788H231.997ZM245.793 161.086H231.294V162.491H245.793V161.086ZM245.09 158.781V161.788H246.495V158.781H245.09ZM245.793 159.483H245.793V158.078H245.793V159.483ZM245.09 150.066V158.781H246.495V150.066H245.09ZM245.793 149.364H245.793V150.769H245.793V149.364ZM245.091 147.059V150.066H246.495V147.059H245.091ZM231.295 147.761H245.793V146.356H231.295V147.761ZM231.997 150.066V147.059H230.593V150.066H231.997ZM231.293 150.769L231.293 150.769L231.297 149.364L231.296 149.364L231.293 150.769ZM231.997 158.781V150.066H230.592V158.781H231.997ZM231.997 158.781V158.781H230.592V158.781H231.997ZM245.793 172.499H231.294V173.904H245.793V172.499ZM246.495 176.209V173.202H245.09V176.209H246.495ZM231.294 176.912H245.793V175.507H231.294V176.912ZM230.592 173.202V176.209H231.997V173.202H230.592ZM231.294 185.318H245.793V183.913H231.294V185.318ZM231.997 187.623V184.615H230.592V187.623H231.997ZM245.793 186.921H231.294V188.325H245.793V186.921ZM245.09 184.615V187.623H246.495V184.615H245.09ZM260.368 159.483H268.851V158.078H260.368V159.483ZM259.666 150.066V158.781H261.07V150.066H259.666ZM257.361 150.769H260.368V149.364H257.361V150.769ZM258.063 158.781V150.066H256.658V158.781H258.063ZM258.063 158.781V158.781H256.658V158.781H258.063ZM258.063 161.788V158.781H256.658V161.788H258.063ZM271.859 161.086H257.361V162.491H271.859V161.086ZM271.157 158.781V161.788H272.561V158.781H271.157ZM271.859 159.483H271.859V158.078H271.859V159.483ZM271.156 150.066V158.781H272.561V150.066H271.156ZM268.851 150.769H271.859V149.364H268.851V150.769ZM269.553 158.781V150.066H268.149V158.781H269.553ZM265.921 168.12H268.928V166.715H265.921V168.12ZM266.623 173.202V167.418H265.218V173.202H266.623ZM268.928 172.499H265.921V173.904H268.928V172.499ZM268.226 170.348V173.202H269.631V170.348H268.226ZM271.936 169.646H268.928V171.051H271.936V169.646ZM271.234 164.565V170.348H272.638V164.565H271.234ZM268.928 165.267H271.936V163.862H268.928V165.267ZM269.631 167.418V164.565H268.226V167.418H269.631ZM242.785 176.912H245.793V175.507H242.785V176.912ZM243.487 184.615V176.209H242.083V184.615H243.487ZM245.793 183.913H242.785V185.318H245.793V183.913ZM245.09 176.209V184.615H246.495V176.209H245.09ZM234.302 175.507H231.294V176.912H234.302V175.507ZM235.004 184.615V176.209H233.6V184.615H235.004ZM231.294 185.318H234.302V183.913H231.294V185.318ZM230.592 176.209V184.615H231.997V176.209H230.592Z" fill="#242222" mask="url(#path-75-inside-1_287_356)"/>
</g>
</g>
<g id="Group 331">
<text id="0001" fill="#242222" xml:space="preserve" style="white-space: pre" font-family="Source Sans Pro" font-size="10.2882" font-weight="bold" letter-spacing="0em"><tspan x="324.463" y="168.369">0001</tspan></text>
<text id="Ag&#195;&#170;ncia:" fill="#242222" xml:space="preserve" style="white-space: pre" font-family="Source Sans Pro" font-size="10.2882" letter-spacing="0em"><tspan x="286.192" y="168.369">Ag&#xea;ncia:</tspan></text>
</g>
<g id="Group 332">
<text id="77712444-0" fill="#242222" xml:space="preserve" style="white-space: pre" font-family="Source Sans Pro" font-size="10.2882" font-weight="bold" letter-spacing="0em"><tspan x="316.747" y="181.539">77712444-0</tspan></text>
<text id="Conta:" fill="#242222" xml:space="preserve" style="white-space: pre" font-family="Source Sans Pro" font-size="10.2882" letter-spacing="0em"><tspan x="286.192" y="181.712">Conta:</tspan></text>
</g>
<g id="fig-screen1_3">
<path id="Vector_28" d="M433.587 183.638L436.367 186.418L433.587 189.198" stroke="#666566" stroke-width="1.11197" stroke-linecap="round" stroke-linejoin="round"/>
<path id="Vector_29" d="M427.471 180.302V184.194C427.471 184.784 427.705 185.35 428.122 185.767C428.539 186.184 429.105 186.418 429.695 186.418H436.367" stroke="#666566" stroke-width="1.11197" stroke-linecap="round" stroke-linejoin="round"/>
</g>
</g>
</g>
<g id="fig-screen2">
<path id="Vector_30" d="M317.779 118.519L323 123.755L328.221 118.519" stroke="#FBF9FC" stroke-width="0.872646" stroke-linecap="round" stroke-linejoin="round"/>
<rect id="Rectangle 426" x="207.326" y="199.676" width="230.378" height="230.378" rx="4.36323" fill="#FEFBFF"/>
<rect id="Rectangle 427" x="207.326" y="377.695" width="230.378" height="52.3587" rx="4.36323" fill="#EDEAEF"/>
<text id="Saldo dispon&#195;&#173;vel" fill="#3C3B3D" xml:space="preserve" style="white-space: pre" font-family="Source Sans Pro" font-size="10.4717" letter-spacing="0em"><tspan x="219.016" y="291.497">Saldo dispon&#xed;vel</tspan></text>
<text id="Transfer&#195;&#170;ncia de R$ 500,00 feita para Juliana ontem" fill="#3C3B3D" xml:space="preserve" style="white-space: pre" font-family="Source Sans Pro" font-size="7.85381" letter-spacing="0em"><tspan x="256.893" y="402.199">Transfer&#xea;ncia de R$ 500,00 feita para Juliana&#10;</tspan><tspan x="256.893" y="413.199">ontem</tspan></text>
<text id="Alterconta_2" fill="#3C3B3D" xml:space="preserve" style="white-space: pre" font-family="Source Sans Pro" font-size="10.4717" letter-spacing="0em"><tspan x="254.749" y="224.319">Alterconta</tspan></text>
<text id="R$ 2.150,59" fill="#242222" xml:space="preserve" style="white-space: pre" font-family="Sora" font-size="20.9435" font-weight="bold" letter-spacing="0em"><tspan x="219.016" y="319.762">R$ 2.150,59</tspan></text>
<g id="Group 333">
<path id="Vector_31" d="M401.312 223.237C401.312 223.237 404.792 216.256 410.883 216.256C416.974 216.256 420.455 223.237 420.455 223.237C420.455 223.237 416.974 230.218 410.883 230.218C404.792 230.218 401.312 223.237 401.312 223.237Z" stroke="#3C3B3D" stroke-width="0.872646" stroke-linecap="round" stroke-linejoin="round"/>
<path id="Vector_32" d="M410.883 225.855C412.325 225.855 413.494 224.683 413.494 223.237C413.494 221.791 412.325 220.619 410.883 220.619C409.442 220.619 408.273 221.791 408.273 223.237C408.273 224.683 409.442 225.855 410.883 225.855Z" stroke="#3C3B3D" stroke-width="0.872646" stroke-linecap="round" stroke-linejoin="round"/>
</g>
<g id="Group 334">
<g id="Group 13">
<path id="Vector_33" d="M227.286 215.383V224.982" stroke="#242222" stroke-width="0.872646" stroke-linecap="round" stroke-linejoin="round"/>
<path id="Vector_34" d="M229.461 217.128H226.198C225.794 217.128 225.407 217.289 225.121 217.576C224.836 217.862 224.675 218.251 224.675 218.656C224.675 219.061 224.836 219.449 225.121 219.735C225.407 220.022 225.794 220.183 226.198 220.183H228.374C228.777 220.183 229.165 220.344 229.45 220.63C229.736 220.916 229.896 221.305 229.896 221.71C229.896 222.115 229.736 222.503 229.45 222.79C229.165 223.076 228.777 223.237 228.374 223.237H224.675" stroke="#242222" stroke-width="0.872646" stroke-linecap="round" stroke-linejoin="round"/>
</g>
<path id="Vector_35" d="M227.286 229.345C232.091 229.345 235.987 225.439 235.987 220.619C235.987 215.8 232.091 211.893 227.286 211.893C222.48 211.893 218.584 215.8 218.584 220.619C218.584 225.439 222.48 229.345 227.286 229.345Z" stroke="#242222" stroke-width="0.872646" stroke-linecap="round" stroke-linejoin="round"/>
</g>
<g id="Group 335">
<g id="Group 14">
<path id="Vector_36" d="M233.377 400.384V409.983" stroke="#3C3B3D" stroke-width="0.872646" stroke-linecap="round" stroke-linejoin="round"/>
<path id="Vector_37" d="M235.552 402.129H232.289C231.885 402.129 231.498 402.29 231.212 402.576C230.927 402.863 230.766 403.251 230.766 403.656C230.766 404.061 230.927 404.45 231.212 404.736C231.498 405.023 231.885 405.183 232.289 405.183H234.464C234.868 405.183 235.255 405.344 235.541 405.631C235.827 405.917 235.987 406.306 235.987 406.711C235.987 407.116 235.827 407.504 235.541 407.79C235.255 408.077 234.868 408.238 234.464 408.238H230.766" stroke="#3C3B3D" stroke-width="0.872646" stroke-linecap="round" stroke-linejoin="round"/>
</g>
<path id="Vector_38" d="M233.377 396.894C228.571 396.894 224.675 400.801 224.675 405.62C224.675 410.44 228.571 414.346 233.377 414.346C238.182 414.346 242.078 410.44 242.078 405.62C242.078 404.546 241.884 403.516 241.53 402.566" stroke="#3C3B3D" stroke-width="0.872646" stroke-linecap="round" stroke-linejoin="round"/>
<g id="Group 15">
<path id="Vector_39" d="M242.948 397.766L239.468 394.275L235.987 397.766" stroke="#3C3B3D" stroke-width="0.872646" stroke-linecap="round" stroke-linejoin="round"/>
<path id="Vector_40" d="M239.468 401.257V394.275" stroke="#3C3B3D" stroke-width="0.872646" stroke-linecap="round" stroke-linejoin="round"/>
</g>
</g>
<path id="Vector_41" d="M417.844 409.983L423.065 404.747L417.844 399.511" stroke="#3C3B3D" stroke-width="0.872646" stroke-linecap="round" stroke-linejoin="round"/>
<circle id="Ellipse 16" cx="309.425" cy="444.889" r="2.61794" fill="#FEFBFF"/>
<circle id="Ellipse 17" cx="323.387" cy="444.889" r="2.61794" fill="#F05454"/>
<circle id="Ellipse 18" cx="337.35" cy="444.889" r="2.61794" fill="#F05454"/>
<rect id="Rectangle 428" x="279.048" y="602.838" width="87.2646" height="4.36323" rx="2.18161" fill="#EDEAEF"/>
<g id="component-menu" clip-path="url(#clip2_287_356)">
<rect id="Rectangle 426_2" x="199.472" y="498.248" width="72.6041" height="79.4108" rx="2.144" fill="#F05454"/>
<text id="Transferir" fill="#EDEAEF" xml:space="preserve" style="white-space: pre" font-family="Source Sans Pro" font-size="10.4717" letter-spacing="0em"><tspan x="207.326" y="568.811">Transferir</tspan></text>
<rect id="Rectangle 427_2" x="363.529" y="498.248" width="72.6041" height="79.4108" rx="2.144" fill="#F05454"/>
<text id="Cobrar" fill="#EDEAEF" xml:space="preserve" style="white-space: pre" font-family="Source Sans Pro" font-size="10.4717" letter-spacing="0em"><tspan x="371.24" y="568.916">Cobrar</tspan></text>
<rect id="Rectangle 428_2" x="281.5" y="498.248" width="72.6041" height="79.4108" rx="2.144" fill="#F05454"/>
<text id="Depositar" fill="#EDEAEF" xml:space="preserve" style="white-space: pre" font-family="Source Sans Pro" font-size="10.4717" letter-spacing="0em"><tspan x="289.354" y="568.811">Depositar </tspan></text>
<g id="Group 328_2">
<g id="Group 323_3">
<path id="Vector_42" d="M215.974 511.338V520.937" stroke="#EDEAEF" stroke-width="0.714667" stroke-linecap="round" stroke-linejoin="round"/>
<path id="Vector_43" d="M218.149 513.083H214.886C214.482 513.083 214.095 513.244 213.81 513.53C213.524 513.817 213.364 514.205 213.364 514.61C213.364 515.015 213.524 515.404 213.81 515.69C214.095 515.976 214.482 516.137 214.886 516.137H217.062C217.465 516.137 217.853 516.298 218.138 516.585C218.424 516.871 218.584 517.259 218.584 517.664C218.584 518.069 218.424 518.458 218.138 518.744C217.853 519.031 217.465 519.192 217.062 519.192H213.364" stroke="#EDEAEF" stroke-width="0.714667" stroke-linecap="round" stroke-linejoin="round"/>
</g>
<path id="Vector_44" d="M215.974 507.847C211.168 507.847 207.273 511.754 207.273 516.574C207.273 521.393 211.168 525.3 215.974 525.3C220.78 525.3 224.675 521.393 224.675 516.574C224.675 515.499 224.482 514.47 224.127 513.519" stroke="#EDEAEF" stroke-width="0.714667" stroke-linecap="round" stroke-linejoin="round"/>
<g id="Group 324_2">
<path id="Vector_45" d="M225.545 508.72L222.065 505.229L218.584 508.72" stroke="#EDEAEF" stroke-width="0.714667" stroke-linecap="round" stroke-linejoin="round"/>
<path id="Vector_46" d="M222.065 512.21V505.229" stroke="#EDEAEF" stroke-width="0.714667" stroke-linecap="round" stroke-linejoin="round"/>
</g>
</g>
<g id="Group 329_2">
<g id="Group 325_2">
<path id="Vector_47" d="M297.766 511.338V520.937" stroke="#EDEAEF" stroke-width="0.714667" stroke-linecap="round" stroke-linejoin="round"/>
<path id="Vector_48" d="M299.942 513.083H296.679C296.275 513.083 295.887 513.244 295.602 513.53C295.316 513.817 295.156 514.205 295.156 514.61C295.156 515.015 295.316 515.404 295.602 515.69C295.887 515.976 296.275 516.137 296.679 516.137H298.854C299.258 516.137 299.645 516.298 299.931 516.585C300.216 516.871 300.377 517.259 300.377 517.664C300.377 518.069 300.216 518.458 299.931 518.744C299.645 519.031 299.258 519.192 298.854 519.192H295.156" stroke="#EDEAEF" stroke-width="0.714667" stroke-linecap="round" stroke-linejoin="round"/>
</g>
<path id="Vector_49" d="M297.766 507.847C292.961 507.847 289.065 511.754 289.065 516.574C289.065 521.393 292.961 525.3 297.766 525.3C302.572 525.3 306.467 521.393 306.467 516.574C306.467 515.499 306.274 514.47 305.92 513.519" stroke="#EDEAEF" stroke-width="0.714667" stroke-linecap="round" stroke-linejoin="round"/>
<g id="Group 327_2">
<path id="Vector_50" d="M300.377 508.72L303.857 512.21L307.338 508.72" stroke="#EDEAEF" stroke-width="0.714667" stroke-linecap="round" stroke-linejoin="round"/>
<path id="Vector_51" d="M303.857 505.229V512.21" stroke="#EDEAEF" stroke-width="0.714667" stroke-linecap="round" stroke-linejoin="round"/>
</g>
</g>
<g id="Group 330_2">
<g id="Group 326_2">
<path id="Vector_52" d="M379.756 510.465V517.592" stroke="#EDEAEF" stroke-width="0.714667" stroke-linecap="round" stroke-linejoin="round"/>
<path id="Vector_53" d="M381.371 511.761H378.949C378.649 511.761 378.361 511.88 378.149 512.093C377.937 512.306 377.818 512.594 377.818 512.895C377.818 513.195 377.937 513.484 378.149 513.696C378.361 513.909 378.649 514.029 378.949 514.029H380.564C380.864 514.029 381.151 514.148 381.363 514.361C381.575 514.573 381.694 514.862 381.694 515.162C381.694 515.463 381.575 515.751 381.363 515.964C381.151 516.177 380.864 516.296 380.564 516.296H377.818" stroke="#EDEAEF" stroke-width="0.714667" stroke-linecap="round" stroke-linejoin="round"/>
</g>
<path id="Vector_54" d="M387.389 518.319C387.389 518.782 387.206 519.226 386.88 519.553C386.553 519.88 386.111 520.064 385.649 520.064H375.208L371.727 523.555V509.592C371.727 509.13 371.91 508.686 372.237 508.358C372.563 508.031 373.006 507.847 373.467 507.847H385.649C386.111 507.847 386.553 508.031 386.88 508.358C387.206 508.686 387.389 509.13 387.389 509.592V518.319Z" stroke="#EDEAEF" stroke-width="0.714667" stroke-linecap="round" stroke-linejoin="round"/>
</g>
<rect id="Rectangle 429" x="445.558" y="498.248" width="14.835" height="79.4108" rx="2.144" fill="#F05454"/>
</g>
<g id="header_2" clip-path="url(#clip3_287_356)">
<g id="Group 322_3">
<g id="Group 32_2">
<rect id="Rectangle 421_2" x="411.495" y="47.0588" width="2.27493" height="2.92491" rx="0.87245" fill="white"/>
<rect id="Rectangle 422_2" x="414.745" y="45.7588" width="2.27493" height="4.22487" rx="0.87245" fill="white"/>
<rect id="Rectangle 423_2" x="417.995" y="44.134" width="2.27493" height="5.84982" rx="0.87245" fill="white"/>
<rect id="Rectangle 424_2" x="421.245" y="42.509" width="2.27493" height="7.47478" rx="0.87245" fill="white"/>
</g>
<g id="Group 34_2">
<path id="Vector 36_3" d="M455.118 48.1276V45.615C455.816 46.0338 455.955 46.4525 455.955 46.8713C455.955 47.2901 455.816 47.7089 455.118 48.1276Z" fill="white" fill-opacity="0.5"/>
<rect id="Rectangle 413_2" x="441.438" y="43.6605" width="12.8425" height="6.42123" rx="1.39592" stroke="white" stroke-opacity="0.5" stroke-width="0.558368"/>
<rect id="Rectangle 414_2" x="442.275" y="44.498" width="11.1674" height="4.74613" rx="0.837552" fill="#FBF9FC"/>
</g>
<g id="Group 33_2">
<path id="Subtract_4" fill-rule="evenodd" clip-rule="evenodd" d="M437.019 44.7208L435.972 45.7679C434.96 44.8284 433.605 44.2539 432.115 44.2539C430.619 44.2539 429.259 44.833 428.245 45.7792L427.199 44.7332C428.398 43.3696 430.156 42.509 432.115 42.509C434.067 42.509 435.82 43.3643 437.019 44.7208Z" fill="white"/>
<path id="Subtract_5" fill-rule="evenodd" clip-rule="evenodd" d="M436.246 48.3435C436.246 48.3433 436.246 48.343 436.246 48.3428L436.245 48.3435L436.246 48.3435ZM430.038 47.8128L429.114 46.8056C429.947 45.9859 431.105 45.5009 432.364 45.5555C433.513 45.6053 434.539 46.0952 435.286 46.8556L434.264 47.7924C433.737 47.332 433.055 47.0409 432.301 47.0082C431.437 46.9707 430.637 47.28 430.038 47.8128Z" fill="white"/>
<path id="Vector 37_3" d="M432.115 49.925L430.806 48.6163C431.223 48.2202 431.533 48.0347 432.115 48.0347C432.696 48.0347 433.003 48.1833 433.423 48.6163L432.115 49.925Z" fill="white"/>
</g>
<text id="22:31_2" fill="white" xml:space="preserve" style="white-space: pre" font-family="Cairo" font-size="11.3419" font-weight="bold" letter-spacing="0em"><tspan x="216.066" y="50.2978">22:31</tspan></text>
</g>
<g id="Group 323_4">
<text id="Lukas Bruno_2" fill="#FBF9FC" xml:space="preserve" style="white-space: pre" font-family="Sora" font-size="12.864" font-weight="bold" letter-spacing="0em"><tspan x="290.602" y="98.3264">Lukas Bruno</tspan></text>
</g>
<g id="Vector 215_2" filter="url(#filter5_d_287_356)">
<path d="M260.381 96.9113C262.267 93.8722 263.432 92.1787 265.7 89.1766C267.958 92.2235 269.008 93.841 270.98 96.9113C272.511 99.2958 269.324 100.613 268.427 100.613C267.648 100.613 267.609 102.425 268.427 102.425H272.928C274.058 102.425 275.26 101.159 275.305 100.457C275.347 99.7947 275.344 99.1713 275.188 98.7816L269.226 86.8387C267.395 83.098 264.2 82.7084 262.193 86.8387L256.153 98.7621C255.978 99.3077 256.032 99.7673 256.075 100.379C256.156 101.509 257.746 102.425 258.374 102.425H263.07C263.927 102.425 264.024 100.613 263.245 100.613C260.474 100.613 259.777 98.1192 260.381 96.9113Z" stroke="#FCFAFA" stroke-width="0.357333"/>
</g>
</g>
</g>
<g id="fig-screen3">
<path id="Vector_55" d="M323.119 117.272L328.325 122.492L333.53 117.272" stroke="#FBF9FC" stroke-width="0.869925" stroke-linecap="round" stroke-linejoin="round"/>
<rect id="Rectangle 428_3" x="212.981" y="198.156" width="229.66" height="229.66" rx="4.34963" fill="#FEFBFF"/>
<text id="Alterbank rewards" fill="#211F21" xml:space="preserve" style="white-space: pre" font-family="Sora" font-size="10.4391" font-weight="bold" letter-spacing="0em"><tspan x="271.673" y="293.884">ALTERBANK REWARDS</tspan></text>
<text id="Acumule pontos que nunca expiram e troque por passagens a&#195;&#169;reas ou servi&#195;&#167;os que voc&#195;&#170; realmente usa." fill="#3C3B3D" xml:space="preserve" style="white-space: pre" font-family="Source Sans Pro" font-size="7.82933" letter-spacing="0em"><tspan x="250.548" y="316.772">Acumule pontos que nunca expiram e troque por&#10;</tspan><tspan x="249.603" y="327.772">passagens a&#xe9;reas ou servi&#xe7;os que voc&#xea; realmente&#10;</tspan><tspan x="323.389" y="338.772">usa.</tspan></text>
<circle id="Ellipse 16_2" cx="314.762" cy="442.605" r="2.60978" fill="#F05454"/>
<circle id="Ellipse 17_2" cx="328.681" cy="442.605" r="2.60978" fill="#F05454"/>
<circle id="Ellipse 18_2" cx="342.6" cy="442.605" r="2.60978" fill="#EDEAEF"/>
<text id="ative o seu rewards" fill="url(#paint4_linear_287_356)" xml:space="preserve" style="white-space: pre" font-family="Source Sans Pro" font-size="7.82933" font-weight="bold" letter-spacing="0em"><tspan x="288.665" y="400.432">ATIVE O SEU REWARDS</tspan></text>
<rect id="Rectangle 429_2" x="242.915" y="381.196" width="174.142" height="34.0844" rx="2.25348" stroke="url(#paint5_linear_287_356)" stroke-width="0.712598"/>
<g id="Group 32_3">
<path id="Vector_56" d="M336.133 232.998V241.699H322.251V232.998" stroke="#F05454" stroke-width="0.869925" stroke-linecap="round" stroke-linejoin="round"/>
<path id="Vector_57" d="M337.868 228.647H320.516V232.998H337.868V228.647Z" stroke="#F05454" stroke-width="0.869925" stroke-linecap="round" stroke-linejoin="round"/>
<path id="Vector_58" d="M329.192 241.699V228.647" stroke="#F05454" stroke-width="0.869925" stroke-linecap="round" stroke-linejoin="round"/>
<path id="Vector_59" d="M329.192 228.647H325.288C324.713 228.647 324.161 228.418 323.754 228.01C323.348 227.602 323.119 227.049 323.119 226.472C323.119 225.895 323.348 225.342 323.754 224.934C324.161 224.526 324.713 224.297 325.288 224.297C328.325 224.297 329.192 228.647 329.192 228.647Z" stroke="#F05454" stroke-width="0.869925" stroke-linecap="round" stroke-linejoin="round"/>
<path id="Vector_60" d="M329.192 228.647H333.097C333.672 228.647 334.224 228.418 334.63 228.01C335.037 227.602 335.266 227.049 335.266 226.472C335.266 225.895 335.037 225.342 334.63 224.934C334.224 224.526 333.672 224.297 333.097 224.297C330.06 224.297 329.192 228.647 329.192 228.647Z" stroke="#F05454" stroke-width="0.869925" stroke-linecap="round" stroke-linejoin="round"/>
</g>
<g id="component-menu_2" clip-path="url(#clip4_287_356)">
<rect id="Rectangle 426_3" x="204.441" y="495.902" width="72.394" height="79.1809" rx="2.1378" fill="#F05454"/>
<text id="Transferir_2" fill="#EDEAEF" xml:space="preserve" style="white-space: pre" font-family="Source Sans Pro" font-size="10.4414" letter-spacing="0em"><tspan x="212.273" y="566.282">Transferir</tspan></text>
<rect id="Rectangle 427_3" x="368.024" y="495.902" width="72.394" height="79.1809" rx="2.1378" fill="#F05454"/>
<text id="Cobrar_2" fill="#EDEAEF" xml:space="preserve" style="white-space: pre" font-family="Source Sans Pro" font-size="10.4414" letter-spacing="0em"><tspan x="375.713" y="566.387">Cobrar</tspan></text>
<rect id="Rectangle 428_4" x="286.233" y="495.902" width="72.394" height="79.1809" rx="2.1378" fill="#F05454"/>
<text id="Depositar_2" fill="#EDEAEF" xml:space="preserve" style="white-space: pre" font-family="Source Sans Pro" font-size="10.4414" letter-spacing="0em"><tspan x="294.064" y="566.282">Depositar </tspan></text>
<g id="Group 328_3">
<g id="Group 323_5">
<path id="Vector_61" d="M220.896 508.953V518.525" stroke="#EDEAEF" stroke-width="0.712598" stroke-linecap="round" stroke-linejoin="round"/>
<path id="Vector_62" d="M223.065 510.694H219.811C219.409 510.694 219.023 510.854 218.738 511.14C218.453 511.425 218.293 511.812 218.293 512.216C218.293 512.62 218.453 513.007 218.738 513.293C219.023 513.579 219.409 513.739 219.811 513.739H221.98C222.383 513.739 222.769 513.899 223.054 514.185C223.339 514.471 223.499 514.858 223.499 515.262C223.499 515.666 223.339 516.053 223.054 516.338C222.769 516.624 222.383 516.784 221.98 516.784H218.293" stroke="#EDEAEF" stroke-width="0.712598" stroke-linecap="round" stroke-linejoin="round"/>
</g>
<path id="Vector_63" d="M220.896 505.473C216.104 505.473 212.22 509.369 212.22 514.174C212.22 518.98 216.104 522.875 220.896 522.875C225.688 522.875 229.572 518.98 229.572 514.174C229.572 513.103 229.379 512.077 229.026 511.129" stroke="#EDEAEF" stroke-width="0.712598" stroke-linecap="round" stroke-linejoin="round"/>
<g id="Group 324_3">
<path id="Vector_64" d="M230.44 506.343L226.969 502.863L223.499 506.343" stroke="#EDEAEF" stroke-width="0.712598" stroke-linecap="round" stroke-linejoin="round"/>
<path id="Vector_65" d="M226.969 509.824V502.863" stroke="#EDEAEF" stroke-width="0.712598" stroke-linecap="round" stroke-linejoin="round"/>
</g>
</g>
<g id="Group 329_3">
<g id="Group 325_3">
<path id="Vector_66" d="M302.452 508.953V518.525" stroke="#EDEAEF" stroke-width="0.712598" stroke-linecap="round" stroke-linejoin="round"/>
<path id="Vector_67" d="M304.621 510.694H301.367C300.964 510.694 300.578 510.854 300.293 511.14C300.009 511.425 299.849 511.812 299.849 512.216C299.849 512.62 300.009 513.007 300.293 513.293C300.578 513.579 300.964 513.739 301.367 513.739H303.536C303.939 513.739 304.325 513.899 304.61 514.185C304.894 514.471 305.054 514.858 305.054 515.262C305.054 515.666 304.894 516.053 304.61 516.338C304.325 516.624 303.939 516.784 303.536 516.784H299.849" stroke="#EDEAEF" stroke-width="0.712598" stroke-linecap="round" stroke-linejoin="round"/>
</g>
<path id="Vector_68" d="M302.451 505.473C297.66 505.473 293.775 509.369 293.775 514.174C293.775 518.98 297.66 522.875 302.451 522.875C307.243 522.875 311.127 518.98 311.127 514.174C311.127 513.103 310.934 512.077 310.581 511.129" stroke="#EDEAEF" stroke-width="0.712598" stroke-linecap="round" stroke-linejoin="round"/>
<g id="Group 327_3">
<path id="Vector_69" d="M305.054 506.343L308.525 509.823L311.995 506.343" stroke="#EDEAEF" stroke-width="0.712598" stroke-linecap="round" stroke-linejoin="round"/>
<path id="Vector_70" d="M308.525 502.863V509.823" stroke="#EDEAEF" stroke-width="0.712598" stroke-linecap="round" stroke-linejoin="round"/>
</g>
</g>
<g id="Group 330_3">
<g id="Group 326_3">
<path id="Vector_71" d="M384.204 508.083V515.189" stroke="#EDEAEF" stroke-width="0.712598" stroke-linecap="round" stroke-linejoin="round"/>
<path id="Vector_72" d="M385.815 509.375H383.399C383.1 509.375 382.813 509.494 382.602 509.706C382.391 509.918 382.272 510.206 382.272 510.506C382.272 510.806 382.391 511.093 382.602 511.305C382.813 511.517 383.1 511.636 383.399 511.636H385.009C385.308 511.636 385.595 511.755 385.806 511.967C386.018 512.179 386.137 512.467 386.137 512.767C386.137 513.067 386.018 513.354 385.806 513.566C385.595 513.778 385.308 513.897 385.009 513.897H382.272" stroke="#EDEAEF" stroke-width="0.712598" stroke-linecap="round" stroke-linejoin="round"/>
</g>
<path id="Vector_73" d="M391.815 515.914C391.815 516.376 391.633 516.819 391.307 517.145C390.982 517.471 390.54 517.655 390.08 517.655H379.669L376.198 521.135V507.213C376.198 506.752 376.381 506.309 376.707 505.983C377.032 505.656 377.473 505.473 377.934 505.473H390.08C390.54 505.473 390.982 505.656 391.307 505.983C391.633 506.309 391.815 506.752 391.815 507.213V515.914Z" stroke="#EDEAEF" stroke-width="0.712598" stroke-linecap="round" stroke-linejoin="round"/>
</g>
<rect id="Rectangle 429_3" x="449.815" y="495.902" width="14.792" height="79.1809" rx="2.1378" fill="#F05454"/>
</g>
<g id="header_3" clip-path="url(#clip5_287_356)">
<g id="Group 322_4">
<g id="Group 32_4">
<rect id="Rectangle 421_3" x="409.584" y="48.0125" width="2.26835" height="2.91645" rx="0.869925" fill="white"/>
<rect id="Rectangle 422_3" x="412.825" y="46.7161" width="2.26835" height="4.21265" rx="0.869925" fill="white"/>
<rect id="Rectangle 423_3" x="416.065" y="45.0959" width="2.26835" height="5.8329" rx="0.869925" fill="white"/>
<rect id="Rectangle 424_3" x="419.306" y="43.4756" width="2.26835" height="7.45314" rx="0.869925" fill="white"/>
</g>
<g id="Group 34_3">
<path id="Vector 36_4" d="M453.08 49.0779V46.5725C453.776 46.9901 453.916 47.4076 453.916 47.8252C453.916 48.2428 453.776 48.6603 453.08 49.0779Z" fill="white" fill-opacity="0.5"/>
<rect id="Rectangle 413_3" x="439.44" y="44.6238" width="12.8053" height="6.40265" rx="1.39188" stroke="white" stroke-opacity="0.5" stroke-width="0.556752"/>
<rect id="Rectangle 414_3" x="440.275" y="45.459" width="11.135" height="4.73239" rx="0.835128" fill="#FBF9FC"/>
</g>
<g id="Group 33_3">
<path id="Subtract_6" fill-rule="evenodd" clip-rule="evenodd" d="M435.034 45.6812L433.99 46.7253C432.981 45.7885 431.63 45.2157 430.144 45.2157C428.653 45.2157 427.296 45.7931 426.286 46.7365L425.243 45.6935C426.438 44.3338 428.191 43.4757 430.144 43.4757C432.091 43.4757 433.839 44.3286 435.034 45.6812Z" fill="white"/>
<path id="Subtract_7" fill-rule="evenodd" clip-rule="evenodd" d="M434.264 49.2933C434.264 49.2931 434.264 49.2929 434.263 49.2927L434.263 49.2933L434.264 49.2933ZM428.073 48.7643L427.152 47.76C427.982 46.9426 429.137 46.459 430.393 46.5134C431.538 46.563 432.561 47.0516 433.306 47.8098L432.288 48.744C431.761 48.2849 431.082 47.9946 430.33 47.962C429.468 47.9247 428.671 48.2331 428.073 48.7643Z" fill="white"/>
<path id="Vector 37_4" d="M430.144 50.8702L428.839 49.5653C429.255 49.1704 429.564 48.9854 430.144 48.9854C430.724 48.9854 431.03 49.1335 431.449 49.5653L430.144 50.8702Z" fill="white"/>
</g>
<text id="22:31_3" fill="white" xml:space="preserve" style="white-space: pre" font-family="Cairo" font-size="11.309" font-weight="bold" letter-spacing="0em"><tspan x="214.721" y="51.2651">22:31</tspan></text>
</g>
<g id="Group 323_6">
<text id="Lukas Bruno_3" fill="#FBF9FC" xml:space="preserve" style="white-space: pre" font-family="Sora" font-size="12.8268" font-weight="bold" letter-spacing="0em"><tspan x="289.041" y="99.1575">Lukas Bruno</tspan></text>
</g>
<g id="Vector 215_3" filter="url(#filter6_d_287_356)">
<path d="M258.907 97.7205C260.788 94.6903 261.949 93.0016 264.211 90.0082C266.462 93.0463 267.509 94.6591 269.475 97.7205C271.002 100.098 267.824 101.412 266.93 101.412C266.153 101.412 266.114 103.218 266.93 103.218H271.418C272.545 103.218 273.743 101.955 273.788 101.256C273.83 100.596 273.827 99.974 273.671 99.5855L267.727 87.6771C265.901 83.9472 262.715 83.5587 260.714 87.6771L254.692 99.566C254.517 100.11 254.571 100.568 254.614 101.178C254.694 102.305 256.28 103.218 256.906 103.218H261.588C262.443 103.218 262.54 101.412 261.763 101.412C259 101.412 258.305 98.9249 258.907 97.7205Z" stroke="#FCFAFA" stroke-width="0.356299"/>
</g>
</g>
</g>
<g id="Group 604">
<g id="Rectangle 1060" filter="url(#filter7_i_287_356)">
<rect width="297.375" height="188.64" rx="10.2969" transform="matrix(0.0291007 -1.0022 0.936477 -0.343162 391.793 515.183)" fill="url(#paint6_linear_287_356)"/>
</g>
<text id="Lukas Bruno_4" transform="matrix(-0.0224754 0.999747 -0.936659 0.350242 442.925 275.015)" fill="#FCFAFA" xml:space="preserve" style="white-space: pre" font-family="Montserrat" font-size="9.88506" font-weight="600" letter-spacing="0.1em"><tspan x="0" y="10.5438">LUKAS BRUNO</tspan></text>
<rect id="Rectangle 1061" x="-0.36986" y="0.515335" width="34.9849" height="24.7703" rx="2.17059" transform="matrix(-0.0291007 1.0022 -0.936477 0.343162 531.949 200.389)" fill="url(#paint7_linear_287_356)" stroke="#211F21" stroke-width="0.766092"/>
<rect id="Rectangle 1062" x="-0.36986" y="0.515335" width="34.9849" height="24.7703" rx="2.17059" transform="matrix(-0.0291007 1.0022 -0.936477 0.343162 531.949 200.389)" fill="url(#paint8_linear_287_356)" stroke="#211F21" stroke-width="0.766092"/>
<path id="Vector 233" d="M523.94 203.084L523.635 213.577" stroke="#211F21" stroke-width="0.714453" stroke-linecap="round"/>
<path id="Vector 234" d="M515.814 230.368L515.517 240.605" stroke="#211F21" stroke-width="0.714453" stroke-linecap="round"/>
<path id="Vector 235" d="M522.993 227.586L522.691 237.977" stroke="#211F21" stroke-width="0.714453" stroke-linecap="round"/>
<ellipse id="Ellipse 185" rx="0.766092" ry="0.766092" transform="matrix(-0.0291007 1.0022 -0.936477 0.343162 527.501 218.997)" fill="url(#paint9_linear_287_356)"/>
<g id="Vector 236">
<path d="M512.711 264.48C517.097 264.707 519.592 263.987 524.148 260.204C524.631 259.803 525.025 259.876 525.099 260.102C525.173 260.327 525.084 260.752 524.6 261.174C519.688 265.461 516.968 266.329 512.159 265.953C511.687 265.876 511.637 265.421 511.824 265.065C512.042 264.65 512.341 264.461 512.711 264.48Z" fill="url(#paint10_linear_287_356)"/>
<path d="M523.849 257.658C523.735 257.447 523.285 257.453 522.776 257.932C519.389 260.902 517.476 261.547 514.045 261.197C513.7 261.148 513.311 261.404 513.202 261.765C513.074 262.193 513.321 262.432 513.661 262.48C517.303 262.993 519.42 262.251 523.348 258.858C523.71 258.544 524.02 257.973 523.849 257.658Z" fill="url(#paint11_linear_287_356)"/>
<path d="M522.352 255.686C522.241 255.348 521.845 255.428 521.401 255.788C519.089 257.661 517.803 258.301 515.541 257.98C515.147 257.899 514.726 257.982 514.581 258.465C514.436 258.948 514.642 259.18 514.92 259.224C517.688 259.685 519.267 258.759 522.095 256.541C522.337 256.352 522.463 256.024 522.352 255.686Z" fill="url(#paint12_linear_287_356)"/>
<path d="M521.455 253.363C521.225 253.07 520.863 253.151 520.262 253.683C518.987 254.8 518.28 255.05 517.033 254.89C516.484 254.804 515.846 254.954 515.715 255.51C515.584 256.065 515.748 256.228 516.409 256.262C518.15 256.258 519.142 255.95 520.954 254.563C521.423 254.224 521.683 253.784 521.455 253.363Z" fill="url(#paint13_linear_287_356)"/>
</g>
<path id="Vector 237" d="M525.902 225.153C529.055 223.026 530.647 220.629 530.732 217.686C530.837 214.103 528.317 214.024 523.755 213.532C520.653 216.055 519.003 216.673 516.222 216.293C510.006 220.84 508.063 223.233 508.01 226.139C507.899 229.977 510.907 229.956 515.817 230.241C518.651 228.106 520.201 227.421 522.973 227.425" stroke="#211F21" stroke-width="0.714453" stroke-linecap="round"/>
<path id="Vector 238" d="M432.297 242.617C436.26 243.777 438.464 244.584 442.365 246.302C438.261 251 436.087 253.283 431.961 257.588C428.756 260.932 427.114 257.081 427.143 255.815C427.168 254.714 424.771 255.556 424.745 256.712L424.602 263.069C424.566 264.665 426.204 265.737 427.131 265.453C428.006 265.185 428.831 264.872 429.352 264.459L445.347 250.127C450.356 245.688 450.973 240.982 445.571 240.191L429.982 237.56C429.266 237.583 428.656 237.886 427.844 238.251C426.346 238.923 425.084 241.624 425.064 242.51L424.915 249.143C424.888 250.354 427.283 249.595 427.307 248.494C427.395 244.58 430.718 242.361 432.297 242.617Z" fill="#FCFAFA"/>
<g id="Group 375">
<circle id="Ellipse 177" r="15.3746" transform="matrix(-0.0224755 0.999747 -0.936659 0.350241 546.524 408.718)" fill="#E71924"/>
<circle id="Ellipse 178" r="15.3746" transform="matrix(-0.0224754 0.999747 -0.936659 0.350241 546.103 427.451)" fill="#F99F19"/>
<path id="Intersect" fill-rule="evenodd" clip-rule="evenodd" d="M534.951 422.333C537.502 425 541.585 425.806 546.236 424.067C550.886 422.328 555.075 418.429 557.79 413.794C555.239 411.126 551.156 410.32 546.505 412.059C541.855 413.798 537.666 417.697 534.951 422.333Z" fill="#F26520"/>
</g>
</g>
</g>
<rect x="0.5" y="0.5" width="650" height="998" stroke="white"/>
</g>
<defs>
<filter id="filter0_d_287_356" x="469.89" y="134.733" width="12.068" height="75.4662" filterUnits="userSpaceOnUse" color-interpolation-filters="sRGB">
<feFlood flood-opacity="0" result="BackgroundImageFix"/>
<feColorMatrix in="SourceAlpha" type="matrix" values="0 0 0 0 0 0 0 0 0 0 0 0 0 0 0 0 0 0 127 0" result="hardAlpha"/>
<feOffset dx="-1.81691"/>
<feGaussianBlur stdDeviation="2.27114"/>
<feColorMatrix type="matrix" values="0 0 0 0 0 0 0 0 0 0 0 0 0 0 0 0 0 0 0.12 0"/>
<feBlend mode="normal" in2="BackgroundImageFix" result="effect1_dropShadow_287_356"/>
<feBlend mode="normal" in="SourceGraphic" in2="effect1_dropShadow_287_356" result="shape"/>
</filter>
<filter id="filter1_dddd_287_356" x="107.416" y="-13.3452" width="443.326" height="768.554" filterUnits="userSpaceOnUse" color-interpolation-filters="sRGB">
<feFlood flood-opacity="0" result="BackgroundImageFix"/>
<feColorMatrix in="SourceAlpha" type="matrix" values="0 0 0 0 0 0 0 0 0 0 0 0 0 0 0 0 0 0 127 0" result="hardAlpha"/>
<feOffset dy="2.09825"/>
<feGaussianBlur stdDeviation="1.64569"/>
<feColorMatrix type="matrix" values="0 0 0 0 0.662745 0 0 0 0 0.313726 0 0 0 0 0.768627 0 0 0 0.0278729 0"/>
<feBlend mode="normal" in2="BackgroundImageFix" result="effect1_dropShadow_287_356"/>
<feColorMatrix in="SourceAlpha" type="matrix" values="0 0 0 0 0 0 0 0 0 0 0 0 0 0 0 0 0 0 127 0" result="hardAlpha"/>
<feOffset dy="5.80139"/>
<feGaussianBlur stdDeviation="4.55011"/>
<feColorMatrix type="matrix" values="0 0 0 0 0.662745 0 0 0 0 0.313726 0 0 0 0 0.768627 0 0 0 0.04 0"/>
<feBlend mode="normal" in2="effect1_dropShadow_287_356" result="effect2_dropShadow_287_356"/>
<feColorMatrix in="SourceAlpha" type="matrix" values="0 0 0 0 0 0 0 0 0 0 0 0 0 0 0 0 0 0 127 0" result="hardAlpha"/>
<feOffset dy="13.9675"/>
<feGaussianBlur stdDeviation="10.9549"/>
<feColorMatrix type="matrix" values="0 0 0 0 0.662745 0 0 0 0 0.313726 0 0 0 0 0.768627 0 0 0 0.0521271 0"/>
<feBlend mode="normal" in2="effect2_dropShadow_287_356" result="effect3_dropShadow_287_356"/>
<feColorMatrix in="SourceAlpha" type="matrix" values="0 0 0 0 0 0 0 0 0 0 0 0 0 0 0 0 0 0 127 0" result="hardAlpha"/>
<feOffset dy="46.3313"/>
<feGaussianBlur stdDeviation="36.3382"/>
<feColorMatrix type="matrix" values="0 0 0 0 0.662745 0 0 0 0 0.313726 0 0 0 0 0.768627 0 0 0 0.08 0"/>
<feBlend mode="normal" in2="effect3_dropShadow_287_356" result="effect4_dropShadow_287_356"/>
<feBlend mode="normal" in="SourceGraphic" in2="effect4_dropShadow_287_356" result="shape"/>
</filter>
<filter id="filter2_ddddd_287_356" x="40.6375" y="116" width="161.564" height="169.154" filterUnits="userSpaceOnUse" color-interpolation-filters="sRGB">
<feFlood flood-opacity="0" result="BackgroundImageFix"/>
<feColorMatrix in="SourceAlpha" type="matrix" values="0 0 0 0 0 0 0 0 0 0 0 0 0 0 0 0 0 0 127 0" result="hardAlpha"/>
<feOffset dy="2.51393"/>
<feGaussianBlur stdDeviation="1.00557"/>
<feColorMatrix type="matrix" values="0 0 0 0 0.933333 0 0 0 0 0.439216 0 0 0 0 0.439216 0 0 0 0.0196802 0"/>
<feBlend mode="normal" in2="BackgroundImageFix" result="effect1_dropShadow_287_356"/>
<feColorMatrix in="SourceAlpha" type="matrix" values="0 0 0 0 0 0 0 0 0 0 0 0 0 0 0 0 0 0 127 0" result="hardAlpha"/>
<feOffset dy="6.04132"/>
<feGaussianBlur stdDeviation="2.41653"/>
<feColorMatrix type="matrix" values="0 0 0 0 0.933333 0 0 0 0 0.439216 0 0 0 0 0.439216 0 0 0 0.0282725 0"/>
<feBlend mode="normal" in2="effect1_dropShadow_287_356" result="effect2_dropShadow_287_356"/>
<feColorMatrix in="SourceAlpha" type="matrix" values="0 0 0 0 0 0 0 0 0 0 0 0 0 0 0 0 0 0 127 0" result="hardAlpha"/>
<feOffset dy="11.3753"/>
<feGaussianBlur stdDeviation="4.55011"/>
<feColorMatrix type="matrix" values="0 0 0 0 0.933333 0 0 0 0 0.439216 0 0 0 0 0.439216 0 0 0 0.035 0"/>
<feBlend mode="normal" in2="effect2_dropShadow_287_356" result="effect3_dropShadow_287_356"/>
<feColorMatrix in="SourceAlpha" type="matrix" values="0 0 0 0 0 0 0 0 0 0 0 0 0 0 0 0 0 0 127 0" result="hardAlpha"/>
<feOffset dy="20.2916"/>
<feGaussianBlur stdDeviation="8.11662"/>
<feColorMatrix type="matrix" values="0 0 0 0 0.933333 0 0 0 0 0.439216 0 0 0 0 0.439216 0 0 0 0.0417275 0"/>
<feBlend mode="normal" in2="effect3_dropShadow_287_356" result="effect4_dropShadow_287_356"/>
<feColorMatrix in="SourceAlpha" type="matrix" values="0 0 0 0 0 0 0 0 0 0 0 0 0 0 0 0 0 0 127 0" result="hardAlpha"/>
<feOffset dy="37.9531"/>
<feGaussianBlur stdDeviation="15.1812"/>
<feColorMatrix type="matrix" values="0 0 0 0 0.933333 0 0 0 0 0.439216 0 0 0 0 0.439216 0 0 0 0.0503198 0"/>
<feBlend mode="normal" in2="effect4_dropShadow_287_356" result="effect5_dropShadow_287_356"/>
<feBlend mode="normal" in="SourceGraphic" in2="effect5_dropShadow_287_356" result="shape"/>
</filter>
<filter id="filter3_d_287_356" x="249.497" y="82.1441" width="31.9546" height="31.2112" filterUnits="userSpaceOnUse" color-interpolation-filters="sRGB">
<feFlood flood-opacity="0" result="BackgroundImageFix"/>
<feColorMatrix in="SourceAlpha" type="matrix" values="0 0 0 0 0 0 0 0 0 0 0 0 0 0 0 0 0 0 127 0" result="hardAlpha"/>
<feOffset dy="4.67036"/>
<feGaussianBlur stdDeviation="3.16034"/>
<feColorMatrix type="matrix" values="0 0 0 0 0 0 0 0 0 0 0 0 0 0 0 0 0 0 0.125207 0"/>
<feBlend mode="normal" in2="BackgroundImageFix" result="effect1_dropShadow_287_356"/>
<feBlend mode="normal" in="SourceGraphic" in2="effect1_dropShadow_287_356" result="shape"/>
</filter>
<filter id="filter4_ddd_287_356" x="188.978" y="138.047" width="281.512" height="112.508" filterUnits="userSpaceOnUse" color-interpolation-filters="sRGB">
<feFlood flood-opacity="0" result="BackgroundImageFix"/>
<feColorMatrix in="SourceAlpha" type="matrix" values="0 0 0 0 0 0 0 0 0 0 0 0 0 0 0 0 0 0 127 0" result="hardAlpha"/>
<feOffset dy="1.94344"/>
<feGaussianBlur stdDeviation="0.777376"/>
<feColorMatrix type="matrix" values="0 0 0 0 0.933333 0 0 0 0 0.439216 0 0 0 0 0.439216 0 0 0 0.0196802 0"/>
<feBlend mode="normal" in2="BackgroundImageFix" result="effect1_dropShadow_287_356"/>
<feColorMatrix in="SourceAlpha" type="matrix" values="0 0 0 0 0 0 0 0 0 0 0 0 0 0 0 0 0 0 127 0" result="hardAlpha"/>
<feOffset dy="4.67036"/>
<feGaussianBlur stdDeviation="1.86814"/>
<feColorMatrix type="matrix" values="0 0 0 0 0.933333 0 0 0 0 0.439216 0 0 0 0 0.439216 0 0 0 0.0282725 0"/>
<feBlend mode="normal" in2="effect1_dropShadow_287_356" result="effect2_dropShadow_287_356"/>
<feColorMatrix in="SourceAlpha" type="matrix" values="0 0 0 0 0 0 0 0 0 0 0 0 0 0 0 0 0 0 127 0" result="hardAlpha"/>
<feOffset dy="29.3403"/>
<feGaussianBlur stdDeviation="11.7361"/>
<feColorMatrix type="matrix" values="0 0 0 0 0.933333 0 0 0 0 0.439216 0 0 0 0 0.439216 0 0 0 0.0503198 0"/>
<feBlend mode="normal" in2="effect2_dropShadow_287_356" result="effect3_dropShadow_287_356"/>
<feBlend mode="normal" in="SourceGraphic" in2="effect3_dropShadow_287_356" result="shape"/>
</filter>
<filter id="filter5_d_287_356" x="249.421" y="82.0271" width="32.5174" height="31.761" filterUnits="userSpaceOnUse" color-interpolation-filters="sRGB">
<feFlood flood-opacity="0" result="BackgroundImageFix"/>
<feColorMatrix in="SourceAlpha" type="matrix" values="0 0 0 0 0 0 0 0 0 0 0 0 0 0 0 0 0 0 127 0" result="hardAlpha"/>
<feOffset dy="4.75261"/>
<feGaussianBlur stdDeviation="3.216"/>
<feColorMatrix type="matrix" values="0 0 0 0 0 0 0 0 0 0 0 0 0 0 0 0 0 0 0.125207 0"/>
<feBlend mode="normal" in2="BackgroundImageFix" result="effect1_dropShadow_287_356"/>
<feBlend mode="normal" in="SourceGraphic" in2="effect1_dropShadow_287_356" result="shape"/>
</filter>
<filter id="filter6_d_287_356" x="247.979" y="82.8794" width="32.4233" height="31.6691" filterUnits="userSpaceOnUse" color-interpolation-filters="sRGB">
<feFlood flood-opacity="0" result="BackgroundImageFix"/>
<feColorMatrix in="SourceAlpha" type="matrix" values="0 0 0 0 0 0 0 0 0 0 0 0 0 0 0 0 0 0 127 0" result="hardAlpha"/>
<feOffset dy="4.73885"/>
<feGaussianBlur stdDeviation="3.20669"/>
<feColorMatrix type="matrix" values="0 0 0 0 0 0 0 0 0 0 0 0 0 0 0 0 0 0 0.125207 0"/>
<feBlend mode="normal" in2="BackgroundImageFix" result="effect1_dropShadow_287_356"/>
<feBlend mode="normal" in="SourceGraphic" in2="effect1_dropShadow_287_356" result="shape"/>
</filter>
<filter id="filter7_i_287_356" x="392.169" y="155.398" width="185.794" height="362.574" filterUnits="userSpaceOnUse" color-interpolation-filters="sRGB">
<feFlood flood-opacity="0" result="BackgroundImageFix"/>
<feBlend mode="normal" in="SourceGraphic" in2="BackgroundImageFix" result="shape"/>
<feColorMatrix in="SourceAlpha" type="matrix" values="0 0 0 0 0 0 0 0 0 0 0 0 0 0 0 0 0 0 127 0" result="hardAlpha"/>
<feOffset dx="1.23563" dy="5.76628"/>
<feGaussianBlur stdDeviation="8.64942"/>
<feComposite in2="hardAlpha" operator="arithmetic" k2="-1" k3="1"/>
<feColorMatrix type="matrix" values="0 0 0 0 0.408333 0 0 0 0 0.408333 0 0 0 0 0.408333 0 0 0 0.25 0"/>
<feBlend mode="normal" in2="shape" result="effect1_innerShadow_287_356"/>
</filter>
<linearGradient id="paint0_linear_287_356" x1="189.177" y1="325.055" x2="468.981" y2="325.055" gradientUnits="userSpaceOnUse">
<stop stop-color="#AA0811"/>
<stop offset="1" stop-color="#E63147"/>
</linearGradient>
<linearGradient id="paint1_linear_287_356" x1="52" y1="458.598" x2="152.839" y2="458.598" gradientUnits="userSpaceOnUse">
<stop stop-color="#AA0811"/>
<stop offset="1" stop-color="#E63147"/>
</linearGradient>
<linearGradient id="paint2_linear_287_356" x1="333.218" y1="707.061" x2="333.242" y2="938.309" gradientUnits="userSpaceOnUse">
<stop stop-color="#AA0811"/>
<stop offset="1" stop-color="#E63147" stop-opacity="0"/>
</linearGradient>
<linearGradient id="paint3_linear_287_356" x1="71" y1="166.419" x2="171.839" y2="166.419" gradientUnits="userSpaceOnUse">
<stop stop-color="#AA0811"/>
<stop offset="1" stop-color="#E63147"/>
</linearGradient>
<linearGradient id="paint4_linear_287_356" x1="288.665" y1="397.804" x2="367.828" y2="397.804" gradientUnits="userSpaceOnUse">
<stop stop-color="#AA0811"/>
<stop offset="1" stop-color="#E63147"/>
</linearGradient>
<linearGradient id="paint5_linear_287_356" x1="242.559" y1="398.239" x2="417.413" y2="398.239" gradientUnits="userSpaceOnUse">
<stop stop-color="#AA0811"/>
<stop offset="1" stop-color="#E63147"/>
</linearGradient>
<linearGradient id="paint6_linear_287_356" x1="5.53905e-07" y1="94.3199" x2="297.375" y2="94.3199" gradientUnits="userSpaceOnUse">
<stop stop-color="#AA0811"/>
<stop offset="1" stop-color="#E63147"/>
</linearGradient>
<linearGradient id="paint7_linear_287_356" x1="18.8477" y1="25.5941" x2="30.1254" y2="2.14995" gradientUnits="userSpaceOnUse">
<stop stop-color="#F6F3F7"/>
<stop offset="1" stop-color="#D6D6D6"/>
</linearGradient>
<linearGradient id="paint8_linear_287_356" x1="18.8477" y1="25.5941" x2="30.1254" y2="2.14995" gradientUnits="userSpaceOnUse">
<stop stop-color="#F6F3F7"/>
<stop offset="1" stop-color="#D6D6D6"/>
</linearGradient>
<linearGradient id="paint9_linear_287_356" x1="0.807757" y1="1.53564" x2="1.61031" y2="0.343979" gradientUnits="userSpaceOnUse">
<stop stop-color="#0D0D0D"/>
<stop offset="1" stop-color="#D6D6D6"/>
</linearGradient>
<linearGradient id="paint10_linear_287_356" x1="511.759" y1="262.503" x2="519.993" y2="267.728" gradientUnits="userSpaceOnUse">
<stop stop-color="#F6F3F7"/>
<stop offset="1" stop-color="#D6D6D6"/>
</linearGradient>
<linearGradient id="paint11_linear_287_356" x1="511.759" y1="262.503" x2="519.993" y2="267.728" gradientUnits="userSpaceOnUse">
<stop stop-color="#F6F3F7"/>
<stop offset="1" stop-color="#D6D6D6"/>
</linearGradient>
<linearGradient id="paint12_linear_287_356" x1="511.759" y1="262.503" x2="519.993" y2="267.728" gradientUnits="userSpaceOnUse">
<stop stop-color="#F6F3F7"/>
<stop offset="1" stop-color="#D6D6D6"/>
</linearGradient>
<linearGradient id="paint13_linear_287_356" x1="511.759" y1="262.503" x2="519.993" y2="267.728" gradientUnits="userSpaceOnUse">
<stop stop-color="#F6F3F7"/>
<stop offset="1" stop-color="#D6D6D6"/>
</linearGradient>
<clipPath id="clip0_287_356">
<rect width="651" height="999" fill="white"/>
</clipPath>
<clipPath id="clip1_287_356">
<rect width="263.362" height="80.7643" fill="white" transform="translate(197 32)"/>
</clipPath>
<clipPath id="clip2_287_356">
<rect width="268" height="79.328" fill="white" transform="translate(189 498.248)"/>
</clipPath>
<clipPath id="clip3_287_356">
<rect width="268" height="82.1867" fill="white" transform="translate(196 31)"/>
</clipPath>
<clipPath id="clip4_287_356">
<rect width="267.224" height="79.0984" fill="white" transform="translate(194 495.902)"/>
</clipPath>
<clipPath id="clip5_287_356">
<rect width="267.224" height="81.9488" fill="white" transform="translate(194.713 32)"/>
</clipPath>
</defs>
</svg>
