<svg width="46" height="45" viewBox="0 0 46 45" fill="none" xmlns="http://www.w3.org/2000/svg">
<g id="Group 540">
<path id="Vector 477" d="M10.9726 30.8694C15.2971 23.9007 17.9681 20.0173 23.1688 13.1334C28.3465 20.12 30.7536 23.8289 35.2758 30.8694C38.7879 36.3372 31.4784 39.3577 29.4233 39.3577C27.6363 39.3577 27.547 43.5124 29.4233 43.5124H39.7433C42.3344 43.5124 45.0907 40.6086 45.1936 39.0003C45.2908 37.4813 45.283 36.0517 44.9256 35.1582L31.255 7.77241C27.0556 -0.805199 19.7289 -1.6987 15.1273 7.77241L1.27808 35.1135C0.876009 36.3644 0.999706 37.4183 1.09939 38.8216C1.28346 41.4127 4.9314 43.5124 6.37104 43.5124H17.1377C19.1034 43.5124 19.3268 39.3577 17.5398 39.3577C11.1855 39.3577 9.58764 33.6392 10.9726 30.8694Z" stroke="url(#paint0_linear_119_484)" stroke-width="1.5"/>
</g>
<defs>
<linearGradient id="paint0_linear_119_484" x1="1" y1="22.2562" x2="45.2467" y2="22.2562" gradientUnits="userSpaceOnUse">
<stop stop-color="#AA0811"/>
<stop offset="1" stop-color="#E63147"/>
</linearGradient>
</defs>
</svg>
