<svg width="526" height="954" viewBox="0 0 526 954" fill="none" xmlns="http://www.w3.org/2000/svg">
<g id="Group 606">
<g id="Group 341">
<g id="Group 340">
<g id="Rectangle 4.3" filter="url(#filter0_d_288_1082)">
<path d="M424.249 154.021C424.249 153.61 424.583 153.276 424.995 153.276V153.276C426.23 153.276 427.232 154.277 427.232 155.513V217.42C427.232 218.655 426.23 219.657 424.995 219.657V219.657C424.583 219.657 424.249 219.323 424.249 218.911V154.021Z" fill="white"/>
</g>
<path id="Rectangle 1005" d="M126.275 107.853C126.275 106.348 127.496 105.127 129.001 105.127H129.096C129.598 105.127 130.005 105.534 130.005 106.036V127.341C130.005 127.842 129.598 128.249 129.096 128.249H129.001C127.496 128.249 126.275 127.029 126.275 125.524V107.853Z" fill="white"/>
<path id="Rectangle 4.1" d="M126.275 147.337C126.275 146.101 127.277 145.1 128.513 145.1H129.259C129.671 145.1 130.005 145.434 130.005 145.845V184.63C130.005 185.042 129.671 185.376 129.259 185.376H128.513C127.277 185.376 126.275 184.374 126.275 183.138V147.337Z" fill="white"/>
<path id="Rectangle 4.1_2" d="M126.275 201.845C126.275 200.609 127.277 199.607 128.513 199.607H129.259C129.671 199.607 130.005 199.941 130.005 200.353V239.138C130.005 239.55 129.671 239.884 129.259 239.884H128.513C127.277 239.884 126.275 238.882 126.275 237.646V201.845Z" fill="white"/>
<g id="Rectangle 1006" filter="url(#filter1_dddd_288_1082)">
<rect x="128.092" y="27" width="297.974" height="623.201" rx="43.6059" fill="white"/>
</g>
<rect id="Rectangle 1007" x="259.818" y="43.3523" width="32.7044" height="3.63382" rx="1.81691" fill="#C4C4C4"/>
<circle id="Ellipse 176" cx="307.966" cy="45.1692" r="3.63382" fill="#C4C4C4"/>
<path id="Subtract" fill-rule="evenodd" clip-rule="evenodd" d="M198.952 43.3524C198.952 43.0474 198.961 42.7444 198.978 42.4437H198.952C198.952 38.9494 196.133 36.1133 192.646 36.0847H171.698C152.632 36.0847 137.177 51.5405 137.177 70.6061V607.503C137.177 626.569 152.632 642.025 171.698 642.025H382.46C401.525 642.025 416.981 626.569 416.981 607.503V70.606C416.981 51.5404 401.526 36.0847 382.46 36.0847H362.416C358.931 36.1156 356.115 38.9508 356.115 42.4437H356.088C356.106 42.7443 356.115 43.0474 356.115 43.3524C356.115 51.8818 349.2 58.7962 340.671 58.7962H214.396C205.866 58.7962 198.952 51.8818 198.952 43.3524Z" fill="url(#paint0_linear_288_1082)"/>
</g>
</g>
<path id="Vector 238" d="M264.155 348.832C268.793 341.358 271.657 337.193 277.235 329.81C282.788 337.303 285.369 341.281 290.219 348.832C293.986 354.696 286.147 357.935 283.943 357.935C282.026 357.935 281.93 362.391 283.943 362.391H295.011C297.789 362.391 300.746 359.277 300.856 357.552C300.96 355.923 300.952 354.39 300.568 353.432L285.907 324.061C281.403 314.862 273.546 313.903 268.61 324.061L253.757 353.384C253.326 354.725 253.459 355.855 253.566 357.36C253.763 360.139 257.676 362.391 259.22 362.391H270.767C272.875 362.391 273.114 357.935 271.198 357.935C264.383 357.935 262.669 351.802 264.155 348.832Z" fill="#FCFAFA"/>
<g id="Group 555">
<g id="cardbank" filter="url(#filter2_i_288_1082)">
<rect width="297.375" height="188.64" rx="10.2969" transform="matrix(0.0291007 -1.0022 0.936477 -0.343162 339.793 529.183)" fill="url(#paint1_linear_288_1082)"/>
</g>
<text id="Lukas Bruno" transform="matrix(-0.0224754 0.999747 -0.936659 0.350242 390.925 289.015)" fill="#FCFAFA" xml:space="preserve" style="white-space: pre" font-family="Montserrat" font-size="9.88506" font-weight="600" letter-spacing="0.1em"><tspan x="0" y="10.5438">LUKAS BRUNO</tspan></text>
<rect id="Rectangle 1061" x="-0.36986" y="0.515335" width="34.9849" height="24.7703" rx="2.17059" transform="matrix(-0.0291007 1.0022 -0.936477 0.343162 479.949 214.389)" fill="url(#paint2_linear_288_1082)" stroke="#211F21" stroke-width="0.766092"/>
<rect id="Rectangle 1062" x="-0.36986" y="0.515335" width="34.9849" height="24.7703" rx="2.17059" transform="matrix(-0.0291007 1.0022 -0.936477 0.343162 479.949 214.389)" fill="url(#paint3_linear_288_1082)" stroke="#211F21" stroke-width="0.766092"/>
<path id="Vector 233" d="M471.94 217.084L471.635 227.577" stroke="#211F21" stroke-width="0.714453" stroke-linecap="round"/>
<path id="Vector 234" d="M463.814 244.368L463.517 254.605" stroke="#211F21" stroke-width="0.714453" stroke-linecap="round"/>
<path id="Vector 235" d="M470.993 241.586L470.691 251.977" stroke="#211F21" stroke-width="0.714453" stroke-linecap="round"/>
<ellipse id="Ellipse 185" rx="0.766092" ry="0.766092" transform="matrix(-0.0291007 1.0022 -0.936477 0.343162 475.501 232.997)" fill="url(#paint4_linear_288_1082)"/>
<g id="Vector 236">
<path d="M460.711 278.48C465.097 278.707 467.592 277.987 472.147 274.204C472.631 273.803 473.024 273.876 473.098 274.102C473.172 274.327 473.084 274.752 472.6 275.174C467.688 279.461 464.968 280.329 460.159 279.953C459.687 279.876 459.637 279.421 459.823 279.065C460.041 278.65 460.341 278.461 460.711 278.48Z" fill="url(#paint5_linear_288_1082)"/>
<path d="M471.849 271.658C471.735 271.447 471.285 271.453 470.775 271.932C467.389 274.902 465.476 275.547 462.045 275.197C461.699 275.148 461.311 275.404 461.202 275.765C461.074 276.193 461.321 276.432 461.66 276.48C465.303 276.993 467.419 276.251 471.348 272.858C471.71 272.544 472.02 271.973 471.849 271.658Z" fill="url(#paint6_linear_288_1082)"/>
<path d="M470.352 269.686C470.241 269.348 469.845 269.428 469.401 269.788C467.089 271.661 465.802 272.301 463.54 271.98C463.147 271.899 462.726 271.982 462.581 272.465C462.436 272.948 462.642 273.18 462.92 273.224C465.688 273.685 467.267 272.759 470.095 270.541C470.337 270.352 470.463 270.024 470.352 269.686Z" fill="url(#paint7_linear_288_1082)"/>
<path d="M469.455 267.363C469.225 267.07 468.863 267.151 468.262 267.683C466.987 268.8 466.279 269.05 465.033 268.89C464.484 268.804 463.846 268.954 463.715 269.51C463.583 270.065 463.748 270.228 464.409 270.262C466.15 270.258 467.142 269.95 468.954 268.563C469.423 268.224 469.683 267.784 469.455 267.363Z" fill="url(#paint8_linear_288_1082)"/>
</g>
<path id="Vector 237" d="M473.902 239.153C477.055 237.026 478.647 234.629 478.732 231.686C478.836 228.103 476.317 228.024 471.755 227.532C468.653 230.055 467.003 230.673 464.222 230.293C458.006 234.84 456.063 237.233 456.01 240.139C455.899 243.977 458.907 243.956 463.817 244.241C466.651 242.106 468.201 241.421 470.973 241.425" stroke="#211F21" stroke-width="0.714453" stroke-linecap="round"/>
<path id="Vector 238_2" d="M380.297 256.617C384.259 257.777 386.464 258.584 390.365 260.302C386.261 265 384.087 267.283 379.961 271.588C376.756 274.932 375.114 271.081 375.143 269.815C375.167 268.714 372.771 269.556 372.745 270.712L372.602 277.069C372.566 278.665 374.204 279.737 375.13 279.453C376.006 279.185 376.831 278.872 377.352 278.459L393.347 264.127C398.356 259.688 398.973 254.982 393.571 254.191L377.982 251.56C377.266 251.583 376.656 251.886 375.844 252.251C374.346 252.923 373.084 255.624 373.064 256.51L372.915 263.143C372.887 264.354 375.282 263.595 375.307 262.494C375.395 258.58 378.718 256.361 380.297 256.617Z" fill="#FCFAFA"/>
<g id="Group 375">
<circle id="Ellipse 177" r="15.3746" transform="matrix(-0.0224755 0.999747 -0.936659 0.350241 494.524 422.718)" fill="#E71924"/>
<circle id="Ellipse 178" r="15.3746" transform="matrix(-0.0224754 0.999747 -0.936659 0.350241 494.103 441.451)" fill="#F99F19"/>
<path id="Intersect" fill-rule="evenodd" clip-rule="evenodd" d="M482.951 436.333C485.502 439 489.585 439.806 494.236 438.067C498.886 436.328 503.075 432.429 505.79 427.794C503.239 425.126 499.156 424.32 494.505 426.059C489.855 427.798 485.666 431.697 482.951 436.333Z" fill="#F26520"/>
</g>
</g>
<g id="Rectangle 1104" filter="url(#filter3_ddddd_288_1082)">
<rect x="118.099" y="175.078" width="100.839" height="100.839" rx="15.4438" fill="url(#paint9_linear_288_1082)"/>
</g>
<rect id="Rectangle 1105" y="422.179" width="100.839" height="100.839" rx="15.4438" fill="url(#paint10_linear_288_1082)"/>
<path id="Vector 498" d="M280.713 721.061V952.309" stroke="url(#paint11_linear_288_1082)" stroke-width="3.06967" stroke-linecap="round" stroke-dasharray="1.02 10.23"/>
<path id="Vector" d="M169.154 245.03C169.154 245.03 182.963 238.126 182.963 227.769V215.687L169.154 210.509L155.346 215.687V227.769C155.346 238.126 169.154 245.03 169.154 245.03Z" stroke="#FCFAFA" stroke-width="3.43012" stroke-linecap="round" stroke-linejoin="round"/>
<path id="Vector_2" d="M42.9245 470.917L49.6471 455.791C50.9843 455.791 52.2667 456.322 53.2123 457.268C54.1578 458.214 54.689 459.496 54.689 460.833V467.556H64.2015C64.6888 467.55 65.1714 467.651 65.6159 467.85C66.0605 468.05 66.4563 468.344 66.776 468.711C67.0958 469.079 67.3317 469.512 67.4676 469.98C67.6035 470.448 67.6359 470.94 67.5628 471.421L65.2435 486.547C65.122 487.349 64.7149 488.079 64.0972 488.604C63.4795 489.129 62.6929 489.413 61.8822 489.404H42.9245M42.9245 470.917V489.404M42.9245 470.917H37.8825C36.9911 470.917 36.1361 471.271 35.5057 471.902C34.8754 472.532 34.5212 473.387 34.5212 474.278V486.043C34.5212 486.934 34.8754 487.789 35.5057 488.42C36.1361 489.05 36.9911 489.404 37.8825 489.404H42.9245" stroke="#FCFAFA" stroke-width="3.3613" stroke-linecap="round" stroke-linejoin="round"/>
</g>
<defs>
<filter id="filter0_d_288_1082" x="417.89" y="148.733" width="12.068" height="75.4662" filterUnits="userSpaceOnUse" color-interpolation-filters="sRGB">
<feFlood flood-opacity="0" result="BackgroundImageFix"/>
<feColorMatrix in="SourceAlpha" type="matrix" values="0 0 0 0 0 0 0 0 0 0 0 0 0 0 0 0 0 0 127 0" result="hardAlpha"/>
<feOffset dx="-1.81691"/>
<feGaussianBlur stdDeviation="2.27114"/>
<feColorMatrix type="matrix" values="0 0 0 0 0 0 0 0 0 0 0 0 0 0 0 0 0 0 0.12 0"/>
<feBlend mode="normal" in2="BackgroundImageFix" result="effect1_dropShadow_288_1082"/>
<feBlend mode="normal" in="SourceGraphic" in2="effect1_dropShadow_288_1082" result="shape"/>
</filter>
<filter id="filter1_dddd_288_1082" x="55.4158" y="0.654781" width="443.326" height="768.554" filterUnits="userSpaceOnUse" color-interpolation-filters="sRGB">
<feFlood flood-opacity="0" result="BackgroundImageFix"/>
<feColorMatrix in="SourceAlpha" type="matrix" values="0 0 0 0 0 0 0 0 0 0 0 0 0 0 0 0 0 0 127 0" result="hardAlpha"/>
<feOffset dy="2.09825"/>
<feGaussianBlur stdDeviation="1.64569"/>
<feColorMatrix type="matrix" values="0 0 0 0 0.662745 0 0 0 0 0.313726 0 0 0 0 0.768627 0 0 0 0.0278729 0"/>
<feBlend mode="normal" in2="BackgroundImageFix" result="effect1_dropShadow_288_1082"/>
<feColorMatrix in="SourceAlpha" type="matrix" values="0 0 0 0 0 0 0 0 0 0 0 0 0 0 0 0 0 0 127 0" result="hardAlpha"/>
<feOffset dy="5.80139"/>
<feGaussianBlur stdDeviation="4.55011"/>
<feColorMatrix type="matrix" values="0 0 0 0 0.662745 0 0 0 0 0.313726 0 0 0 0 0.768627 0 0 0 0.04 0"/>
<feBlend mode="normal" in2="effect1_dropShadow_288_1082" result="effect2_dropShadow_288_1082"/>
<feColorMatrix in="SourceAlpha" type="matrix" values="0 0 0 0 0 0 0 0 0 0 0 0 0 0 0 0 0 0 127 0" result="hardAlpha"/>
<feOffset dy="13.9675"/>
<feGaussianBlur stdDeviation="10.9549"/>
<feColorMatrix type="matrix" values="0 0 0 0 0.662745 0 0 0 0 0.313726 0 0 0 0 0.768627 0 0 0 0.0521271 0"/>
<feBlend mode="normal" in2="effect2_dropShadow_288_1082" result="effect3_dropShadow_288_1082"/>
<feColorMatrix in="SourceAlpha" type="matrix" values="0 0 0 0 0 0 0 0 0 0 0 0 0 0 0 0 0 0 127 0" result="hardAlpha"/>
<feOffset dy="46.3313"/>
<feGaussianBlur stdDeviation="36.3382"/>
<feColorMatrix type="matrix" values="0 0 0 0 0.662745 0 0 0 0 0.313726 0 0 0 0 0.768627 0 0 0 0.08 0"/>
<feBlend mode="normal" in2="effect3_dropShadow_288_1082" result="effect4_dropShadow_288_1082"/>
<feBlend mode="normal" in="SourceGraphic" in2="effect4_dropShadow_288_1082" result="shape"/>
</filter>
<filter id="filter2_i_288_1082" x="340.169" y="169.398" width="185.794" height="362.574" filterUnits="userSpaceOnUse" color-interpolation-filters="sRGB">
<feFlood flood-opacity="0" result="BackgroundImageFix"/>
<feBlend mode="normal" in="SourceGraphic" in2="BackgroundImageFix" result="shape"/>
<feColorMatrix in="SourceAlpha" type="matrix" values="0 0 0 0 0 0 0 0 0 0 0 0 0 0 0 0 0 0 127 0" result="hardAlpha"/>
<feOffset dx="1.23563" dy="5.76628"/>
<feGaussianBlur stdDeviation="8.64942"/>
<feComposite in2="hardAlpha" operator="arithmetic" k2="-1" k3="1"/>
<feColorMatrix type="matrix" values="0 0 0 0 0.408333 0 0 0 0 0.408333 0 0 0 0 0.408333 0 0 0 0.25 0"/>
<feBlend mode="normal" in2="shape" result="effect1_innerShadow_288_1082"/>
</filter>
<filter id="filter3_ddddd_288_1082" x="87.7367" y="175.078" width="161.564" height="169.154" filterUnits="userSpaceOnUse" color-interpolation-filters="sRGB">
<feFlood flood-opacity="0" result="BackgroundImageFix"/>
<feColorMatrix in="SourceAlpha" type="matrix" values="0 0 0 0 0 0 0 0 0 0 0 0 0 0 0 0 0 0 127 0" result="hardAlpha"/>
<feOffset dy="2.51393"/>
<feGaussianBlur stdDeviation="1.00557"/>
<feColorMatrix type="matrix" values="0 0 0 0 0.933333 0 0 0 0 0.439216 0 0 0 0 0.439216 0 0 0 0.0196802 0"/>
<feBlend mode="normal" in2="BackgroundImageFix" result="effect1_dropShadow_288_1082"/>
<feColorMatrix in="SourceAlpha" type="matrix" values="0 0 0 0 0 0 0 0 0 0 0 0 0 0 0 0 0 0 127 0" result="hardAlpha"/>
<feOffset dy="6.04132"/>
<feGaussianBlur stdDeviation="2.41653"/>
<feColorMatrix type="matrix" values="0 0 0 0 0.933333 0 0 0 0 0.439216 0 0 0 0 0.439216 0 0 0 0.0282725 0"/>
<feBlend mode="normal" in2="effect1_dropShadow_288_1082" result="effect2_dropShadow_288_1082"/>
<feColorMatrix in="SourceAlpha" type="matrix" values="0 0 0 0 0 0 0 0 0 0 0 0 0 0 0 0 0 0 127 0" result="hardAlpha"/>
<feOffset dy="11.3753"/>
<feGaussianBlur stdDeviation="4.55011"/>
<feColorMatrix type="matrix" values="0 0 0 0 0.933333 0 0 0 0 0.439216 0 0 0 0 0.439216 0 0 0 0.035 0"/>
<feBlend mode="normal" in2="effect2_dropShadow_288_1082" result="effect3_dropShadow_288_1082"/>
<feColorMatrix in="SourceAlpha" type="matrix" values="0 0 0 0 0 0 0 0 0 0 0 0 0 0 0 0 0 0 127 0" result="hardAlpha"/>
<feOffset dy="20.2916"/>
<feGaussianBlur stdDeviation="8.11662"/>
<feColorMatrix type="matrix" values="0 0 0 0 0.933333 0 0 0 0 0.439216 0 0 0 0 0.439216 0 0 0 0.0417275 0"/>
<feBlend mode="normal" in2="effect3_dropShadow_288_1082" result="effect4_dropShadow_288_1082"/>
<feColorMatrix in="SourceAlpha" type="matrix" values="0 0 0 0 0 0 0 0 0 0 0 0 0 0 0 0 0 0 127 0" result="hardAlpha"/>
<feOffset dy="37.9531"/>
<feGaussianBlur stdDeviation="15.1812"/>
<feColorMatrix type="matrix" values="0 0 0 0 0.933333 0 0 0 0 0.439216 0 0 0 0 0.439216 0 0 0 0.0503198 0"/>
<feBlend mode="normal" in2="effect4_dropShadow_288_1082" result="effect5_dropShadow_288_1082"/>
<feBlend mode="normal" in="SourceGraphic" in2="effect5_dropShadow_288_1082" result="shape"/>
</filter>
<linearGradient id="paint0_linear_288_1082" x1="137.177" y1="339.055" x2="416.981" y2="339.055" gradientUnits="userSpaceOnUse">
<stop stop-color="#AA0811"/>
<stop offset="1" stop-color="#E63147"/>
</linearGradient>
<linearGradient id="paint1_linear_288_1082" x1="5.53905e-07" y1="94.3199" x2="297.375" y2="94.3199" gradientUnits="userSpaceOnUse">
<stop stop-color="#AA0811"/>
<stop offset="1" stop-color="#E63147"/>
</linearGradient>
<linearGradient id="paint2_linear_288_1082" x1="18.8477" y1="25.5941" x2="30.1254" y2="2.14995" gradientUnits="userSpaceOnUse">
<stop stop-color="#F6F3F7"/>
<stop offset="1" stop-color="#D6D6D6"/>
</linearGradient>
<linearGradient id="paint3_linear_288_1082" x1="18.8477" y1="25.5941" x2="30.1254" y2="2.14995" gradientUnits="userSpaceOnUse">
<stop stop-color="#F6F3F7"/>
<stop offset="1" stop-color="#D6D6D6"/>
</linearGradient>
<linearGradient id="paint4_linear_288_1082" x1="0.807757" y1="1.53564" x2="1.61031" y2="0.343979" gradientUnits="userSpaceOnUse">
<stop stop-color="#0D0D0D"/>
<stop offset="1" stop-color="#D6D6D6"/>
</linearGradient>
<linearGradient id="paint5_linear_288_1082" x1="459.759" y1="276.503" x2="467.993" y2="281.728" gradientUnits="userSpaceOnUse">
<stop stop-color="#F6F3F7"/>
<stop offset="1" stop-color="#D6D6D6"/>
</linearGradient>
<linearGradient id="paint6_linear_288_1082" x1="459.759" y1="276.503" x2="467.993" y2="281.728" gradientUnits="userSpaceOnUse">
<stop stop-color="#F6F3F7"/>
<stop offset="1" stop-color="#D6D6D6"/>
</linearGradient>
<linearGradient id="paint7_linear_288_1082" x1="459.759" y1="276.503" x2="467.993" y2="281.728" gradientUnits="userSpaceOnUse">
<stop stop-color="#F6F3F7"/>
<stop offset="1" stop-color="#D6D6D6"/>
</linearGradient>
<linearGradient id="paint8_linear_288_1082" x1="459.759" y1="276.503" x2="467.993" y2="281.728" gradientUnits="userSpaceOnUse">
<stop stop-color="#F6F3F7"/>
<stop offset="1" stop-color="#D6D6D6"/>
</linearGradient>
<linearGradient id="paint9_linear_288_1082" x1="118.099" y1="225.498" x2="218.938" y2="225.498" gradientUnits="userSpaceOnUse">
<stop stop-color="#AA0811"/>
<stop offset="1" stop-color="#E63147"/>
</linearGradient>
<linearGradient id="paint10_linear_288_1082" x1="1.87827e-07" y1="472.598" x2="100.839" y2="472.598" gradientUnits="userSpaceOnUse">
<stop stop-color="#AA0811"/>
<stop offset="1" stop-color="#E63147"/>
</linearGradient>
<linearGradient id="paint11_linear_288_1082" x1="281.218" y1="721.061" x2="281.242" y2="952.309" gradientUnits="userSpaceOnUse">
<stop stop-color="#AA0811"/>
<stop offset="1" stop-color="#E63147" stop-opacity="0"/>
</linearGradient>
</defs>
</svg>
