<svg width="166" height="54" viewBox="0 0 166 54" fill="none" xmlns="http://www.w3.org/2000/svg">
<rect width="165.751" height="53.2771" rx="15.7858" fill="#FEFBFF"/>
<path d="M63.5265 23V16.5278H65.1445C66.1443 16.5278 66.904 16.8074 67.4236 17.3664C67.9432 17.9189 68.203 18.7082 68.203 19.7343C68.203 20.767 67.9432 21.5694 67.4236 22.1416C66.9106 22.7139 66.164 23 65.184 23H63.5265ZM64.3454 22.3291H65.0854C65.8418 22.3291 66.4074 22.1022 66.7823 21.6483C67.1638 21.1879 67.3546 20.5499 67.3546 19.7343C67.3546 18.9187 67.1638 18.2939 66.7823 17.8597C66.4074 17.4191 65.8418 17.1987 65.0854 17.1987H64.3454V22.3291ZM71.3823 23.1184C70.9942 23.1184 70.6291 23.0197 70.2871 22.8224C69.9517 22.6251 69.6787 22.339 69.4682 21.9641C69.2643 21.5891 69.1624 21.1386 69.1624 20.6124C69.1624 20.073 69.2643 19.6159 69.4682 19.241C69.6787 18.8661 69.9517 18.58 70.2871 18.3827C70.6291 18.1853 70.9942 18.0867 71.3823 18.0867C71.7769 18.0867 72.1419 18.1853 72.4774 18.3827C72.8128 18.58 73.0825 18.8661 73.2864 19.241C73.4969 19.6159 73.6021 20.073 73.6021 20.6124C73.6021 21.1386 73.4969 21.5891 73.2864 21.9641C73.0825 22.339 72.8128 22.6251 72.4774 22.8224C72.1419 23.0197 71.7769 23.1184 71.3823 23.1184ZM71.3823 22.4475C71.7966 22.4475 72.1288 22.2798 72.3787 21.9443C72.6353 21.6023 72.7635 21.1583 72.7635 20.6124C72.7635 20.0599 72.6353 19.6126 72.3787 19.2706C72.1288 18.9286 71.7966 18.7576 71.3823 18.7576C70.9745 18.7576 70.6423 18.9286 70.3858 19.2706C70.1293 19.6126 70.001 20.0599 70.001 20.6124C70.001 21.1583 70.1293 21.6023 70.3858 21.9443C70.6423 22.2798 70.9745 22.4475 71.3823 22.4475ZM75.5861 23L74.2541 18.2051H75.0829L75.7933 20.9774C75.8459 21.2011 75.8952 21.4247 75.9413 21.6483C75.9873 21.8654 76.0333 22.0857 76.0794 22.3094H76.1188C76.1715 22.0857 76.2241 21.8654 76.2767 21.6483C76.3293 21.4247 76.3852 21.2011 76.4444 20.9774L77.1844 18.2051H77.9737L78.7235 20.9774C78.7827 21.2011 78.8386 21.4247 78.8912 21.6483C78.9504 21.8654 79.0063 22.0857 79.059 22.3094H79.0984C79.151 22.0857 79.2004 21.8654 79.2464 21.6483C79.299 21.4247 79.3484 21.2011 79.3944 20.9774L80.0949 18.2051H80.8645L79.5819 23H78.5952L77.9046 20.4249C77.8454 20.1947 77.7895 19.9678 77.7369 19.7442C77.6908 19.5205 77.6382 19.287 77.579 19.0437H77.5396C77.4869 19.287 77.4343 19.5238 77.3817 19.754C77.3291 19.9777 77.2699 20.2046 77.2041 20.4348L76.5332 23H75.5861ZM81.908 23V18.2051H82.5789L82.648 18.8957H82.6776C82.9078 18.6655 83.1512 18.4747 83.4077 18.3235C83.6642 18.1656 83.9569 18.0867 84.2858 18.0867C84.7922 18.0867 85.1606 18.2478 85.3908 18.5701C85.6276 18.8858 85.746 19.3495 85.746 19.9612V23H84.9369V20.0698C84.9369 19.6225 84.8646 19.2969 84.7199 19.093C84.5752 18.8891 84.345 18.7872 84.0292 18.7872C83.7859 18.7872 83.5655 18.8496 83.3682 18.9746C83.1775 19.0996 82.9604 19.2838 82.717 19.5271V23H81.908ZM88.1619 23.1184C87.8594 23.1184 87.639 23.0263 87.5009 22.8421C87.3693 22.6514 87.3036 22.3817 87.3036 22.0331V15.9753H88.1126V22.0923C88.1126 22.2173 88.1356 22.3094 88.1817 22.3686C88.2277 22.4212 88.2803 22.4475 88.3395 22.4475C88.3658 22.4475 88.3888 22.4475 88.4086 22.4475C88.4349 22.4409 88.4711 22.4343 88.5171 22.4278L88.6256 23.0395C88.573 23.0658 88.5105 23.0855 88.4382 23.0987C88.3658 23.1118 88.2737 23.1184 88.1619 23.1184ZM91.683 23.1184C91.2949 23.1184 90.9299 23.0197 90.5878 22.8224C90.2524 22.6251 89.9794 22.339 89.7689 21.9641C89.565 21.5891 89.4631 21.1386 89.4631 20.6124C89.4631 20.073 89.565 19.6159 89.7689 19.241C89.9794 18.8661 90.2524 18.58 90.5878 18.3827C90.9299 18.1853 91.2949 18.0867 91.683 18.0867C92.0776 18.0867 92.4427 18.1853 92.7781 18.3827C93.1136 18.58 93.3832 18.8661 93.5871 19.241C93.7976 19.6159 93.9029 20.073 93.9029 20.6124C93.9029 21.1386 93.7976 21.5891 93.5871 21.9641C93.3832 22.339 93.1136 22.6251 92.7781 22.8224C92.4427 23.0197 92.0776 23.1184 91.683 23.1184ZM91.683 22.4475C92.0973 22.4475 92.4295 22.2798 92.6795 21.9443C92.936 21.6023 93.0642 21.1583 93.0642 20.6124C93.0642 20.0599 92.936 19.6126 92.6795 19.2706C92.4295 18.9286 92.0973 18.7576 91.683 18.7576C91.2752 18.7576 90.943 18.9286 90.6865 19.2706C90.43 19.6126 90.3017 20.0599 90.3017 20.6124C90.3017 21.1583 90.43 21.6023 90.6865 21.9443C90.943 22.2798 91.2752 22.4475 91.683 22.4475ZM96.1358 23.1184C95.7345 23.1184 95.3991 23 95.1294 22.7632C94.8663 22.5198 94.7348 22.1844 94.7348 21.7569C94.7348 21.2307 94.9683 20.8295 95.4353 20.5532C95.9088 20.2704 96.6554 20.073 97.6749 19.9612C97.6749 19.7573 97.6453 19.5633 97.5861 19.3791C97.5335 19.195 97.4348 19.047 97.2901 18.9352C97.152 18.8168 96.9514 18.7576 96.6883 18.7576C96.412 18.7576 96.1522 18.8102 95.9088 18.9154C95.6655 19.0207 95.4484 19.1391 95.2577 19.2706L94.942 18.7082C95.1656 18.5635 95.4386 18.4254 95.7608 18.2939C96.0897 18.1557 96.4449 18.0867 96.8264 18.0867C97.4118 18.0867 97.836 18.2675 98.0991 18.6293C98.3622 18.9845 98.4938 19.4613 98.4938 20.0599V23H97.8229L97.7538 22.4278H97.7242C97.5006 22.6119 97.2539 22.7731 96.9842 22.9112C96.7211 23.0493 96.4383 23.1184 96.1358 23.1184ZM96.3725 22.4672C96.6028 22.4672 96.8198 22.4113 97.0237 22.2995C97.2276 22.1877 97.4447 22.0298 97.6749 21.8259V20.494C96.879 20.5927 96.3199 20.7407 95.9976 20.938C95.6819 21.1353 95.5241 21.3885 95.5241 21.6977C95.5241 21.9673 95.6063 22.1647 95.7707 22.2896C95.9351 22.408 96.1358 22.4672 96.3725 22.4672ZM101.64 23.1184C101.042 23.1184 100.561 22.9013 100.2 22.4672C99.8379 22.0265 99.657 21.4083 99.657 20.6124C99.657 20.0928 99.7524 19.6455 99.9432 19.2706C100.14 18.8891 100.397 18.5964 100.713 18.3925C101.035 18.1886 101.377 18.0867 101.739 18.0867C102.015 18.0867 102.255 18.136 102.459 18.2347C102.663 18.3333 102.87 18.4682 103.081 18.6392L103.041 17.8203V15.9753H103.86V23H103.189L103.12 22.4376H103.09C102.906 22.6218 102.689 22.7829 102.439 22.9211C102.189 23.0526 101.923 23.1184 101.64 23.1184ZM101.818 22.4376C102.239 22.4376 102.646 22.2173 103.041 21.7766V19.2706C102.837 19.0864 102.64 18.9582 102.449 18.8858C102.265 18.8069 102.074 18.7674 101.877 18.7674C101.62 18.7674 101.387 18.8464 101.176 19.0042C100.973 19.1555 100.808 19.3693 100.683 19.6455C100.558 19.9152 100.496 20.2342 100.496 20.6025C100.496 21.1748 100.611 21.6253 100.841 21.9542C101.071 22.2765 101.397 22.4376 101.818 22.4376ZM108.486 23L106.759 18.2051H107.598L108.506 20.9281C108.578 21.1649 108.651 21.4017 108.723 21.6385C108.802 21.8753 108.877 22.1088 108.95 22.339H108.989C109.062 22.1088 109.134 21.8753 109.206 21.6385C109.285 21.4017 109.358 21.1649 109.423 20.9281L110.331 18.2051H111.13L109.433 23H108.486ZM112.056 23V18.2051H112.865V23H112.056ZM112.47 17.2184C112.312 17.2184 112.181 17.1724 112.075 17.0803C111.977 16.9817 111.927 16.8501 111.927 16.6857C111.927 16.5278 111.977 16.3996 112.075 16.3009C112.181 16.2022 112.312 16.1529 112.47 16.1529C112.628 16.1529 112.756 16.2022 112.855 16.3009C112.96 16.3996 113.013 16.5278 113.013 16.6857C113.013 16.8501 112.96 16.9817 112.855 17.0803C112.756 17.1724 112.628 17.2184 112.47 17.2184ZM115.589 23.1184C115.187 23.1184 114.852 23 114.582 22.7632C114.319 22.5198 114.188 22.1844 114.188 21.7569C114.188 21.2307 114.421 20.8295 114.888 20.5532C115.362 20.2704 116.108 20.073 117.128 19.9612C117.128 19.7573 117.098 19.5633 117.039 19.3791C116.986 19.195 116.888 19.047 116.743 18.9352C116.605 18.8168 116.404 18.7576 116.141 18.7576C115.865 18.7576 115.605 18.8102 115.362 18.9154C115.118 19.0207 114.901 19.1391 114.711 19.2706L114.395 18.7082C114.618 18.5635 114.891 18.4254 115.214 18.2939C115.543 18.1557 115.898 18.0867 116.279 18.0867C116.865 18.0867 117.289 18.2675 117.552 18.6293C117.815 18.9845 117.947 19.4613 117.947 20.0599V23H117.276L117.207 22.4278H117.177C116.953 22.6119 116.707 22.7731 116.437 22.9112C116.174 23.0493 115.891 23.1184 115.589 23.1184ZM115.825 22.4672C116.056 22.4672 116.273 22.4113 116.477 22.2995C116.68 22.1877 116.898 22.0298 117.128 21.8259V20.494C116.332 20.5927 115.773 20.7407 115.45 20.938C115.135 21.1353 114.977 21.3885 114.977 21.6977C114.977 21.9673 115.059 22.1647 115.224 22.2896C115.388 22.408 115.589 22.4672 115.825 22.4672Z" fill="#363434"/>
<path d="M63.6261 36.8525V28.49H66.4992C67.1148 28.49 67.6706 28.5755 68.1665 28.7465C68.671 28.909 69.0729 29.1869 69.3722 29.5802C69.6715 29.9735 69.8211 30.508 69.8211 31.1835C69.8211 31.8333 69.6715 32.3677 69.3722 32.7867C69.0729 33.2057 68.6753 33.5178 68.1794 33.723C67.6834 33.9197 67.1405 34.018 66.5505 34.018H65.5116V36.8525H63.6261ZM65.5116 32.5174H66.435C67.4611 32.5174 67.9742 32.0727 67.9742 31.1835C67.9742 30.7474 67.8373 30.4396 67.5637 30.26C67.2901 30.0804 66.8968 29.9906 66.3837 29.9906H65.5116V32.5174ZM72.8442 37.0065C72.1944 37.0065 71.7412 36.8141 71.4847 36.4293C71.2367 36.036 71.1127 35.5186 71.1127 34.8773V27.8615H72.9981V34.9543C72.9981 35.151 73.0323 35.2878 73.1007 35.3647C73.1777 35.4417 73.2546 35.4802 73.3316 35.4802C73.3744 35.4802 73.4086 35.4802 73.4342 35.4802C73.4684 35.4716 73.5112 35.4631 73.5625 35.4545L73.7933 36.8525C73.6907 36.8953 73.5582 36.9295 73.3957 36.9551C73.2418 36.9893 73.058 37.0065 72.8442 37.0065ZM76.3859 37.0065C75.8044 37.0065 75.3427 36.8226 75.0007 36.4549C74.6587 36.0787 74.4876 35.6212 74.4876 35.0826C74.4876 34.4156 74.7698 33.894 75.3342 33.5178C75.8985 33.1416 76.8091 32.8893 78.0661 32.7611C78.049 32.4789 77.9635 32.2566 77.8096 32.0941C77.6642 31.9231 77.4162 31.8376 77.0657 31.8376C76.8006 31.8376 76.5312 31.8889 76.2576 31.9915C75.984 32.0941 75.6933 32.2352 75.3855 32.4148L74.7057 31.1706C75.1076 30.9227 75.5351 30.7217 75.9883 30.5678C76.45 30.4139 76.9289 30.3369 77.4248 30.3369C78.2371 30.3369 78.8613 30.5721 79.2974 31.0424C79.7335 31.5127 79.9515 32.2352 79.9515 33.21V36.8525H78.4124L78.2841 36.1984H78.2328C77.9678 36.4378 77.6813 36.6345 77.3735 36.7884C77.0742 36.9338 76.745 37.0065 76.3859 37.0065ZM77.0272 35.5443C77.2409 35.5443 77.4248 35.4973 77.5787 35.4032C77.7412 35.3006 77.9036 35.1681 78.0661 35.0056V33.8897C77.3991 33.9752 76.9374 34.1121 76.6809 34.3002C76.4244 34.4797 76.2961 34.6935 76.2961 34.9415C76.2961 35.1467 76.3602 35.3006 76.4885 35.4032C76.6253 35.4973 76.8049 35.5443 77.0272 35.5443ZM82.2518 39.3408C82.0636 39.3408 81.8969 39.328 81.7515 39.3023C81.6147 39.2766 81.4822 39.2467 81.3539 39.2125L81.6874 37.776C81.7473 37.7846 81.8157 37.7974 81.8926 37.8145C81.9696 37.8401 82.0423 37.853 82.1107 37.853C82.427 37.853 82.6707 37.776 82.8418 37.6221C83.0128 37.4682 83.141 37.2672 83.2265 37.0193L83.3163 36.6858L80.8666 30.4909H82.7648L83.6754 33.2228C83.7695 33.5135 83.855 33.8085 83.932 34.1078C84.0089 34.4071 84.0902 34.7149 84.1757 35.0313H84.227C84.2954 34.732 84.3638 34.4327 84.4322 34.1334C84.5091 33.8256 84.5861 33.5221 84.663 33.2228L85.4326 30.4909H87.2411L85.035 36.9167C84.8383 37.4468 84.6203 37.8914 84.3809 38.2506C84.1415 38.6182 83.8507 38.8919 83.5087 39.0714C83.1752 39.251 82.7562 39.3408 82.2518 39.3408ZM93.5089 37.0065C92.9616 37.0065 92.4144 36.9038 91.8671 36.6986C91.3284 36.4934 90.8453 36.1941 90.4178 35.8008L91.4952 34.5054C91.7945 34.7619 92.1279 34.9714 92.4956 35.1339C92.8633 35.2963 93.2181 35.3776 93.5602 35.3776C93.9535 35.3776 94.2442 35.3049 94.4323 35.1595C94.629 35.0142 94.7273 34.8175 94.7273 34.5695C94.7273 34.3044 94.6162 34.1121 94.3938 33.9923C94.1801 33.8641 93.8894 33.723 93.5217 33.5691L92.4315 33.1074C92.1493 32.9876 91.88 32.8295 91.6234 32.6328C91.3669 32.4276 91.1574 32.1753 90.995 31.8761C90.8325 31.5768 90.7513 31.2262 90.7513 30.8243C90.7513 30.3626 90.8753 29.9436 91.1232 29.5674C91.3797 29.1912 91.7303 28.8919 92.175 28.6696C92.6281 28.4473 93.1455 28.3361 93.7269 28.3361C94.2057 28.3361 94.6846 28.4302 95.1634 28.6183C95.6422 28.8064 96.0612 29.08 96.4204 29.4391L95.4584 30.6319C95.1848 30.4182 94.9112 30.2557 94.6375 30.1446C94.3639 30.0248 94.0604 29.965 93.7269 29.965C93.402 29.965 93.1412 30.0334 92.9445 30.1702C92.7564 30.2985 92.6623 30.4823 92.6623 30.7217C92.6623 30.9782 92.7821 31.1706 93.0215 31.2989C93.2694 31.4272 93.573 31.564 93.9321 31.7093L95.0095 32.1454C95.514 32.3506 95.9159 32.6328 96.2151 32.9919C96.5144 33.351 96.664 33.8256 96.664 34.4156C96.664 34.8773 96.5401 35.3049 96.2921 35.6982C96.0441 36.0915 95.685 36.4079 95.2147 36.6473C94.7444 36.8867 94.1758 37.0065 93.5089 37.0065ZM100.016 37.0065C99.2294 37.0065 98.665 36.7799 98.323 36.3267C97.9895 35.8735 97.8228 35.2792 97.8228 34.5439V31.9658H96.9506V30.5678L97.9254 30.4909L98.1434 28.7978H99.7082V30.4909H101.234V31.9658H99.7082V34.5182C99.7082 34.8773 99.7809 35.1381 99.9262 35.3006C100.08 35.4545 100.281 35.5315 100.529 35.5315C100.632 35.5315 100.734 35.5186 100.837 35.493C100.948 35.4673 101.046 35.4374 101.132 35.4032L101.427 36.7756C101.264 36.8269 101.063 36.8782 100.824 36.9295C100.593 36.9808 100.324 37.0065 100.016 37.0065ZM104.983 37.0065C104.444 37.0065 103.935 36.8782 103.456 36.6217C102.986 36.3566 102.606 35.9761 102.315 35.4802C102.024 34.9757 101.879 34.3729 101.879 33.6717C101.879 32.962 102.024 32.3592 102.315 31.8632C102.606 31.3673 102.986 30.9911 103.456 30.7346C103.935 30.4695 104.444 30.3369 104.983 30.3369C105.521 30.3369 106.026 30.4695 106.496 30.7346C106.966 30.9911 107.347 31.3673 107.638 31.8632C107.928 32.3592 108.074 32.962 108.074 33.6717C108.074 34.3729 107.928 34.9757 107.638 35.4802C107.347 35.9761 106.966 36.3566 106.496 36.6217C106.026 36.8782 105.521 37.0065 104.983 37.0065ZM104.983 35.4802C105.367 35.4802 105.658 35.3177 105.855 34.9928C106.052 34.6593 106.15 34.2189 106.15 33.6717C106.15 33.1159 106.052 32.6755 105.855 32.3506C105.658 32.0257 105.367 31.8632 104.983 31.8632C104.589 31.8632 104.294 32.0257 104.098 32.3506C103.91 32.6755 103.816 33.1159 103.816 33.6717C103.816 34.2189 103.91 34.6593 104.098 34.9928C104.294 35.3177 104.589 35.4802 104.983 35.4802ZM109.365 36.8525V30.4909H110.904L111.033 31.6067H111.084C111.315 31.1792 111.593 30.8628 111.918 30.6576C112.242 30.4438 112.567 30.3369 112.892 30.3369C113.072 30.3369 113.222 30.3498 113.341 30.3754C113.461 30.3925 113.564 30.4225 113.649 30.4652L113.341 32.0941C113.23 32.0599 113.119 32.0342 113.008 32.0171C112.905 32 112.785 31.9915 112.649 31.9915C112.409 31.9915 112.157 32.0813 111.892 32.2608C111.635 32.4319 111.422 32.7311 111.251 33.1587V36.8525H109.365ZM117.198 37.0065C116.591 37.0065 116.043 36.8739 115.556 36.6088C115.069 36.3438 114.684 35.9633 114.402 35.4673C114.119 34.9714 113.978 34.3729 113.978 33.6717C113.978 32.9791 114.119 32.3848 114.402 31.8889C114.692 31.393 115.069 31.0124 115.53 30.7474C115.992 30.4738 116.475 30.3369 116.98 30.3369C117.587 30.3369 118.087 30.4738 118.48 30.7474C118.882 31.0124 119.181 31.3758 119.378 31.8376C119.583 32.2908 119.686 32.8081 119.686 33.3895C119.686 33.552 119.677 33.7145 119.66 33.8769C119.643 34.0308 119.626 34.1463 119.609 34.2232H115.8C115.885 34.685 116.077 35.027 116.377 35.2493C116.676 35.4631 117.035 35.5699 117.454 35.5699C117.907 35.5699 118.365 35.4289 118.827 35.1467L119.455 36.2882C119.13 36.5105 118.767 36.6858 118.365 36.8141C117.963 36.9423 117.574 37.0065 117.198 37.0065ZM115.787 32.9791H118.083C118.083 32.6285 117.997 32.3421 117.826 32.1198C117.664 31.8889 117.394 31.7735 117.018 31.7735C116.727 31.7735 116.467 31.8761 116.236 32.0813C116.005 32.2779 115.855 32.5772 115.787 32.9791Z" fill="#242222"/>
<path fill-rule="evenodd" clip-rule="evenodd" d="M36.4045 17.2073C36.1576 17.4619 36 17.8106 36 18.2143V35.1134C36 35.5782 36.2089 35.9699 36.5224 36.2293L45.9749 26.7775L36.4045 17.2073ZM47.0015 27.8041L38.8096 35.9953L49.0855 29.888L47.0015 27.8041ZM50.3733 29.1226L48.0281 26.7775L50.516 24.2899L52.4105 25.4158C53.3572 25.9785 53.3572 27.3492 52.4105 27.9119L50.3733 29.1226ZM47.0015 25.751L38.2503 17L49.2282 23.5245L47.0015 25.751Z" fill="url(#paint0_linear_301_599)"/>
<defs>
<linearGradient id="paint0_linear_301_599" x1="36" y1="26.6146" x2="53.1205" y2="26.6146" gradientUnits="userSpaceOnUse">
<stop stop-color="#AA0811"/>
<stop offset="1" stop-color="#E63147"/>
</linearGradient>
</defs>
</svg>
