<svg width="722" height="458" viewBox="0 0 722 458" fill="none" xmlns="http://www.w3.org/2000/svg">
<g id="Group 433">
<g id="Rectangle 1057" filter="url(#filter0_bi_182_304)">
<rect width="722" height="458" rx="25" transform="matrix(1 0 0 -1 0 458)" fill="url(#paint0_linear_182_304)"/>
</g>
<rect id="Rectangle 1058" width="722" height="107.344" transform="matrix(1 0 0 -1 0 425)" fill="#D6D6D6"/>
<rect id="Rectangle 1059" width="157.438" height="103.766" rx="51.8828" transform="matrix(1 0 0 -1 35 229)" fill="url(#paint1_linear_182_304)"/>
<text id="5032 9334 3764 9846" transform="matrix(1 0 0 -1 24 104)" fill="#FEFBFF" xml:space="preserve" style="white-space: pre" font-family="Rubik" font-size="36" letter-spacing="0.03em"><tspan x="0" y="37.33">5032 9334 3764 9846</tspan></text>
<text id="Redrag" transform="matrix(1 0 0 -1 47 300)" fill="#F7F2FA" xml:space="preserve" style="white-space: pre" font-family="Sora" font-size="36" font-weight="600" letter-spacing="0em"><tspan x="0" y="37.24">Redrag</tspan></text>
<text id="02/17" transform="matrix(1 0 0 -1 66 45)" fill="#FEFBFF" xml:space="preserve" style="white-space: pre" font-family="Rubik" font-size="18" letter-spacing="0em"><tspan x="0" y="18.665">02/17</tspan></text>
<text id="02/20" transform="matrix(1 0 0 -1 168 45)" fill="#FEFBFF" xml:space="preserve" style="white-space: pre" font-family="Rubik" font-size="18" letter-spacing="0em"><tspan x="0" y="18.665">02/20</tspan></text>
<text id="123" transform="matrix(1 0 0 -1 283 45)" fill="#FEFBFF" xml:space="preserve" style="white-space: pre" font-family="Rubik" font-size="18" letter-spacing="0em"><tspan x="0" y="18.665">123</tspan></text>
<g id="Group 373">
<text id="cirrus." transform="matrix(1 0 0 -1 624 36.9998)" fill="#FBF9FC" xml:space="preserve" style="white-space: pre" font-family="Sora" font-size="13" font-weight="600" letter-spacing="0em"><tspan x="0" y="13.42">cirrus.</tspan></text>
<circle id="Ellipse 7" r="31" transform="matrix(1 0 0 -1 626 68.9998)" fill="#0167B2"/>
<circle id="Ellipse 8" r="31" transform="matrix(1 0 0 -1 664 68.9998)" fill="#02A1E2"/>
<path id="Intersect" fill-rule="evenodd" clip-rule="evenodd" d="M644.872 44.5992C652.228 50.2609 656.968 59.1541 656.968 69.1546C656.968 79.155 652.228 88.0483 644.872 93.7099C637.515 88.0483 632.775 79.155 632.775 69.1546C632.775 59.1541 637.515 50.2609 644.872 44.5992Z" fill="#207CBD"/>
</g>
<text id="valid thru" transform="matrix(1 0 0 -1 138 42)" fill="#FEFBFF" xml:space="preserve" style="white-space: pre" font-family="Source Sans Pro" font-size="6" letter-spacing="0.1em"><tspan x="0" y="6.133">VALID&#10;</tspan><tspan x="0" y="14.133">THRU</tspan></text>
<text id="security code" transform="matrix(1 0 0 -1 240 42)" fill="#FEFBFF" xml:space="preserve" style="white-space: pre" font-family="Source Sans Pro" font-size="6" letter-spacing="0.1em"><tspan x="0" y="6.133">SECURITY&#10;</tspan><tspan x="0" y="14.133">CODE</tspan></text>
<path id="Vector" d="M322 270C322 269.47 321.789 268.961 321.414 268.586C321.039 268.211 320.53 268 320 268H308L304 264V280C304 280.53 304.211 281.039 304.586 281.414C304.961 281.789 305.47 282 306 282H320C320.53 282 321.039 281.789 321.414 281.414C321.789 281.039 322 280.53 322 280V270Z" stroke="#FEFBFF" stroke-linecap="round" stroke-linejoin="round"/>
<g id="Group 374">
<path id="Vector_2" d="M313 222C318.523 222 323 226.477 323 232C323 237.523 318.523 242 313 242C307.477 242 303 237.523 303 232C303 226.477 307.477 222 313 222Z" stroke="#FEFBFF" stroke-linecap="round" stroke-linejoin="round"/>
<path id="Vector_3" d="M310.09 235C310.325 235.668 310.789 236.232 311.4 236.591C312.011 236.95 312.729 237.081 313.427 236.961C314.125 236.842 314.759 236.479 315.215 235.937C315.671 235.395 315.921 234.709 315.92 234C315.92 232 312.92 231 312.92 231" stroke="#FEFBFF" stroke-linecap="round" stroke-linejoin="round"/>
<path id="Vector_4" d="M313 227H313.01" stroke="#FEFBFF" stroke-linecap="round" stroke-linejoin="round"/>
</g>
<text id="Est&#195;&#161; com d&#195;&#186;vidas? Nosso app pode te ajudar." transform="matrix(1 0 0 -1 335 288)" fill="#FEFBFF" xml:space="preserve" style="white-space: pre" font-family="Source Sans Pro" font-size="9" letter-spacing="0em"><tspan x="0" y="10.1995">Est&#xe1; com d&#xfa;vidas?&#10;</tspan><tspan x="0" y="24.1995">Nosso app pode te ajudar.</tspan></text>
<text id="Fale com a gente: 0800 591 2117" transform="matrix(1 0 0 -1 335 246)" fill="#FEFBFF" xml:space="preserve" style="white-space: pre" font-family="Source Sans Pro" font-size="9" letter-spacing="0em"><tspan x="0" y="10.1995">Fale com a gente:&#10;</tspan><tspan x="0" y="24.1995">0800 591 2117</tspan></text>
<circle id="Ellipse 184" r="31.5" transform="matrix(1 0 0 -1 125.5 179.5)" fill="#D9D9D9"/>
<path id="Subtract" fill-rule="evenodd" clip-rule="evenodd" d="M86.8828 229C58.2287 229 35 205.771 35 177.117C35 148.463 58.2287 125.234 86.8828 125.234H102.19C134.446 165.059 137.039 187.773 102 229H86.8828Z" fill="url(#paint2_linear_182_304)"/>
</g>
<defs>
<filter id="filter0_bi_182_304" x="-70" y="-70" width="862" height="598" filterUnits="userSpaceOnUse" color-interpolation-filters="sRGB">
<feFlood flood-opacity="0" result="BackgroundImageFix"/>
<feGaussianBlur in="BackgroundImage" stdDeviation="35"/>
<feComposite in2="SourceAlpha" operator="in" result="effect1_backgroundBlur_182_304"/>
<feBlend mode="normal" in="SourceGraphic" in2="effect1_backgroundBlur_182_304" result="shape"/>
<feColorMatrix in="SourceAlpha" type="matrix" values="0 0 0 0 0 0 0 0 0 0 0 0 0 0 0 0 0 0 127 0" result="hardAlpha"/>
<feOffset dx="3" dy="3"/>
<feGaussianBlur stdDeviation="3"/>
<feComposite in2="hardAlpha" operator="arithmetic" k2="-1" k3="1"/>
<feColorMatrix type="matrix" values="0 0 0 0 1 0 0 0 0 1 0 0 0 0 1 0 0 0 0.25 0"/>
<feBlend mode="normal" in2="shape" result="effect2_innerShadow_182_304"/>
</filter>
<linearGradient id="paint0_linear_182_304" x1="16" y1="-2.87552e-06" x2="736" y2="468" gradientUnits="userSpaceOnUse">
<stop stop-color="#AA0811"/>
<stop offset="1" stop-color="#E63147"/>
</linearGradient>
<linearGradient id="paint1_linear_182_304" x1="83" y1="104" x2="126.5" y2="6" gradientUnits="userSpaceOnUse">
<stop stop-color="#F6F3F7"/>
<stop offset="1" stop-color="#D6D6D6"/>
</linearGradient>
<linearGradient id="paint2_linear_182_304" x1="106.5" y1="224" x2="58" y2="137.5" gradientUnits="userSpaceOnUse">
<stop stop-color="#F5F5F5"/>
<stop offset="1" stop-color="#D6D6D6"/>
</linearGradient>
</defs>
</svg>
