<svg width="30" height="35" viewBox="0 0 30 35" fill="none" xmlns="http://www.w3.org/2000/svg">
<path d="M0.677941 18.8266C0.37751 13.7606 4.08969 8.58985 9.54849 8.58985C10.8055 8.58985 11.3756 8.87417 12.7447 9.2886C13.4777 9.51049 14.7199 10.1271 15.4382 10.1271C16.1564 10.1271 17.0184 9.67291 18.181 9.25809C19.8304 8.6696 20.8059 8.60666 21.7589 8.58985C24.9551 8.58985 27.3017 9.88977 28.7978 11.9089C26.3283 13.4723 25.027 15.3677 24.9551 18.4423C24.9551 21.2373 26.7867 23.9624 29.7315 25.1852C29.0133 28.12 25.1347 34.1642 21.9384 34.1642C20.8409 34.1031 20.1664 33.9364 18.8858 33.4654C17.9316 33.0585 16.6592 32.7667 15.8332 32.7667C14.9713 32.7317 14.0053 33.0035 12.7986 33.4654C11.7751 33.8572 11.1652 34.0796 9.76392 34.1642C7.10637 34.3246 1.21043 27.8055 0.677941 18.8266Z" fill="url(#paint0_linear_80_833)"/>
<path d="M17.162 3.13958C15.6795 4.69271 15.115 6.73815 15.2227 8.58985C17.6648 8.41516 19.3527 7.43691 20.8969 5.62015C22.4412 3.8034 22.4526 2.48325 22.4412 0.554199C20.6438 0.838735 18.5626 1.6722 17.162 3.13958Z" fill="url(#paint1_linear_80_833)"/>
<defs>
<linearGradient id="paint0_linear_80_833" x1="0.66095" y1="17.3606" x2="29.7315" y2="17.3606" gradientUnits="userSpaceOnUse">
<stop stop-color="#AA0811"/>
<stop offset="1" stop-color="#E63147"/>
</linearGradient>
<linearGradient id="paint1_linear_80_833" x1="0.66095" y1="17.3606" x2="29.7315" y2="17.3606" gradientUnits="userSpaceOnUse">
<stop stop-color="#AA0811"/>
<stop offset="1" stop-color="#E63147"/>
</linearGradient>
</defs>
</svg>
